<?xml version="1.0" standalone="no"?>
<!DOCTYPE svg PUBLIC "-//W3C//DTD SVG 1.1//EN" "http://www.w3.org/Graphics/SVG/1.1/DTD/svg11.dtd" >
<svg>
<metadata>
Created by FontForge 20090622 at Fri Aug 10 08:09:45 2018
 By deploy user
Copyright (c) 2011 by Goran Soderstrom. All rights reserved.
</metadata>
<defs>
<font id="Siri-Thin" horiz-adv-x="592" >
  <font-face 
    font-family="Siri Thin"
    font-weight="250"
    font-stretch="normal"
    units-per-em="1000"
    panose-1="2 0 0 0 0 0 0 0 0 0"
    ascent="750"
    descent="-250"
    x-height="497"
    cap-height="700"
    bbox="-142 -215 1097 871"
    underline-thickness="30"
    underline-position="-78"
    unicode-range="U+0020-U+FB04"
  />
<missing-glyph horiz-adv-x="612" 
d="M98 -100v900h416v-900h-416zM137 -80h338v859h-338v-859z" />
    <glyph glyph-name="ff" unicode="ff" horiz-adv-x="569" 
d="M102 0v478h-77v19h77v55q0 146 125 146q40 0 52 -6q0 -2 0.5 -6.5t0.5 -6.5q0 -3 -0.5 -6.5t-0.5 -4.5q-18 11 -55 11q-50 0 -68.5 -28.5t-18.5 -98.5v-55h242v65q0 79 32.5 112.5t91.5 33.5q38 0 52 -6q1 -4 1 -11q0 -11 -2 -13q-18 11 -54 11q-49 0 -67.5 -28.5
t-18.5 -98.5v-65h131v-19h-131v-377q0 -90 6 -101h-41v478h-242v-478h-35z" />
    <glyph glyph-name="fi" unicode="fi" horiz-adv-x="496" 
d="M102 0v478h-77v19h77v36q0 97 50.5 136t140.5 39q80 0 106 -12v-3q0 -9 -1 -21q-32 18 -104 18q-85 0 -121 -35t-36 -120v-38h240q17 0 37 3v-399q0 -90 6 -101h-41v478h-242v-478h-35z" />
    <glyph glyph-name="fl" unicode="fl" horiz-adv-x="484" 
d="M102 0v478h-77v19h77v65q0 79 32.5 112.5t91.5 33.5q38 0 52 -6q1 -5 1 -10q0 -10 -2 -14q-18 11 -54 11q-49 0 -67.5 -28.5t-18.5 -98.5v-65h131v-19h-131v-478h-35zM367 0v702q15 0 35 4v-605q0 -90 6 -101h-41z" />
    <glyph glyph-name="ffi" unicode="ffi" horiz-adv-x="773" 
d="M102 0v478h-77v19h77v55q0 146 125 146q40 0 52 -6q1 -4 1 -12q0 -7 -1 -12q-18 11 -55 11q-50 0 -68.5 -28.5t-18.5 -98.5v-55h242v36q0 175 190 175q82 0 106 -12q1 -5 1 -11t-1 -13q-31 18 -107 18q-83 0 -118.5 -35t-35.5 -120v-38h235q24 0 42 3v-399q0 -90 6 -101
h-41v478h-242v-478h-35v478h-242v-478h-35z" />
    <glyph glyph-name="ffl" unicode="ffl" horiz-adv-x="761" 
d="M102 0v478h-77v19h77v55q0 146 125 146q40 0 52 -6q0 -2 0.5 -6.5t0.5 -6.5q0 -3 -0.5 -6.5t-0.5 -4.5q-18 11 -55 11q-50 0 -68.5 -28.5t-18.5 -98.5v-55h242v65q0 79 32.5 112.5t91.5 33.5q38 0 52 -6q1 -4 1 -11q0 -11 -2 -13q-18 11 -54 11q-49 0 -67.5 -28.5
t-18.5 -98.5v-65h131v-19h-131v-478h-35v478h-242v-478h-35zM644 0v702q15 0 35 4v-605q0 -90 5 -101h-40z" />
    <glyph glyph-name="f_j" unicode="fj" horiz-adv-x="496" 
d="M379 -69v547h-242v-478h-35v478h-77v19h77v36q0 97 50.5 136t140.5 39q80 0 106 -12v-3q0 -9 -1 -21q-32 18 -104 18q-85 0 -121 -35t-36 -120v-38h242q15 0 35 4v-581q0 -68 -24 -95.5t-81 -27.5q-27 0 -41 4q-2 2 -2 9q0 10 3 15q16 -7 42 -7q44 0 56 24.5t12 88.5z
" />
    <glyph glyph-name=".notdef" horiz-adv-x="612" 
d="M98 -100v900h416v-900h-416zM137 -80h338v859h-338v-859z" />
    <glyph glyph-name=".null" horiz-adv-x="0" 
 />
    <glyph glyph-name="nonmarkingreturn" horiz-adv-x="333" 
 />
    <glyph glyph-name="space" unicode=" " horiz-adv-x="221" 
 />
    <glyph glyph-name="exclam" unicode="!" horiz-adv-x="232" 
d="M106 132l-10 568q5 4 20 4q14 0 18 -4l-9 -568h-19zM116 -4q-12 0 -20 8t-8 20t8 20t20 8t19.5 -8t7.5 -20t-7.5 -20t-19.5 -8z" />
    <glyph glyph-name="quotedbl" unicode="&#x22;" horiz-adv-x="313" 
d="M81 527l-14 181q9 3 22 3t22 -3l-14 -181q-6 -2 -8 -2t-8 2zM216 527l-14 181q9 3 22 3t22 -3l-14 -181q-6 -2 -8 -2t-8 2z" />
    <glyph glyph-name="numbersign" unicode="#" 
d="M107 0v3l37 226h-82v22h85l30 184h-81v23h85l36 218h30v-3l-35 -215h204l36 218h30v-3l-35 -215h83v-23h-87l-30 -184h83v-22h-86l-37 -229h-30l36 229h-204l-37 -229h-31zM178 251h205l30 184h-205z" />
    <glyph glyph-name="dollar" unicode="$" 
d="M296 -113v101q-161 4 -209 139q14 16 34 17q10 -25 19.5 -42t30 -42t55 -38.5t80.5 -13.5q73 0 117 44t44 117q0 59 -36.5 96.5t-88 57l-103 39t-88 58.5t-36.5 101q0 69 48 117.5t133 50.5v101h21v-101q79 -4 121 -41.5t56 -80.5q-9 -12 -33 -14q-7 20 -13.5 33.5
t-24 36t-48.5 35t-73 12.5q-69 0 -109.5 -39.5t-40.5 -111.5q0 -51 36.5 -84t88 -52t103 -40.5t88 -64.5t36.5 -108q0 -73 -48.5 -125.5t-138.5 -56.5v-101h-21z" />
    <glyph glyph-name="percent" unicode="%" horiz-adv-x="812" 
d="M171 0v3l440 697h31v-3l-439 -697h-32zM610 -6q-69 0 -107 48t-38 128t38 127.5t107 47.5q70 0 107 -47t37 -128t-37 -128.5t-107 -47.5zM610 11q105 0 105 159q0 158 -105 158q-51 0 -77.5 -41.5t-26.5 -116.5q0 -76 26.5 -117.5t77.5 -41.5zM203 354q-69 0 -107 48
t-38 128t38 127.5t107 47.5q70 0 107 -47t37 -128t-37 -128.5t-107 -47.5zM203 371q105 0 105 159q0 158 -105 158q-51 0 -77.5 -41.5t-26.5 -116.5q0 -76 26.5 -117.5t77.5 -41.5z" />
    <glyph glyph-name="ampersand" unicode="&#x26;" horiz-adv-x="586" 
d="M520 0l-64 76q-76 -87 -193 -87q-101 0 -155.5 52.5t-54.5 131.5q0 67 40 113.5t112 85.5q-34 40 -52 64.5t-34.5 61.5t-16.5 71q0 57 41 100t118 43q80 0 118.5 -41.5t38.5 -104.5q0 -59 -40 -107.5t-122 -93.5l-2 1l203 -238q39 70 54 186q1 0 3.5 0.5t4.5 0.5
q25 0 32 -7q-19 -125 -74 -204l86 -100v-4h-43zM438 97l-217 256q-128 -62 -128 -184q0 -75 43.5 -118t123.5 -43q113 0 178 89zM238 385q83 43 112 86t29 95q0 126 -117 126q-58 0 -91 -29.5t-33 -85.5q0 -47 24.5 -89.5t75.5 -102.5z" />
    <glyph glyph-name="quotesingle" unicode="'" horiz-adv-x="178" 
d="M81 527l-14 181q9 3 22 3t22 -3l-14 -181q-6 -2 -8 -2t-8 2z" />
    <glyph glyph-name="parenleft" unicode="(" horiz-adv-x="410" 
d="M353 -182v-19q-85 5 -145 68t-87.5 162.5t-27.5 225.5q0 127 27.5 225.5t87.5 161.5t145 68v-19q-74 -5 -125.5 -67.5t-73.5 -156.5t-22 -213t22 -213t73.5 -156.5t125.5 -66.5z" />
    <glyph glyph-name="parenright" unicode=")" horiz-adv-x="410" 
d="M57 -201v19q74 4 125.5 66.5t73.5 156.5t22 213t-22 213t-73.5 156.5t-125.5 67.5v19q85 -5 145 -68t87.5 -161.5t27.5 -225.5q0 -126 -27.5 -225.5t-87.5 -162.5t-145 -68z" />
    <glyph glyph-name="asterisk" unicode="*" horiz-adv-x="428" 
d="M103 441l107 120l-157 36q0 22 11 33l146 -62l-14 159q8 2 18 2q8 0 18 -2l-14 -159l146 62q11 -13 11 -30v-3l-157 -35l107 -121q-13 -17 -29 -21l-82 136l-82 -136q-16 4 -29 21z" />
    <glyph glyph-name="plus" unicode="+" 
d="M281 65v221h-219v27h219v220h29v-220h220v-27h-220v-221h-29z" />
    <glyph glyph-name="comma" unicode="," horiz-adv-x="172" 
d="M53 -85q18 13 29.5 36t12.5 42q-14 0 -23.5 8t-9.5 21q0 12 7.5 20t19.5 8q31 0 31 -35q0 -39 -19 -71t-36 -38q-10 0 -12 9z" />
    <glyph glyph-name="hyphen" unicode="-" horiz-adv-x="370" 
d="M62 284v31h246v-31h-246z" />
    <glyph glyph-name="period" unicode="." horiz-adv-x="160" 
d="M80 -5q-12 0 -20 8t-8 20t8 20t20 8t19.5 -8t7.5 -20t-7.5 -20t-19.5 -8z" />
    <glyph glyph-name="slash" unicode="/" horiz-adv-x="425" 
d="M58 -140v3l279 877h30v-3l-280 -877h-29z" />
    <glyph glyph-name="zero" unicode="0" horiz-adv-x="580" 
d="M290 -12q-117 0 -178.5 95t-61.5 255t61.5 255.5t178.5 95.5t178 -95t61 -255t-61 -255.5t-178 -95.5zM291 9q196 0 196 329q0 331 -197 331t-197 -332q0 -328 198 -328z" />
    <glyph glyph-name="one" unicode="1" horiz-adv-x="423" 
d="M63 0v22h141v623l-141 -42v20q6 1 36.5 11.5l68 23.5l52.5 18h19v-654h133v-22h-309z" />
    <glyph glyph-name="two" unicode="2" horiz-adv-x="537" 
d="M41 0v19q7 5 49.5 40l60.5 50.5l60 54t64 63t53.5 64t47.5 71.5t28.5 71.5t12.5 76.5q0 73 -39 116t-118 43q-124 0 -174 -123q-23 0 -31 15q59 128 205 128q96 0 148 -48.5t52 -131.5q0 -61 -30.5 -125t-87.5 -127t-114 -113.5t-135 -110.5v-2h390v-31h-442z" />
    <glyph glyph-name="three" unicode="3" horiz-adv-x="522" 
d="M176 346v21h31q97 0 143.5 43.5t46.5 119.5q0 139 -154 139q-113 0 -163 -84q-19 5 -26 19q25 36 72.5 60.5t115.5 24.5q92 0 144.5 -44.5t52.5 -120.5q0 -70 -40.5 -110.5t-102.5 -54.5v-2q71 -11 117 -52t46 -120q0 -90 -58.5 -143.5t-159.5 -53.5q-75 0 -127 26
t-74 61q6 16 26 23q55 -90 175 -90q84 0 129.5 47t45.5 125q0 166 -210 166h-30z" />
    <glyph glyph-name="four" unicode="4" horiz-adv-x="553" 
d="M39 178v25l338 473h41v-469h88v-29h-88v-178h-36v178h-343zM75 207h307v224q0 167 1 212h-2q-25 -44 -130 -191z" />
    <glyph glyph-name="five" unicode="5" horiz-adv-x="518" 
d="M70 343l12 333h362v-31h-335l-10 -272q56 44 151 44q104 0 160.5 -58t56.5 -150q0 -101 -61.5 -161t-163.5 -60q-68 0 -119 25.5t-74 62.5q9 13 28 21q21 -37 64 -63t104 -26q85 0 132 52.5t47 143.5q0 80 -41.5 134.5t-132.5 54.5q-51 0 -93 -15.5t-63 -34.5h-24z" />
    <glyph glyph-name="six" unicode="6" horiz-adv-x="564" 
d="M109 325v-5q24 35 78.5 61t116.5 26q103 0 153.5 -58t50.5 -144q0 -91 -56 -154t-155 -63q-112 0 -171 90t-59 247q0 169 62.5 266.5t177.5 97.5q62 0 112.5 -33t77.5 -100q-11 -14 -35 -16q-42 128 -156 128q-94 0 -145.5 -86.5t-51.5 -256.5zM109 290q10 -281 192 -281
q86 0 126 54.5t40 138.5q0 87 -41.5 135t-123.5 48q-121 0 -193 -95z" />
    <glyph glyph-name="seven" unicode="7" horiz-adv-x="475" 
d="M127 0v3l301 642h-397v31h422v-26l-286 -650h-40z" />
    <glyph glyph-name="eight" unicode="8" horiz-adv-x="542" 
d="M204 359v2q-59 16 -91 57.5t-32 99.5q0 75 52 123t139 48q86 0 137.5 -48t51.5 -122q0 -58 -32.5 -99.5t-90.5 -58.5v-2q71 -17 110 -63t39 -114q0 -86 -57 -140t-159 -54t-159 53.5t-57 139.5q0 70 38.5 115.5t110.5 62.5zM97 179q0 -82 45.5 -126t128.5 -44t128 44.5
t45 125.5q0 82 -45 126t-128 44q-82 0 -128 -44t-46 -126zM271 369q68 0 108 41t40 113q0 69 -38.5 107.5t-109.5 38.5q-70 0 -109.5 -38t-39.5 -107q0 -72 40 -113.5t109 -41.5z" />
    <glyph glyph-name="nine" unicode="9" horiz-adv-x="564" 
d="M104 133q41 -124 157 -124q93 0 143 84t51 253q-25 -36 -79 -62t-116 -26q-98 0 -150 62.5t-52 149.5q0 91 55 155t155 64q115 0 172 -92t57 -249q0 -166 -61.5 -263t-175.5 -97q-137 0 -191 130q11 13 35 15zM454 375q-3 144 -47.5 219t-140.5 75q-84 0 -125.5 -54.5
t-41.5 -141.5q0 -88 42.5 -140.5t123.5 -52.5q117 0 189 95z" />
    <glyph glyph-name="colon" unicode=":" horiz-adv-x="201" 
d="M101 -5q-12 0 -20 8t-8 20t8 20t20 8t19.5 -8t7.5 -20t-7.5 -20t-19.5 -8zM101 380q-12 0 -20 8t-8 20t8 20t20 8t19.5 -8t7.5 -20t-7.5 -20t-19.5 -8z" />
    <glyph glyph-name="semicolon" unicode=";" horiz-adv-x="192" 
d="M63 -85q18 13 29.5 36t12.5 42q-14 0 -23.5 8t-9.5 21q0 12 7.5 20t19.5 8q31 0 31 -35q0 -39 -19 -71t-36 -38q-10 0 -12 9zM100 380q-12 0 -20 8t-8 20t8 20t20 8t19.5 -8t7.5 -20t-7.5 -20t-19.5 -8z" />
    <glyph glyph-name="less" unicode="&#x3c;" 
d="M62 286v27l468 199v-27l-438 -186l438 -185v-27z" />
    <glyph glyph-name="equal" unicode="=" 
d="M62 386v26h468v-26h-468zM62 187v26h468v-26h-468z" />
    <glyph glyph-name="greater" unicode="&#x3e;" 
d="M62 87v27l438 185l-438 186v27l468 -199v-27z" />
    <glyph glyph-name="question" unicode="?" horiz-adv-x="451" 
d="M171 135v39q0 54 21 93.5t50.5 64.5l59 50t50.5 65t21 95q0 69 -35.5 110t-109.5 41q-123 0 -158 -125q-24 2 -32 13q44 131 192 131q91 0 137.5 -50.5t46.5 -117.5q0 -47 -15.5 -84.5t-39.5 -60l-52 -47.5l-52.5 -46.5t-42 -56.5t-20.5 -79l-2 -35h-19zM181 -4
q-12 0 -19.5 8t-7.5 20t7.5 20t19.5 8q13 0 20.5 -8t7.5 -20t-7.5 -20t-20.5 -8z" />
    <glyph glyph-name="at" unicode="@" horiz-adv-x="988" 
d="M668 -156v-4q-74 -34 -176 -34q-126 0 -221.5 58.5t-144 155.5t-48.5 216q0 185 113 308.5t303 123.5t303 -104.5t113 -260.5q0 -138 -69.5 -226t-162.5 -88q-78 0 -90 67q-28 -27 -70.5 -46t-89.5 -19q-76 0 -112.5 45t-36.5 123q0 52 14 104.5t42 100.5t76.5 78
t109.5 30q79 0 124 -49l7 40q8 0 36 8l-59 -333q-7 -40 -7 -63q0 -68 58 -68q85 0 138.5 84t53.5 212q0 150 -104 244.5t-274 94.5q-169 0 -273.5 -114t-104.5 -291q0 -181 101.5 -292.5t278.5 -111.5q98 0 166 31q6 -6 6 -20zM586 76v8q0 21 5 48l47 268q-38 53 -121 53
q-52 0 -92 -29t-61.5 -75.5t-32 -95.5t-10.5 -97q0 -145 114 -145q43 0 84.5 18.5t66.5 46.5z" />
    <glyph glyph-name="A" unicode="A" horiz-adv-x="576" 
d="M27 0v4l239 696h45l238 -696v-4h-35l-91 266h-276l-90 -266h-30zM155 289h260l-62 184q-58 170 -66 203h-3q-7 -25 -67 -203z" />
    <glyph glyph-name="B" unicode="B" horiz-adv-x="535" 
d="M96 0v700h136q120 0 174.5 -42t54.5 -126q0 -130 -130 -163v-2q71 -13 114.5 -58t43.5 -119q0 -190 -243 -190h-150zM133 21h102q108 0 159 40.5t51 126.5t-50.5 126t-156.5 40h-105v-333zM133 375h88q104 0 152 38t48 118q0 78 -45.5 113t-141.5 35h-101v-304z" />
    <glyph glyph-name="C" unicode="C" horiz-adv-x="639" 
d="M558 195q25 -2 36 -11q-58 -196 -250 -196q-136 0 -209.5 99.5t-73.5 263.5q0 163 73.5 262t210.5 99q183 0 241 -176q-10 -13 -35 -13q-25 83 -72 125.5t-135 42.5q-118 0 -179.5 -89.5t-61.5 -250.5t62 -251.5t179 -90.5q167 0 214 186z" />
    <glyph glyph-name="D" unicode="D" horiz-adv-x="619" 
d="M96 0v700h142q163 0 242 -91t79 -258t-78.5 -259t-241.5 -92h-143zM133 21h105q277 0 277 330q0 328 -276 328h-106v-658z" />
    <glyph glyph-name="E" unicode="E" horiz-adv-x="500" 
d="M96 0v700h339v-23h-302v-305h278q1 -6 1 -12q0 -5 -1 -12h-278v-325h317v-23h-354z" />
    <glyph glyph-name="F" unicode="F" horiz-adv-x="486" 
d="M96 0v700h346v-23h-309v-305h275q1 -4 1 -12q0 -7 -1 -12h-275v-348h-37z" />
    <glyph glyph-name="G" unicode="G" horiz-adv-x="651" 
d="M537 63v263h-174v23h209v-292q-76 -69 -214 -69q-151 0 -224 98t-73 265q0 163 73.5 262t209.5 99q171 0 227 -139q-9 -12 -31 -12q-46 130 -196 130q-118 0 -179.5 -89.5t-61.5 -250.5q0 -342 253 -342q127 0 181 54z" />
    <glyph glyph-name="H" unicode="H" horiz-adv-x="666" 
d="M96 0v700h37v-315h400v315h37v-700h-37v361h-400v-361h-37z" />
    <glyph glyph-name="I" unicode="I" horiz-adv-x="229" 
d="M96 0v700h37v-700h-37z" />
    <glyph glyph-name="J" unicode="J" horiz-adv-x="376" 
d="M247 147v553h36v-561q0 -78 -39.5 -113.5t-120.5 -35.5q-68 0 -90 11q-1 3 -1 10q0 11 3 18q34 -17 90 -17q67 0 94.5 30.5t27.5 104.5z" />
    <glyph glyph-name="K" unicode="K" horiz-adv-x="520" 
d="M96 0v700h37v-334h2l317 334h36v-4l-315 -328l321 -364v-4h-43l-316 359h-2v-359h-37z" />
    <glyph glyph-name="L" unicode="L" horiz-adv-x="472" 
d="M96 0v700h37v-677h314v-23h-351z" />
    <glyph glyph-name="M" unicode="M" horiz-adv-x="806" 
d="M96 0v700h47l152 -384q87 -219 105 -279h2q4 12 107 275l153 388h47v-700h-35v389q0 186 4 278h-2q-44 -129 -97 -259l-167 -408h-26l-161 407q-75 191 -99 260h-2q4 -61 4 -276v-391h-32z" />
    <glyph glyph-name="N" unicode="N" horiz-adv-x="679" 
d="M96 0v700h38l316 -478q79 -119 103 -169h2q-3 81 -3 226v421h31v-700h-25l-305 463q-108 162 -126 201h-2q3 -60 3 -242v-422h-32z" />
    <glyph glyph-name="O" unicode="O" horiz-adv-x="691" 
d="M344 -12q-136 0 -209.5 100t-73.5 263t73.5 262t209.5 99q137 0 211.5 -99.5t74.5 -261.5q0 -163 -75 -263t-211 -100zM344 9q118 0 180.5 90.5t62.5 251.5t-62.5 250.5t-180.5 89.5t-179.5 -89.5t-61.5 -250.5t62 -251.5t179 -90.5z" />
    <glyph glyph-name="P" unicode="P" horiz-adv-x="512" 
d="M96 0v700h114q252 0 252 -201t-252 -201h-77v-298h-37zM133 320h78q110 0 159.5 45t49.5 135t-49 134.5t-160 44.5h-78v-359z" />
    <glyph glyph-name="Q" unicode="Q" horiz-adv-x="691" 
d="M414 -17l-5 12q-35 -7 -65 -7q-136 0 -209.5 100t-73.5 263t73.5 262t209.5 99q137 0 211.5 -99.5t74.5 -261.5q0 -133 -51 -226.5t-147 -123.5l2 -4q17 -55 45 -77.5t72 -22.5q25 0 39 6q2 -8 2 -21q0 -9 -1 -14q-12 -4 -35 -4q-59 0 -89 27.5t-53 91.5zM344 9
q118 0 180.5 90.5t62.5 251.5t-62.5 250.5t-180.5 89.5t-179.5 -89.5t-61.5 -250.5t62 -251.5t179 -90.5z" />
    <glyph glyph-name="R" unicode="R" horiz-adv-x="529" 
d="M96 0v700h110q133 0 193 -49t60 -145q0 -149 -155 -188l177 -314v-4h-39l-174 312q-27 -4 -68 -4h-67v-308h-37zM133 329h75q110 0 159 44.5t49 133.5t-49 130.5t-161 41.5h-73v-350z" />
    <glyph glyph-name="S" unicode="S" horiz-adv-x="533" 
d="M45 131q10 13 36 16q8 -25 18.5 -44t31.5 -43t56.5 -37.5t82.5 -13.5q76 0 121 46.5t45 123.5q0 27 -6 48.5t-21 39t-27 29t-38 24t-39.5 18l-44.5 17.5q-35 13 -54.5 21.5t-47.5 25t-42.5 33t-25.5 43.5t-11 59q0 74 53.5 124.5t140.5 50.5q47 0 84.5 -13t59 -34
t33.5 -40.5t18 -39.5q-6 -9 -33 -11q-7 20 -14 34t-25 36t-49.5 34.5t-73.5 12.5q-71 0 -113.5 -39.5t-42.5 -113.5q0 -33 12.5 -58t37.5 -43t49 -29.5t61 -25.5q7 -3 11 -4q43 -17 69.5 -29.5t57 -35.5t45.5 -56t15 -77q0 -78 -53.5 -135t-153.5 -57q-169 0 -223 143z" />
    <glyph glyph-name="T" unicode="T" horiz-adv-x="483" 
d="M223 0v677h-199v23h435v-23h-200v-677h-36z" />
    <glyph glyph-name="U" unicode="U" horiz-adv-x="677" 
d="M92 288v412h37v-412q0 -149 53.5 -212.5t158.5 -63.5q106 0 159.5 64t53.5 214v410h31v-412q0 -153 -59 -226t-188 -73q-128 0 -187 73.5t-59 225.5z" />
    <glyph glyph-name="V" unicode="V" horiz-adv-x="576" 
d="M270 0l-238 696v4h37l160 -471q55 -160 61 -200h3q5 30 62 200l159 471h30v-4l-238 -696h-36z" />
    <glyph glyph-name="W" unicode="W" horiz-adv-x="894" 
d="M224 0l-192 696v4h36l112 -415q58 -215 64 -251h3q8 46 65 250l115 416h48l116 -420q57 -204 63 -246h3q1 9 64 246l112 420h30v-4l-190 -696h-38l-117 420q-61 217 -68 257h-3q-7 -41 -68 -258l-117 -419h-38z" />
    <glyph glyph-name="X" unicode="X" horiz-adv-x="562" 
d="M32 0v4l229 354l-215 338v4h38l199 -318l203 318h30v-4l-217 -333l230 -359v-4h-38l-213 336l-216 -336h-30z" />
    <glyph glyph-name="Y" unicode="Y" horiz-adv-x="530" 
d="M247 0v273l-214 423v4h37l198 -399h1l199 399h30v-4l-215 -423v-273h-36z" />
    <glyph glyph-name="Z" unicode="Z" horiz-adv-x="570" 
d="M50 0v9l422 668h-400v23h448v-9l-422 -668h419v-23h-467z" />
    <glyph glyph-name="bracketleft" unicode="[" horiz-adv-x="364" 
d="M117 -190v890h190v-19h-154v-852h154v-19h-190z" />
    <glyph glyph-name="backslash" unicode="\" horiz-adv-x="425" 
d="M337 -140l-279 877v3h29l280 -877v-3h-30z" />
    <glyph glyph-name="bracketright" unicode="]" horiz-adv-x="364" 
d="M57 -190v19h154v852h-154v19h191v-890h-191z" />
    <glyph glyph-name="asciicircum" unicode="^" 
d="M97 383l194 317h9l195 -317h-34l-165 274l-165 -274h-34z" />
    <glyph glyph-name="underscore" unicode="_" horiz-adv-x="512" 
d="M6 -123v30h500v-30h-500z" />
    <glyph glyph-name="grave" unicode="`" horiz-adv-x="226" 
d="M152 581l-96 128q8 3 25 3t26 -3l63 -128q-3 -3 -9 -3q-5 0 -9 3z" />
    <glyph glyph-name="a" unicode="a" horiz-adv-x="484" 
d="M413 8l-29 -11q-13 23 -16 61q-55 -68 -145 -68q-77 0 -119.5 39.5t-42.5 103.5q0 76 52.5 113.5t136.5 37.5q71 0 117 -16v80q0 71 -24.5 106.5t-96.5 35.5q-58 0 -96 -26t-50 -54q-18 6 -26 19q23 35 69 56.5t101 21.5q88 0 123 -41t35 -112v-235q0 -83 11 -111z
M367 77v175q-45 14 -112 14q-155 0 -155 -130q0 -63 35.5 -94t95.5 -31q82 0 136 66z" />
    <glyph glyph-name="b" unicode="b" horiz-adv-x="527" 
d="M82 0v702q15 0 35 4v-260q59 61 153 61q103 0 154 -71t51 -187q0 -115 -51.5 -187t-153.5 -72q-97 0 -156 63v-53h-32zM117 424v-352q23 -28 63 -45t86 -17q168 0 168 239q0 238 -168 238q-44 0 -84.5 -17.5t-64.5 -45.5z" />
    <glyph glyph-name="c" unicode="c" horiz-adv-x="477" 
d="M415 109q22 0 31 -9q-19 -43 -61 -76.5t-116 -33.5q-107 0 -162 71.5t-55 187.5t54 187t159 71q133 0 174 -114q-12 -10 -31 -10q-33 106 -143 106q-172 0 -172 -240q0 -111 44 -176t133 -65q108 0 145 101z" />
    <glyph glyph-name="d" unicode="d" horiz-adv-x="526" 
d="M456 7l-29 -11q-13 20 -17 55q-61 -61 -154 -61q-103 0 -154 71t-51 187t51.5 187.5t153.5 71.5q93 0 153 -60v255q15 0 35 4v-582q0 -92 12 -117zM409 72v354q-24 27 -64 44t-85 17q-168 0 -168 -239q0 -238 168 -238q45 0 85 17t64 45z" />
    <glyph glyph-name="e" unicode="e" horiz-adv-x="495" 
d="M92 264v-7q0 -119 44.5 -184t129.5 -65q103 0 141 102q21 -2 31 -11q-46 -109 -173 -109q-108 0 -160.5 73t-52.5 190q0 113 52 183.5t153 70.5q93 0 140 -60.5t47 -150.5q0 -20 -1 -32h-351zM93 284h311q0 205 -148 205q-74 0 -116 -53.5t-47 -151.5z" />
    <glyph glyph-name="f" unicode="f" horiz-adv-x="293" 
d="M102 0v478h-77v19h77v65q0 79 32.5 112.5t91.5 33.5q38 0 52 -6q1 -5 1 -10q0 -10 -2 -14q-18 11 -54 11q-49 0 -67.5 -28.5t-18.5 -98.5v-65h131v-19h-131v-377q0 -90 6 -101h-41z" />
    <glyph glyph-name="g" unicode="g" horiz-adv-x="499" 
d="M223 49h78q92 0 131.5 -25.5t39.5 -73.5q0 -69 -59 -115t-173 -46q-100 0 -152 36.5t-52 96.5q0 72 77 109q-48 21 -48 64q0 50 66 90q-62 49 -62 142q0 83 49.5 131.5t130.5 48.5q36 0 66 -10h161v-19h-128q33 -19 57 -58.5t24 -92.5q0 -81 -49.5 -130t-130.5 -49
q-60 0 -105 28q-47 -31 -47 -72q0 -28 27.5 -41.5t98.5 -13.5zM249 166q68 0 105 43.5t37 117.5t-37 118t-105 44q-67 0 -104.5 -44.5t-37.5 -118.5t37 -117t105 -43zM295 17h-90q-47 0 -77 9q-55 -39 -55 -100q0 -117 173 -117q94 0 144.5 36t50.5 95q0 41 -31.5 59
t-114.5 18z" />
    <glyph glyph-name="h" unicode="h" horiz-adv-x="521" 
d="M82 0v702q15 0 35 4v-269q24 28 67 49t97 21q160 0 160 -191v-215q0 -90 5 -101h-40v303q0 90 -29 136.5t-104 46.5q-50 0 -91.5 -21t-64.5 -48v-417h-35z" />
    <glyph glyph-name="i" unicode="i" horiz-adv-x="199" 
d="M100 614q-12 0 -19.5 8t-7.5 19q0 12 7.5 20.5t19.5 8.5t19.5 -8.5t7.5 -20.5q0 -11 -7.5 -19t-19.5 -8zM82 0v497q15 0 35 4v-400q0 -90 6 -101h-41z" />
    <glyph glyph-name="j" unicode="j" horiz-adv-x="199" 
d="M82 -69v566q15 0 35 4v-581q0 -68 -24 -95.5t-81 -27.5q-27 0 -41 4q-2 2 -2 9q0 10 3 15q16 -7 42 -7q44 0 56 24.5t12 88.5zM100 614q-12 0 -19.5 8t-7.5 19q0 12 7.5 20.5t19.5 8.5t19.5 -8.5t7.5 -20.5q0 -11 -7.5 -19t-19.5 -8z" />
    <glyph glyph-name="k" unicode="k" horiz-adv-x="409" 
d="M82 0v702q15 0 35 4v-421h1l227 212h35v-3l-224 -208l227 -282v-4h-39l-226 282h-1v-282h-35z" />
    <glyph glyph-name="l" unicode="l" horiz-adv-x="199" 
d="M82 0v702q15 0 35 4v-605q0 -90 6 -101h-41z" />
    <glyph glyph-name="m" unicode="m" horiz-adv-x="755" 
d="M82 0v497q13 0 33 4v-61q20 28 57.5 47.5t84.5 19.5q93 0 122 -77q20 30 63 53.5t95 23.5q77 0 107 -49.5t30 -139.5v-217q0 -90 6 -101h-41v304q0 93 -22.5 137.5t-88.5 44.5q-47 0 -85 -23t-58 -51q11 -37 11 -94v-318h-35v304q0 93 -22.5 137.5t-88.5 44.5
q-82 0 -133 -64v-422h-35z" />
    <glyph glyph-name="n" unicode="n" horiz-adv-x="521" 
d="M82 0v497q13 0 33 4v-67q23 29 67 51t100 22q159 0 159 -191v-215q0 -90 5 -101h-40v303q0 90 -29 136.5t-104 46.5q-50 0 -91.5 -21t-64.5 -48v-417h-35z" />
    <glyph glyph-name="o" unicode="o" horiz-adv-x="544" 
d="M271 -10q-107 0 -163 71.5t-56 187.5q0 115 56 186.5t163 71.5q109 0 165 -71.5t56 -186.5t-56.5 -187t-164.5 -72zM271 8q93 0 136.5 66t43.5 175t-43.5 174.5t-136.5 65.5q-92 0 -135 -65.5t-43 -175.5q0 -109 43 -174.5t135 -65.5z" />
    <glyph glyph-name="p" unicode="p" horiz-adv-x="527" 
d="M82 -207v704q13 0 33 4v-57q59 63 155 63q103 0 154 -71t51 -187t-51.5 -187.5t-153.5 -71.5q-94 0 -153 61v-254q-15 0 -35 -4zM117 424v-352q23 -28 63 -45t86 -17q168 0 168 239q0 238 -168 238q-44 0 -84.5 -17.5t-64.5 -45.5z" />
    <glyph glyph-name="q" unicode="q" horiz-adv-x="527" 
d="M410 -207v257q-60 -60 -153 -60q-103 0 -154 71t-51 187t51.5 187.5t153.5 71.5q93 0 155 -62v52q13 0 33 4v-704q-15 0 -35 -4zM410 71v355q-24 27 -63.5 44t-84.5 17q-169 0 -169 -239q0 -238 169 -238q44 0 83.5 17t64.5 44z" />
    <glyph glyph-name="r" unicode="r" horiz-adv-x="300" 
d="M82 0v497q13 0 33 4v-64h1q14 22 50 45t81 23q15 0 24 -2q2 -4 2 -13q0 -12 -2 -18q-10 2 -31 2q-37 0 -66 -12t-40.5 -23t-16.5 -21v-317q0 -90 6 -101h-41z" />
    <glyph glyph-name="s" unicode="s" horiz-adv-x="430" 
d="M45 93q9 11 30 16q35 -101 141 -101q58 0 91.5 31.5t33.5 82.5q0 26 -9.5 46t-30.5 34t-39 22t-48 19q-28 10 -37 13.5t-32.5 14t-33 19l-23 21.5t-18.5 30t-5 37q0 55 41 92t114 37q68 0 104.5 -28t49.5 -60q-6 -9 -29 -14q-6 17 -16.5 33.5t-40 33.5t-69.5 17
q-57 0 -89 -28t-32 -78q0 -23 9.5 -40t30.5 -30t37.5 -20t47.5 -18q37 -13 56 -21.5t45.5 -26t38.5 -41.5t12 -57q0 -58 -42.5 -98.5t-116.5 -40.5q-67 0 -111.5 30.5t-59.5 72.5z" />
    <glyph glyph-name="t" unicode="t" horiz-adv-x="298" 
d="M102 115v363h-77v19h79v134q13 0 33 4v-138h126v-19h-126v-368q0 -55 19.5 -75.5t66.5 -20.5q31 0 49 9q0 -1 0.5 -4.5t0.5 -6.5q0 -2 -0.5 -5.5t-0.5 -4.5q-9 -7 -52 -7q-63 0 -90.5 26.5t-27.5 93.5z" />
    <glyph glyph-name="u" unicode="u" horiz-adv-x="507" 
d="M80 173v324q15 0 35 4v-317q0 -86 27.5 -128t100.5 -42q46 0 85.5 17.5t61.5 43.5v422q15 0 35 4v-376q0 -92 12 -117l-29 -11q-13 21 -17 60q-61 -67 -157 -67q-154 0 -154 183z" />
    <glyph glyph-name="v" unicode="v" horiz-adv-x="440" 
d="M201 0l-171 494v3h35l88 -254q62 -183 67 -216h2q3 14 13 44.5t30.5 87.5t29.5 84l87 254h29v-3l-176 -494h-34z" />
    <glyph glyph-name="w" unicode="w" horiz-adv-x="645" 
d="M162 0l-122 494v3h35l64 -265q36 -149 41 -189h2q7 38 54 190l77 250h29l75 -252q42 -144 49 -188h2q5 46 43 187l70 267h24v-3l-128 -494h-26l-92 308q-29 97 -35 131h-2q-3 -19 -38 -133l-93 -306h-29z" />
    <glyph glyph-name="x" unicode="x" horiz-adv-x="423" 
d="M30 0v4l163 253l-151 237v3h35l136 -218l141 218h27v-3l-154 -235l165 -255v-4h-34l-150 234l-152 -234h-26z" />
    <glyph glyph-name="y" unicode="y" horiz-adv-x="434" 
d="M209 15l-177 479v3h34l92 -255q57 -159 64 -188h2q4 16 64 188l89 255h28v-3l-168 -474l-18.5 -54t-17 -49t-15.5 -37t-19 -33.5t-21.5 -21t-29.5 -16t-37 -3.5q-22 0 -39 3q-2 6 -2 16t2 16q16 -6 45 -6q12 0 21.5 1.5t17.5 6.5t14 9.5t13 15.5t11 18.5t10.5 24.5
t10.5 28.5l12 35.5t14 40z" />
    <glyph glyph-name="z" unicode="z" horiz-adv-x="436" 
d="M39 0v6l315 472h-294v19h338v-6l-315 -472h311v-19h-355z" />
    <glyph glyph-name="braceleft" unicode="{" horiz-adv-x="385" 
d="M328 -184v-18q-98 0 -126 38t-28 164q0 111 -14 163.5t-61 80.5v20q47 28 61 80.5t14 163.5q0 126 28 164t126 38v-18q-29 -1 -44 -3t-31 -8.5t-22.5 -17t-12.5 -31.5t-7.5 -49.5t-1.5 -73.5q0 -102 -14.5 -164.5t-54.5 -90.5q40 -28 54.5 -90.5t14.5 -164.5
q0 -45 1.5 -73t7.5 -49.5t12.5 -32t22.5 -17t31 -8.5t44 -3z" />
    <glyph glyph-name="bar" unicode="|" horiz-adv-x="349" 
d="M160 -130v940h29v-940h-29z" />
    <glyph glyph-name="braceright" unicode="}" horiz-adv-x="385" 
d="M57 -202v18q29 1 43.5 3t30.5 8.5t22.5 17t12.5 32t7.5 49.5t1.5 73q0 102 14.5 164.5t55.5 90.5q-41 28 -55.5 90.5t-14.5 164.5q0 54 -3.5 85t-9 52t-22 30t-33 12t-50.5 4v18q98 0 126 -38t28 -164q0 -111 13.5 -163.5t60.5 -80.5v-20q-47 -28 -60.5 -80.5
t-13.5 -163.5q0 -126 -28 -164t-126 -38z" />
    <glyph glyph-name="asciitilde" unicode="~" 
d="M68 329v30q6 5 17.5 12.5t46 20.5t67.5 13q40 0 112 -25.5t113 -25.5q25 0 50 11t38 22l12 11v-35q-46 -34 -100 -34q-43 0 -117 25.5t-109 25.5q-28 0 -60.5 -13t-51.5 -25z" />
    <glyph glyph-name="uni00A0" unicode="&#xa0;" horiz-adv-x="221" 
 />
    <glyph glyph-name="exclamdown" unicode="&#xa1;" horiz-adv-x="232" 
d="M115 372l10 -568q-5 -4 -20 -4q-14 0 -18 4l9 568h19zM105 508q12 0 20 -8t8 -20t-8 -20t-20 -8t-19.5 8t-7.5 20t7.5 20t19.5 8z" />
    <glyph glyph-name="cent" unicode="&#xa2;" 
d="M304 -112v102q-100 4 -152.5 75.5t-52.5 183.5q0 113 52 184t153 74v101h21v-102q119 -6 160 -112q-10 -12 -31 -12q-31 107 -142 107q-88 0 -129.5 -63.5t-41.5 -176.5q0 -112 43.5 -176.5t133.5 -64.5q107 0 144 102q21 0 31 -11q-18 -41 -58.5 -73.5t-109.5 -35.5
v-102h-21z" />
    <glyph glyph-name="sterling" unicode="&#xa3;" 
d="M94 0v18q1 2 9.5 12.5t11 15t8.5 17.5t8.5 26t5 34.5t2.5 48.5v163h-76v19h76v13q0 60 5 105t18.5 87.5t36.5 70t61.5 43.5t90.5 16q72 0 117 -32.5t63 -74.5q-10 -14 -30 -16q-41 104 -151 104q-55 0 -90.5 -20t-53.5 -62.5t-24.5 -93.5t-6.5 -128v-12h239v-19h-239
v-160q0 -19 -3 -36.5t-5.5 -28.5t-10 -25.5t-10 -19t-12.5 -17.5l-9 -14h404v-34h-435z" />
    <glyph glyph-name="currency" unicode="&#xa4;" 
d="M74 90l-17 18l76 76q-49 58 -49 151q0 88 44 145l-71 71l18 17l69 -70q57 57 151 57q93 0 152 -57l70 70l18 -17l-72 -72q44 -59 44 -144q0 -90 -49 -150l77 -77l-17 -18l-76 76l1 2q-58 -53 -148 -53t-146 51h1zM295 138q84 0 127.5 53.5t43.5 143.5t-43.5 143.5
t-127.5 53.5t-127 -53.5t-43 -143.5t43 -143.5t127 -53.5z" />
    <glyph glyph-name="yen" unicode="&#xa5;" 
d="M81 193v20h196v62l-25 49h-171v19h162l-165 329v4h36l185 -375h1l186 375h28v-4l-166 -329h161v-19h-171l-24 -49v-62h195v-20h-195v-193h-37v193h-196z" />
    <glyph glyph-name="brokenbar" unicode="&#xa6;" horiz-adv-x="349" 
d="M160 400v410h29v-410h-29zM160 -130v410h29v-410h-29z" />
    <glyph glyph-name="section" unicode="&#xa7;" horiz-adv-x="521" 
d="M107 -43q6 -17 11.5 -28t21.5 -31t45.5 -31t70.5 -11q62 0 97.5 32.5t35.5 93.5q0 36 -24 62.5t-59.5 41l-77 32.5t-77 36t-59.5 53.5t-24 83.5q0 107 118 148q-88 44 -88 124q0 64 44.5 105.5t124.5 41.5q138 0 178 -109q-11 -11 -31 -11q-7 18 -12 28.5t-21 30.5
t-45 30.5t-70 10.5q-63 0 -98.5 -32t-35.5 -93q0 -36 24 -62.5t59.5 -41l77.5 -32.5t77.5 -36t59.5 -53.5t24 -83.5q0 -108 -120 -149q89 -45 89 -123q0 -64 -44.5 -105.5t-124.5 -41.5q-135 0 -178 109q11 11 31 11zM312 117q48 14 75.5 50t27.5 87q0 27 -9.5 49.5
t-22.5 37t-37.5 28.5t-41.5 21.5t-48.5 19.5t-46.5 19q-49 -14 -76 -49.5t-27 -87.5q0 -32 11 -56.5t37 -43t44.5 -28t59 -25.5t54.5 -22z" />
    <glyph glyph-name="dieresis" unicode="&#xa8;" horiz-adv-x="334" 
d="M56 642q0 13 8.5 21t20.5 8q11 0 19.5 -8.5t8.5 -20.5t-8.5 -20.5t-19.5 -8.5q-12 0 -20.5 8t-8.5 21zM221 642q0 13 8.5 21t20.5 8t20 -8t8 -21t-8 -21t-20 -8t-20.5 8t-8.5 21z" />
    <glyph glyph-name="copyright" unicode="&#xa9;" horiz-adv-x="814" 
d="M552 243q4 1 11 1q15 0 24 -8q-15 -47 -59.5 -82t-115.5 -35q-94 0 -147.5 64.5t-53.5 167.5q0 102 53.5 166.5t145.5 64.5q73 0 117.5 -37t58.5 -84q-7 -11 -32 -11q-13 46 -48 80t-96 34q-78 0 -119.5 -57t-41.5 -156q0 -98 43 -156t121 -58q106 0 139 106zM407 -11
q-153 0 -256.5 105t-103.5 256t103.5 256t256.5 105t256 -105t103 -256t-103 -256t-256 -105zM407 18q144 0 235 95t91 237t-91 237t-235 95t-235 -95t-91 -237t91 -237t235 -95z" />
    <glyph glyph-name="ordfeminine" unicode="&#xaa;" horiz-adv-x="333" 
d="M286 362l-29 -8q-9 15 -13 38q-36 -42 -93 -42q-51 0 -80 27t-29 72q0 47 36.5 71t91.5 24q51 0 74 -9v49q0 42 -15.5 63.5t-59.5 21.5q-38 0 -61 -17t-29 -36q-17 4 -29 16q36 56 122 56q106 0 106 -105v-145q0 -57 8 -76zM244 410v109q-32 8 -69 8q-95 0 -95 -79
q0 -75 82 -75q49 0 82 37z" />
    <glyph glyph-name="guillemotleft" unicode="&#xab;" horiz-adv-x="556" 
d="M252 47l-174 209v6l174 207h28l-161 -211l161 -211h-28zM449 47l-174 209v6l174 207h28l-161 -211l161 -211h-28z" />
    <glyph glyph-name="logicalnot" unicode="&#xac;" 
d="M62 286v27h468v-248h-30v221h-438z" />
    <glyph glyph-name="uni00AD" unicode="&#xad;" horiz-adv-x="370" 
d="M62 284v31h246v-31h-246z" />
    <glyph glyph-name="registered" unicode="&#xae;" horiz-adv-x="507" 
d="M253 337q-89 0 -147.5 60.5t-58.5 147.5q0 88 58.5 149t147.5 61q88 0 147.5 -61t59.5 -149q0 -87 -59.5 -147.5t-147.5 -60.5zM253 359q80 0 130 54t50 132q0 79 -50 133t-130 54t-129.5 -54t-49.5 -133t49.5 -132.5t129.5 -53.5zM186 420v256h49q100 0 100 -69
q0 -61 -68 -73q13 -6 22 -19l52 -93v-2h-28l-40 76q-13 24 -21 28.5t-40 4.5v-109h-26zM212 546h22q73 0 73 58q0 31 -17 43t-56 12h-22v-113z" />
    <glyph glyph-name="macron" unicode="&#xaf;" horiz-adv-x="356" 
d="M56 623v24h244v-24h-244z" />
    <glyph glyph-name="degree" unicode="&#xb0;" horiz-adv-x="314" 
d="M157 489q-47 0 -78.5 31t-31.5 80t31.5 80t78.5 31t78.5 -31t31.5 -80t-31.5 -80t-78.5 -31zM157 514q37 0 59.5 23.5t22.5 62.5t-22.5 62.5t-59.5 23.5t-59.5 -24t-22.5 -62q0 -39 22.5 -62.5t59.5 -23.5z" />
    <glyph glyph-name="plusminus" unicode="&#xb1;" 
d="M62 322v26h219v201h29v-201h220v-26h-220v-202h-29v202h-219zM62 34v26h468v-26h-468z" />
    <glyph glyph-name="two.superior" unicode="&#xb2;" horiz-adv-x="369" 
d="M49 468v23q2 1 34.5 26.5t42.5 34.5l39 34.5t41.5 42l30 41t24.5 47.5t7 46q0 38 -20.5 63t-63.5 25q-70 0 -95 -75q-22 0 -33 11q30 83 128 83q59 0 91 -29.5t32 -80.5q0 -62 -54.5 -124.5t-154.5 -133.5v-1h221v-33h-270z" />
    <glyph glyph-name="three.superior" unicode="&#xb3;" horiz-adv-x="348" 
d="M132 661v21h21q110 0 110 92q0 76 -85 76q-63 0 -89 -49q-21 3 -29 14q34 55 119 55q57 0 89.5 -24.5t32.5 -69.5q0 -44 -26 -69.5t-68 -33.5v-1q106 -12 106 -98q0 -52 -36.5 -82.5t-99.5 -30.5q-47 0 -79.5 16.5t-44.5 40.5q4 5 28 18q32 -54 96 -54q48 0 72 23.5
t24 63.5q0 92 -120 92h-21z" />
    <glyph glyph-name="acute" unicode="&#xb4;" horiz-adv-x="226" 
d="M56 581l63 128q9 3 26 3q16 0 25 -3l-96 -128q-4 -3 -9 -3t-9 3z" />
    <glyph glyph-name="mu" unicode="&#xb5;" horiz-adv-x="507" 
d="M80 -207v704q15 0 35 4v-322q0 -83 27.5 -124t102.5 -41q43 0 83 18t62 43v422q15 0 35 4v-376q0 -92 12 -117l-29 -11q-14 20 -17 60q-61 -67 -153 -67q-84 0 -123 49v-242q-15 0 -35 -4z" />
    <glyph glyph-name="paragraph" unicode="&#xb6;" horiz-adv-x="631" 
d="M331 -130v407h-19q-131 0 -193 57t-62 155q0 99 61.5 155t193.5 56h242v-830h-33v805h-156v-805h-34z" />
    <glyph glyph-name="periodcentered" unicode="&#xb7;" horiz-adv-x="219" 
d="M119 270q-12 0 -20 8t-8 20t8 20t20 8t19.5 -8t7.5 -20t-7.5 -20t-19.5 -8z" />
    <glyph glyph-name="cedilla" unicode="&#xb8;" horiz-adv-x="259" 
d="M56 -188l4 15q24 -16 60 -16q52 0 52 48q0 27 -20 39t-65 22l25 84h23l-20 -64q88 -15 88 -77q0 -36 -22 -54t-57 -18q-44 0 -68 21z" />
    <glyph glyph-name="one.superior" unicode="&#xb9;" horiz-adv-x="329" 
d="M88 468v21h83v343l-83 -21v23q5 1 23.5 7l41 13l31.5 10h24v-375h73v-21h-193z" />
    <glyph glyph-name="ordmasculine" unicode="&#xba;" horiz-adv-x="373" 
d="M186 349q-72 0 -110.5 46.5t-38.5 120.5q0 77 38.5 124t110.5 47q74 0 112 -47t38 -124q0 -74 -38.5 -120.5t-111.5 -46.5zM186 370q112 0 112 146q0 151 -112 151q-108 0 -108 -151q0 -146 108 -146z" />
    <glyph glyph-name="guillemotright" unicode="&#xbb;" horiz-adv-x="556" 
d="M78 47l162 211l-162 211h28l174 -207v-6l-174 -209h-28zM275 47l162 211l-162 211h28l174 -207v-6l-174 -209h-28z" />
    <glyph glyph-name="onequarter" unicode="&#xbc;" horiz-adv-x="811" 
d="M67 280v21h83v343l-83 -21v23q5 1 23.5 7l41 13l31.5 10h24v-375h73v-21h-193zM172 0v3l439 697h31v-3l-439 -697h-31zM470 102v29l196 265h38v-265h50v-29h-50v-102h-37v102h-197zM499 131h168v223h-3z" />
    <glyph glyph-name="onehalf" unicode="&#xbd;" horiz-adv-x="857" 
d="M67 280v21h83v343l-83 -21v23q5 1 23.5 7l41 13l31.5 10h24v-375h73v-21h-193zM172 0v3l439 697h31v-3l-439 -697h-31zM520 0v23q2 1 34.5 26.5t42.5 34.5l39 34.5t41.5 42l30 41t24.5 47.5t7 46q0 38 -20.5 63t-63.5 25q-70 0 -95 -75q-22 0 -33 11q30 83 128 83
q59 0 91 -29.5t32 -80.5q0 -62 -54.5 -124.5t-154.5 -133.5v-1h221v-33h-270z" />
    <glyph glyph-name="threequarters" unicode="&#xbe;" horiz-adv-x="846" 
d="M146 473v21h21q110 0 110 92q0 76 -85 76q-63 0 -89 -49q-21 3 -29 14q34 55 119 55q57 0 89.5 -24.5t32.5 -69.5q0 -44 -26 -69.5t-68 -33.5v-1q106 -12 106 -98q0 -52 -36.5 -82.5t-99.5 -30.5q-47 0 -79.5 16.5t-44.5 40.5q4 5 28 18q32 -54 96 -54q48 0 72 23.5
t24 63.5q0 92 -120 92h-21zM207 0v3l439 697h31v-3l-439 -697h-31zM505 102v29l196 265h38v-265h50v-29h-50v-102h-37v102h-197zM534 131h168v223h-3z" />
    <glyph glyph-name="questiondown" unicode="&#xbf;" horiz-adv-x="451" 
d="M268 369v-39q0 -54 -21 -93.5t-50.5 -64.5l-59 -50t-50.5 -65t-21 -95q0 -69 35.5 -110t109.5 -41q123 0 158 125q24 -2 32 -13q-44 -131 -192 -131q-91 0 -137.5 50.5t-46.5 117.5q0 47 15.5 84.5t39.5 60l52 47.5l52.5 46.5t42 56.5t20.5 79l2 35h19zM258 508
q12 0 19.5 -8t7.5 -20t-7.5 -20t-19.5 -8q-13 0 -20.5 8t-7.5 20t7.5 20t20.5 8z" />
    <glyph glyph-name="Agrave" unicode="&#xc0;" horiz-adv-x="576" 
d="M27 0v4l239 696h45l238 -696v-4h-35l-91 266h-276l-90 -266h-30zM155 289h260l-62 184q-58 170 -66 203h-3q-7 -25 -67 -203zM284 752l-88 107q8 3 25 3t26 -3l55 -107q-4 -3 -9 -3t-9 3z" />
    <glyph glyph-name="Aacute" unicode="&#xc1;" horiz-adv-x="576" 
d="M27 0v4l239 696h45l238 -696v-4h-35l-91 266h-276l-90 -266h-30zM155 289h260l-62 184q-58 170 -66 203h-3q-7 -25 -67 -203zM274 752l55 107q9 3 25 3q17 0 26 -3l-88 -107q-4 -3 -9 -3t-9 3z" />
    <glyph glyph-name="Acircumflex" unicode="&#xc2;" horiz-adv-x="576" 
d="M27 0v4l239 696h45l238 -696v-4h-35l-91 266h-276l-90 -266h-30zM155 289h260l-62 184q-58 170 -66 203h-3q-7 -25 -67 -203zM182 750l81 109q8 3 25 3t26 -3l81 -109q-5 -3 -11 -3q-4 0 -9 3l-86 83h-2l-86 -83q-5 -3 -9 -3q-6 0 -10 3z" />
    <glyph glyph-name="Atilde" unicode="&#xc3;" horiz-adv-x="576" 
d="M27 0v4l239 696h45l238 -696v-4h-35l-91 266h-276l-90 -266h-30zM155 289h260l-62 184q-58 170 -66 203h-3q-7 -25 -67 -203zM140 766q16 40 34 61t28.5 24t25.5 3q27 0 66 -30.5t62 -30.5q34 0 61 60q3 1 11 1q6 0 9 -1q-23 -55 -42.5 -71.5t-40.5 -16.5
q-26 0 -66.5 31.5t-62.5 31.5t-39 -19.5t-26 -42.5q-6 -2 -10 -2t-10 2z" />
    <glyph glyph-name="Adieresis" unicode="&#xc4;" horiz-adv-x="576" 
d="M27 0v4l239 696h45l238 -696v-4h-35l-91 266h-276l-90 -266h-30zM155 289h260l-62 184q-58 170 -66 203h-3q-7 -25 -67 -203zM164 791q0 13 8.5 21t20.5 8t20 -8t8 -21q0 -12 -8 -20t-20 -8t-20.5 8t-8.5 20zM350 791q0 13 8 21t20 8t20.5 -8t8.5 -21q0 -12 -8.5 -20
t-20.5 -8t-20 8t-8 20z" />
    <glyph glyph-name="Aring" unicode="&#xc5;" horiz-adv-x="576" 
d="M27 0v4l239 696h45l238 -696v-4h-35l-91 266h-276l-90 -266h-30zM155 289h260l-62 184q-58 170 -66 203h-3q-7 -25 -67 -203zM288 727q-32 0 -51.5 20.5t-19.5 51.5q0 32 19.5 52t51.5 20q33 0 52 -20t19 -52q0 -31 -19.5 -51.5t-51.5 -20.5zM288 746q22 0 34.5 15
t12.5 38t-12.5 38t-34.5 15t-34 -14.5t-12 -38.5t12 -38.5t34 -14.5z" />
    <glyph glyph-name="AE" unicode="&#xc6;" horiz-adv-x="785" 
d="M22 0v4l338 696h359v-23h-302v-305h274q1 -3 1 -12q0 -10 -1 -13h-274v-324h317v-23h-353v266h-200l-127 -266h-32zM192 290h189v387h-2q-13 -31 -100 -209z" />
    <glyph glyph-name="Ccedilla" unicode="&#xc7;" horiz-adv-x="639" 
d="M277 -188l4 15q32 -16 57 -16q55 0 55 46q0 29 -20 41t-65 22l20 69q-129 6 -198 104.5t-69 257.5q0 163 73.5 262t210.5 99q183 0 241 -176q-10 -13 -35 -13q-25 83 -72 125.5t-135 42.5q-118 0 -179.5 -89.5t-61.5 -250.5t62 -251.5t179 -90.5q167 0 214 186
q25 -2 36 -11q-58 -192 -243 -196l-15 -48q88 -18 88 -80q0 -36 -22.5 -53t-58.5 -17q-18 0 -34.5 5.5t-23.5 10t-8 6.5z" />
    <glyph glyph-name="Egrave" unicode="&#xc8;" horiz-adv-x="500" 
d="M96 0v700h339v-23h-302v-305h278q1 -6 1 -12q0 -5 -1 -12h-278v-325h317v-23h-354zM277 752l-88 107q7 3 25 3q17 0 26 -3l55 -107q-5 -3 -9 -3t-9 3z" />
    <glyph glyph-name="Eacute" unicode="&#xc9;" horiz-adv-x="500" 
d="M96 0v700h339v-23h-302v-305h278q1 -6 1 -12q0 -5 -1 -12h-278v-325h317v-23h-354zM246 752l55 107q9 3 25 3q17 0 26 -3l-88 -107q-4 -3 -9 -3t-9 3z" />
    <glyph glyph-name="Ecircumflex" unicode="&#xca;" horiz-adv-x="500" 
d="M96 0v700h339v-23h-302v-305h278q1 -6 1 -12q0 -5 -1 -12h-278v-325h317v-23h-354zM165 750l81 109q8 3 25 3t26 -3l81 -109q-4 -3 -11 -3q-5 0 -9 3l-86 83h-2l-86 -83q-4 -3 -9 -3t-10 3z" />
    <glyph glyph-name="Edieresis" unicode="&#xcb;" horiz-adv-x="500" 
d="M96 0v700h339v-23h-302v-305h278q1 -6 1 -12q0 -5 -1 -12h-278v-325h317v-23h-354zM143 791q0 13 8.5 21t20.5 8t20 -8t8 -21q0 -12 -8 -20t-20 -8t-20.5 8t-8.5 20zM329 791q0 13 8 21t20 8t20.5 -8t8.5 -21q0 -12 -8.5 -20t-20.5 -8t-20 8t-8 20z" />
    <glyph glyph-name="Igrave" unicode="&#xcc;" horiz-adv-x="229" 
d="M96 0v700h37v-700h-37zM110 752l-88 107q7 3 25 3q17 0 26 -3l55 -107q-4 -3 -9 -3t-9 3z" />
    <glyph glyph-name="Iacute" unicode="&#xcd;" horiz-adv-x="229" 
d="M96 0v700h37v-700h-37zM102 752l55 107q9 3 25 3q17 0 26 -3l-88 -107q-4 -3 -9 -3t-9 3z" />
    <glyph glyph-name="Icircumflex" unicode="&#xce;" horiz-adv-x="229" 
d="M96 0v700h37v-700h-37zM8 750l81 109q7 3 25 3q17 0 26 -3l81 -109q-4 -3 -11 -3q-4 0 -9 3l-86 83h-2l-86 -83q-5 -3 -9 -3q-5 0 -10 3z" />
    <glyph glyph-name="Idieresis" unicode="&#xcf;" horiz-adv-x="229" 
d="M96 0v700h37v-700h-37zM-7 791q0 13 8.5 21t20.5 8t20 -8t8 -21q0 -12 -8 -20t-20 -8t-20.5 8t-8.5 20zM179 791q0 13 8 21t20 8t20.5 -8t8.5 -21q0 -12 -8.5 -20t-20.5 -8t-20 8t-8 20z" />
    <glyph glyph-name="Eth" unicode="&#xd0;" horiz-adv-x="641" 
d="M118 0v346h-81v24h81v330h142q163 0 242 -91t79 -258t-78.5 -259t-241.5 -92h-143zM155 21h105q277 0 277 330q0 328 -276 328h-106v-309h204v-24h-204v-325z" />
    <glyph glyph-name="Ntilde" unicode="&#xd1;" horiz-adv-x="679" 
d="M96 0v700h38l316 -478q79 -119 103 -169h2q-3 81 -3 226v421h31v-700h-25l-305 463q-108 162 -126 201h-2q3 -60 3 -242v-422h-32zM211 766q16 40 34 61t28.5 24t25.5 3q27 0 66 -30.5t62 -30.5q34 0 61 60q3 1 11 1q6 0 9 -1q-23 -55 -42.5 -71.5t-40.5 -16.5
q-26 0 -66.5 31.5t-62.5 31.5t-39 -19.5t-26 -42.5q-6 -2 -10 -2t-10 2z" />
    <glyph glyph-name="Ograve" unicode="&#xd2;" horiz-adv-x="691" 
d="M344 -12q-136 0 -209.5 100t-73.5 263t73.5 262t209.5 99q137 0 211.5 -99.5t74.5 -261.5q0 -163 -75 -263t-211 -100zM344 9q118 0 180.5 90.5t62.5 251.5t-62.5 250.5t-180.5 89.5t-179.5 -89.5t-61.5 -250.5t62 -251.5t179 -90.5zM351 752l-88 107q8 3 25 3t26 -3
l55 -107q-5 -3 -9 -3t-9 3z" />
    <glyph glyph-name="Oacute" unicode="&#xd3;" horiz-adv-x="691" 
d="M344 -12q-136 0 -209.5 100t-73.5 263t73.5 262t209.5 99q137 0 211.5 -99.5t74.5 -261.5q0 -163 -75 -263t-211 -100zM344 9q118 0 180.5 90.5t62.5 251.5t-62.5 250.5t-180.5 89.5t-179.5 -89.5t-61.5 -250.5t62 -251.5t179 -90.5zM321 752l55 107q9 3 25 3q17 0 26 -3
l-88 -107q-5 -3 -9 -3t-9 3z" />
    <glyph glyph-name="Ocircumflex" unicode="&#xd4;" horiz-adv-x="691" 
d="M344 -12q-136 0 -209.5 100t-73.5 263t73.5 262t209.5 99q137 0 211.5 -99.5t74.5 -261.5q0 -163 -75 -263t-211 -100zM344 9q118 0 180.5 90.5t62.5 251.5t-62.5 250.5t-180.5 89.5t-179.5 -89.5t-61.5 -250.5t62 -251.5t179 -90.5zM239 750l81 109q8 3 25 3t26 -3
l81 -109q-4 -3 -11 -3q-5 0 -9 3l-86 83h-2l-86 -83q-4 -3 -9 -3t-10 3z" />
    <glyph glyph-name="Otilde" unicode="&#xd5;" horiz-adv-x="691" 
d="M344 -12q-136 0 -209.5 100t-73.5 263t73.5 262t209.5 99q137 0 211.5 -99.5t74.5 -261.5q0 -163 -75 -263t-211 -100zM344 9q118 0 180.5 90.5t62.5 251.5t-62.5 250.5t-180.5 89.5t-179.5 -89.5t-61.5 -250.5t62 -251.5t179 -90.5zM208 766q16 40 34 61t28.5 24t25.5 3
q27 0 66 -30.5t62 -30.5q34 0 61 60q3 1 11 1q6 0 9 -1q-23 -55 -42.5 -71.5t-40.5 -16.5q-26 0 -66.5 31.5t-62.5 31.5t-39 -19.5t-26 -42.5q-6 -2 -10 -2t-10 2z" />
    <glyph glyph-name="Odieresis" unicode="&#xd6;" horiz-adv-x="691" 
d="M344 -12q-136 0 -209.5 100t-73.5 263t73.5 262t209.5 99q137 0 211.5 -99.5t74.5 -261.5q0 -163 -75 -263t-211 -100zM344 9q118 0 180.5 90.5t62.5 251.5t-62.5 250.5t-180.5 89.5t-179.5 -89.5t-61.5 -250.5t62 -251.5t179 -90.5zM224 791q0 13 8.5 21t20.5 8t20 -8
t8 -21q0 -12 -8 -20t-20 -8t-20.5 8t-8.5 20zM410 791q0 13 8 21t20 8t20.5 -8t8.5 -21q0 -12 -8.5 -20t-20.5 -8t-20 8t-8 20z" />
    <glyph glyph-name="multiply" unicode="&#xd7;" 
d="M101 86l-18 19l193 193l-194 195l20 19l194 -194l194 194l19 -18l-195 -195l195 -194l-19 -20l-195 195z" />
    <glyph glyph-name="Oslash" unicode="&#xd8;" horiz-adv-x="691" 
d="M91 -8l56 82q-86 98 -86 277q0 162 75 261.5t208 99.5q111 0 186 -73l55 81l23 -15l-59 -87q81 -98 81 -267q0 -162 -75.5 -262.5t-210.5 -100.5q-106 0 -177 66l-52 -76zM165 101l348 513q-63 77 -169 77q-115 0 -178 -90.5t-63 -249.5t62 -250zM530 590l-347 -512
q60 -69 161 -69q116 0 179.5 91t63.5 251q0 150 -57 239z" />
    <glyph glyph-name="Ugrave" unicode="&#xd9;" horiz-adv-x="677" 
d="M92 288v412h37v-412q0 -149 53.5 -212.5t158.5 -63.5q106 0 159.5 64t53.5 214v410h31v-412q0 -153 -59 -226t-188 -73q-128 0 -187 73.5t-59 225.5zM362 752l-88 107q7 3 25 3q17 0 26 -3l55 -107q-4 -3 -9 -3t-9 3z" />
    <glyph glyph-name="Uacute" unicode="&#xda;" horiz-adv-x="677" 
d="M92 288v412h37v-412q0 -149 53.5 -212.5t158.5 -63.5q106 0 159.5 64t53.5 214v410h31v-412q0 -153 -59 -226t-188 -73q-128 0 -187 73.5t-59 225.5zM327 752l55 107q9 3 25 3q17 0 26 -3l-88 -107q-5 -3 -9 -3t-9 3z" />
    <glyph glyph-name="Ucircumflex" unicode="&#xdb;" horiz-adv-x="677" 
d="M92 288v412h37v-412q0 -149 53.5 -212.5t158.5 -63.5q106 0 159.5 64t53.5 214v410h31v-412q0 -153 -59 -226t-188 -73q-128 0 -187 73.5t-59 225.5zM239 750l81 109q8 3 25 3t26 -3l81 -109q-4 -3 -11 -3q-5 0 -9 3l-86 83h-2l-86 -83q-4 -3 -9 -3t-10 3z" />
    <glyph glyph-name="Udieresis" unicode="&#xdc;" horiz-adv-x="677" 
d="M92 288v412h37v-412q0 -149 53.5 -212.5t158.5 -63.5q106 0 159.5 64t53.5 214v410h31v-412q0 -153 -59 -226t-188 -73q-128 0 -187 73.5t-59 225.5zM223 791q0 13 8.5 21t20.5 8t20 -8t8 -21q0 -12 -8 -20t-20 -8t-20.5 8t-8.5 20zM409 791q0 13 8 21t20 8t20.5 -8
t8.5 -21q0 -12 -8.5 -20t-20.5 -8t-20 8t-8 20z" />
    <glyph glyph-name="Yacute" unicode="&#xdd;" horiz-adv-x="530" 
d="M247 0v273l-214 423v4h37l198 -399h1l199 399h30v-4l-215 -423v-273h-36zM250 752l55 107q9 3 25 3q17 0 26 -3l-88 -107q-4 -3 -9 -3t-9 3z" />
    <glyph glyph-name="Thorn" unicode="&#xde;" horiz-adv-x="524" 
d="M96 0v700h37v-134h77q252 0 252 -201t-252 -201h-77v-164h-37zM133 184h78q110 0 159 45.5t49 135.5q0 91 -48.5 135.5t-159.5 44.5h-78v-361z" />
    <glyph glyph-name="germandbls" unicode="&#xdf;" horiz-adv-x="530" 
d="M82 0v464q0 240 191 240q79 0 127 -45t48 -120q0 -136 -142 -170v-2q77 -9 126 -52.5t49 -130.5q0 -85 -56 -138.5t-151 -53.5q-77 0 -111 19v22q35 -23 110 -23q84 0 125.5 46.5t41.5 125.5q0 87 -47 132t-152 45h-31v18h31q170 0 170 161q0 148 -139 148
q-80 0 -117.5 -51t-37.5 -175v-460h-35z" />
    <glyph glyph-name="agrave" unicode="&#xe0;" horiz-adv-x="484" 
d="M413 8l-29 -11q-13 23 -16 61q-55 -68 -145 -68q-77 0 -119.5 39.5t-42.5 103.5q0 76 52.5 113.5t136.5 37.5q71 0 117 -16v80q0 71 -24.5 106.5t-96.5 35.5q-58 0 -96 -26t-50 -54q-18 6 -26 19q23 35 69 56.5t101 21.5q88 0 123 -41t35 -112v-235q0 -83 11 -111z
M367 77v175q-45 14 -112 14q-155 0 -155 -130q0 -63 35.5 -94t95.5 -31q82 0 136 66zM261 581l-96 128q7 3 25 3q17 0 26 -3l63 -128q-3 -3 -9 -3q-4 0 -9 3z" />
    <glyph glyph-name="aacute" unicode="&#xe1;" horiz-adv-x="484" 
d="M413 8l-29 -11q-13 23 -16 61q-55 -68 -145 -68q-77 0 -119.5 39.5t-42.5 103.5q0 76 52.5 113.5t136.5 37.5q71 0 117 -16v80q0 71 -24.5 106.5t-96.5 35.5q-58 0 -96 -26t-50 -54q-18 6 -26 19q23 35 69 56.5t101 21.5q88 0 123 -41t35 -112v-235q0 -83 11 -111z
M367 77v175q-45 14 -112 14q-155 0 -155 -130q0 -63 35.5 -94t95.5 -31q82 0 136 66zM229 581l63 128q9 3 26 3q16 0 25 -3l-96 -128q-5 -3 -9 -3t-9 3z" />
    <glyph glyph-name="acircumflex" unicode="&#xe2;" horiz-adv-x="484" 
d="M413 8l-29 -11q-13 23 -16 61q-55 -68 -145 -68q-77 0 -119.5 39.5t-42.5 103.5q0 76 52.5 113.5t136.5 37.5q71 0 117 -16v80q0 71 -24.5 106.5t-96.5 35.5q-58 0 -96 -26t-50 -54q-18 6 -26 19q23 35 69 56.5t101 21.5q88 0 123 -41t35 -112v-235q0 -83 11 -111z
M367 77v175q-45 14 -112 14q-155 0 -155 -130q0 -63 35.5 -94t95.5 -31q82 0 136 66zM132 581l83 128q9 3 26 3t25 -3l84 -128q-4 -3 -11 -3q-5 0 -9 3l-88 105h-2l-89 -105q-5 -3 -9 -3q-6 0 -10 3z" />
    <glyph glyph-name="atilde" unicode="&#xe3;" horiz-adv-x="484" 
d="M413 8l-29 -11q-13 23 -16 61q-55 -68 -145 -68q-77 0 -119.5 39.5t-42.5 103.5q0 76 52.5 113.5t136.5 37.5q71 0 117 -16v80q0 71 -24.5 106.5t-96.5 35.5q-58 0 -96 -26t-50 -54q-18 6 -26 19q23 35 69 56.5t101 21.5q88 0 123 -41t35 -112v-235q0 -83 11 -111z
M367 77v175q-45 14 -112 14q-155 0 -155 -130q0 -63 35.5 -94t95.5 -31q82 0 136 66zM98 604q16 40 34 61t28.5 24t25.5 3q27 0 66 -30.5t62 -30.5q34 0 61 60q3 1 11 1q6 0 9 -1q-23 -55 -42.5 -71.5t-40.5 -16.5q-26 0 -66.5 31.5t-62.5 31.5t-39 -19.5t-26 -42.5
q-6 -2 -10 -2t-10 2z" />
    <glyph glyph-name="adieresis" unicode="&#xe4;" horiz-adv-x="484" 
d="M413 8l-29 -11q-13 23 -16 61q-55 -68 -145 -68q-77 0 -119.5 39.5t-42.5 103.5q0 76 52.5 113.5t136.5 37.5q71 0 117 -16v80q0 71 -24.5 106.5t-96.5 35.5q-58 0 -96 -26t-50 -54q-18 6 -26 19q23 35 69 56.5t101 21.5q88 0 123 -41t35 -112v-235q0 -83 11 -111z
M367 77v175q-45 14 -112 14q-155 0 -155 -130q0 -63 35.5 -94t95.5 -31q82 0 136 66zM127 642q0 13 8.5 21t20.5 8t20 -8.5t8 -20.5t-8 -20.5t-20 -8.5t-20.5 8t-8.5 21zM292 642q0 13 8.5 21t20.5 8t20 -8t8 -21t-8 -21t-20 -8t-20.5 8t-8.5 21z" />
    <glyph glyph-name="aring" unicode="&#xe5;" horiz-adv-x="484" 
d="M413 8l-29 -11q-13 23 -16 61q-55 -68 -145 -68q-77 0 -119.5 39.5t-42.5 103.5q0 76 52.5 113.5t136.5 37.5q71 0 117 -16v80q0 71 -24.5 106.5t-96.5 35.5q-58 0 -96 -26t-50 -54q-18 6 -26 19q23 35 69 56.5t101 21.5q88 0 123 -41t35 -112v-235q0 -83 11 -111z
M367 77v175q-45 14 -112 14q-155 0 -155 -130q0 -63 35.5 -94t95.5 -31q82 0 136 66zM169 633q0 32 19.5 52t51.5 20q33 0 52 -20t19 -52q0 -31 -19.5 -51t-51.5 -20t-51.5 20t-19.5 51zM240 580q22 0 34.5 15t12.5 38t-12.5 38t-34.5 15t-34 -14.5t-12 -38.5t12 -38.5
t34 -14.5z" />
    <glyph glyph-name="ae" unicode="&#xe6;" horiz-adv-x="808" 
d="M364 268v79q0 71 -24.5 107t-94.5 36q-60 0 -98 -25.5t-50 -54.5q-19 6 -26 19q23 35 69.5 56.5t102.5 21.5q131 0 151 -107q51 107 175 107q93 0 140 -60.5t47 -150.5q0 -19 -1 -32h-351v-7q0 -119 44.5 -184t129.5 -65q104 0 141 102q22 -2 31 -11q-45 -109 -173 -109
q-123 0 -177 99q-66 -99 -181 -99q-77 0 -119 39.5t-42 105.5q0 74 52.5 111.5t139.5 37.5q68 0 114 -16zM391 107q-27 60 -27 145q-42 14 -113 14q-70 0 -112 -31.5t-42 -99.5q0 -62 35.5 -93t93.5 -31q51 0 94.5 28.5t70.5 67.5zM405 284h311q0 205 -148 205
q-74 0 -116 -53.5t-47 -151.5z" />
    <glyph glyph-name="ccedilla" unicode="&#xe7;" horiz-adv-x="477" 
d="M190 -188l4 15q32 -16 57 -16q55 0 55 48q0 27 -20 39t-65 22l21 72q-94 9 -142 79t-48 178q0 116 54 187t159 71q133 0 174 -114q-12 -10 -31 -10q-33 106 -143 106q-172 0 -172 -240q0 -111 44 -176t133 -65q108 0 145 101q22 0 31 -9q-19 -43 -61 -76.5t-116 -33.5h-5
l-15 -50q88 -15 88 -77q0 -36 -22 -54t-57 -18q-47 0 -68 21z" />
    <glyph glyph-name="egrave" unicode="&#xe8;" horiz-adv-x="495" 
d="M92 264v-7q0 -119 44.5 -184t129.5 -65q103 0 141 102q21 -2 31 -11q-46 -109 -173 -109q-108 0 -160.5 73t-52.5 190q0 113 52 183.5t153 70.5q93 0 140 -60.5t47 -150.5q0 -20 -1 -32h-351zM93 284h311q0 205 -148 205q-74 0 -116 -53.5t-47 -151.5zM266 581l-96 128
q8 3 25 3t26 -3l63 -128q-3 -3 -9 -3q-5 0 -9 3z" />
    <glyph glyph-name="eacute" unicode="&#xe9;" horiz-adv-x="495" 
d="M92 264v-7q0 -119 44.5 -184t129.5 -65q103 0 141 102q21 -2 31 -11q-46 -109 -173 -109q-108 0 -160.5 73t-52.5 190q0 113 52 183.5t153 70.5q93 0 140 -60.5t47 -150.5q0 -20 -1 -32h-351zM93 284h311q0 205 -148 205q-74 0 -116 -53.5t-47 -151.5zM238 581l63 128
q9 3 26 3q16 0 25 -3l-96 -128q-4 -3 -9 -3t-9 3z" />
    <glyph glyph-name="ecircumflex" unicode="&#xea;" horiz-adv-x="495" 
d="M92 264v-7q0 -119 44.5 -184t129.5 -65q103 0 141 102q21 -2 31 -11q-46 -109 -173 -109q-108 0 -160.5 73t-52.5 190q0 113 52 183.5t153 70.5q93 0 140 -60.5t47 -150.5q0 -20 -1 -32h-351zM93 284h311q0 205 -148 205q-74 0 -116 -53.5t-47 -151.5zM150 581l83 128
q9 3 26 3t25 -3l84 -128q-4 -3 -11 -3q-5 0 -9 3l-88 105h-2l-89 -105q-5 -3 -9 -3q-6 0 -10 3z" />
    <glyph glyph-name="edieresis" unicode="&#xeb;" horiz-adv-x="495" 
d="M92 264v-7q0 -119 44.5 -184t129.5 -65q103 0 141 102q21 -2 31 -11q-46 -109 -173 -109q-108 0 -160.5 73t-52.5 190q0 113 52 183.5t153 70.5q93 0 140 -60.5t47 -150.5q0 -20 -1 -32h-351zM93 284h311q0 205 -148 205q-74 0 -116 -53.5t-47 -151.5zM152 642
q0 13 8.5 21t20.5 8q11 0 19.5 -8.5t8.5 -20.5t-8.5 -20.5t-19.5 -8.5q-12 0 -20.5 8t-8.5 21zM317 642q0 13 8.5 21t20.5 8t20 -8t8 -21t-8 -21t-20 -8t-20.5 8t-8.5 21z" />
    <glyph glyph-name="igrave" unicode="&#xec;" horiz-adv-x="199" 
d="M82 0v497q15 0 35 4v-400q0 -90 6 -101h-41zM97 581l-96 128q8 3 25 3t26 -3l63 -128q-3 -3 -9 -3q-4 0 -9 3z" />
    <glyph glyph-name="iacute" unicode="&#xed;" horiz-adv-x="199" 
d="M82 0v497q15 0 35 4v-400q0 -90 6 -101h-41zM89 581l63 128q9 3 26 3q16 0 25 -3l-96 -128q-5 -3 -9 -3t-9 3z" />
    <glyph glyph-name="icircumflex" unicode="&#xee;" horiz-adv-x="199" 
d="M82 0v497q15 0 35 4v-400q0 -90 6 -101h-41zM-9 581l83 128q9 3 26 3q18 0 25 -3l84 -128q-4 -3 -11 -3q-4 0 -9 3l-88 105h-2l-89 -105q-4 -3 -9 -3t-10 3z" />
    <glyph glyph-name="idieresis" unicode="&#xef;" horiz-adv-x="199" 
d="M82 0v497q15 0 35 4v-400q0 -90 6 -101h-41zM-11 642q0 13 8.5 21t20.5 8t20 -8.5t8 -20.5t-8 -20.5t-20 -8.5t-20.5 8t-8.5 21zM154 642q0 13 8.5 21t20.5 8t20 -8t8 -21t-8 -21t-20 -8t-20.5 8t-8.5 21z" />
    <glyph glyph-name="eth" unicode="&#xf0;" horiz-adv-x="548" 
d="M209 542l-6 17l140 40q-54 74 -123 113h42q65 -36 116 -103l106 30l6 -18l-100 -28q91 -133 91 -318q0 -129 -55.5 -207t-162.5 -78q-101 0 -155.5 65.5t-54.5 173.5q0 109 55 176t160 67q55 0 97.5 -19t63.5 -50q-19 94 -75 180zM261 9q47 0 83 21.5t56.5 57t30.5 77
t10 85.5q0 105 -46.5 154.5t-128.5 49.5q-88 0 -129.5 -61t-41.5 -165q0 -102 41 -160.5t125 -58.5z" />
    <glyph glyph-name="ntilde" unicode="&#xf1;" horiz-adv-x="521" 
d="M82 0v497q13 0 33 4v-67q23 29 67 51t100 22q159 0 159 -191v-215q0 -90 5 -101h-40v303q0 90 -29 136.5t-104 46.5q-50 0 -91.5 -21t-64.5 -48v-417h-35zM118 604q16 40 34 61t28.5 24t25.5 3q27 0 66 -30.5t62 -30.5q34 0 61 60q3 1 11 1q6 0 9 -1q-23 -55 -42.5 -71.5
t-40.5 -16.5q-26 0 -66.5 31.5t-62.5 31.5t-39 -19.5t-26 -42.5q-6 -2 -10 -2t-10 2z" />
    <glyph glyph-name="ograve" unicode="&#xf2;" horiz-adv-x="544" 
d="M271 -10q-107 0 -163 71.5t-56 187.5q0 115 56 186.5t163 71.5q109 0 165 -71.5t56 -186.5t-56.5 -187t-164.5 -72zM271 8q93 0 136.5 66t43.5 175t-43.5 174.5t-136.5 65.5q-92 0 -135 -65.5t-43 -175.5q0 -109 43 -174.5t135 -65.5zM272 581l-96 128q8 3 25 3t26 -3
l63 -128q-3 -3 -9 -3q-5 0 -9 3z" />
    <glyph glyph-name="oacute" unicode="&#xf3;" horiz-adv-x="544" 
d="M271 -10q-107 0 -163 71.5t-56 187.5q0 115 56 186.5t163 71.5q109 0 165 -71.5t56 -186.5t-56.5 -187t-164.5 -72zM271 8q93 0 136.5 66t43.5 175t-43.5 174.5t-136.5 65.5q-92 0 -135 -65.5t-43 -175.5q0 -109 43 -174.5t135 -65.5zM255 581l63 128q9 3 26 3
q16 0 25 -3l-96 -128q-5 -3 -9 -3t-9 3z" />
    <glyph glyph-name="ocircumflex" unicode="&#xf4;" horiz-adv-x="544" 
d="M271 -10q-107 0 -163 71.5t-56 187.5q0 115 56 186.5t163 71.5q109 0 165 -71.5t56 -186.5t-56.5 -187t-164.5 -72zM271 8q93 0 136.5 66t43.5 175t-43.5 174.5t-136.5 65.5q-92 0 -135 -65.5t-43 -175.5q0 -109 43 -174.5t135 -65.5zM163 581l83 128q9 3 26 3
q18 0 25 -3l84 -128q-5 -3 -11 -3q-4 0 -9 3l-88 105h-2l-89 -105q-4 -3 -9 -3t-10 3z" />
    <glyph glyph-name="otilde" unicode="&#xf5;" horiz-adv-x="544" 
d="M271 -10q-107 0 -163 71.5t-56 187.5q0 115 56 186.5t163 71.5q109 0 165 -71.5t56 -186.5t-56.5 -187t-164.5 -72zM271 8q93 0 136.5 66t43.5 175t-43.5 174.5t-136.5 65.5q-92 0 -135 -65.5t-43 -175.5q0 -109 43 -174.5t135 -65.5zM124 604q16 40 34 61t28.5 24
t25.5 3q27 0 66 -30.5t62 -30.5q34 0 61 60q3 1 11 1q6 0 9 -1q-23 -55 -42.5 -71.5t-40.5 -16.5q-26 0 -66.5 31.5t-62.5 31.5t-39 -19.5t-26 -42.5q-6 -2 -10 -2t-10 2z" />
    <glyph glyph-name="odieresis" unicode="&#xf6;" horiz-adv-x="544" 
d="M271 -10q-107 0 -163 71.5t-56 187.5q0 115 56 186.5t163 71.5q109 0 165 -71.5t56 -186.5t-56.5 -187t-164.5 -72zM271 8q93 0 136.5 66t43.5 175t-43.5 174.5t-136.5 65.5q-92 0 -135 -65.5t-43 -175.5q0 -109 43 -174.5t135 -65.5zM161 642q0 13 8.5 21t20.5 8
t20 -8.5t8 -20.5t-8 -20.5t-20 -8.5t-20.5 8t-8.5 21zM326 642q0 13 8.5 21t20.5 8t20 -8t8 -21t-8 -21t-20 -8t-20.5 8t-8.5 21z" />
    <glyph glyph-name="divide" unicode="&#xf7;" 
d="M296 127q-12 0 -19.5 8t-7.5 19q0 12 7.5 20t19.5 8t19.5 -8t7.5 -20q0 -11 -7.5 -19t-19.5 -8zM296 417q-12 0 -19.5 8t-7.5 20q0 11 7.5 19t19.5 8t19.5 -8t7.5 -19q0 -12 -7.5 -20t-19.5 -8zM62 286v27h468v-27h-468z" />
    <glyph glyph-name="oslash" unicode="&#xf8;" horiz-adv-x="544" 
d="M77 0l38 53q-63 70 -63 196q0 115 56 186.5t163 71.5q85 0 140 -47l33 46l22 -15l-36 -49q62 -69 62 -193q0 -115 -56.5 -187t-164.5 -72q-83 0 -136 44l-35 -48zM133 77l262 362q-45 50 -124 50q-92 0 -135 -65.5t-43 -175.5t40 -171zM412 416l-262 -361q44 -47 121 -47
q93 0 136.5 66t43.5 175q0 105 -39 167z" />
    <glyph glyph-name="ugrave" unicode="&#xf9;" horiz-adv-x="507" 
d="M80 173v324q15 0 35 4v-317q0 -86 27.5 -128t100.5 -42q46 0 85.5 17.5t61.5 43.5v422q15 0 35 4v-376q0 -92 12 -117l-29 -11q-13 21 -17 60q-61 -67 -157 -67q-154 0 -154 183zM273 581l-96 128q7 3 25 3q17 0 26 -3l63 -128q-3 -3 -9 -3q-4 0 -9 3z" />
    <glyph glyph-name="uacute" unicode="&#xfa;" horiz-adv-x="507" 
d="M80 173v324q15 0 35 4v-317q0 -86 27.5 -128t100.5 -42q46 0 85.5 17.5t61.5 43.5v422q15 0 35 4v-376q0 -92 12 -117l-29 -11q-13 21 -17 60q-61 -67 -157 -67q-154 0 -154 183zM233 581l63 128q9 3 26 3q16 0 25 -3l-96 -128q-5 -3 -9 -3t-9 3z" />
    <glyph glyph-name="ucircumflex" unicode="&#xfb;" horiz-adv-x="507" 
d="M80 173v324q15 0 35 4v-317q0 -86 27.5 -128t100.5 -42q46 0 85.5 17.5t61.5 43.5v422q15 0 35 4v-376q0 -92 12 -117l-29 -11q-13 21 -17 60q-61 -67 -157 -67q-154 0 -154 183zM150 581l83 128q9 3 26 3t25 -3l84 -128q-4 -3 -11 -3q-5 0 -9 3l-88 105h-2l-89 -105
q-5 -3 -9 -3q-6 0 -10 3z" />
    <glyph glyph-name="udieresis" unicode="&#xfc;" horiz-adv-x="507" 
d="M80 173v324q15 0 35 4v-317q0 -86 27.5 -128t100.5 -42q46 0 85.5 17.5t61.5 43.5v422q15 0 35 4v-376q0 -92 12 -117l-29 -11q-13 21 -17 60q-61 -67 -157 -67q-154 0 -154 183zM144 642q0 13 8.5 21t20.5 8q11 0 19.5 -8.5t8.5 -20.5t-8.5 -20.5t-19.5 -8.5
q-12 0 -20.5 8t-8.5 21zM309 642q0 13 8.5 21t20.5 8t20 -8t8 -21t-8 -21t-20 -8t-20.5 8t-8.5 21z" />
    <glyph glyph-name="yacute" unicode="&#xfd;" horiz-adv-x="434" 
d="M209 15l-177 479v3h34l92 -255q57 -159 64 -188h2q4 16 64 188l89 255h28v-3l-168 -474l-18.5 -54t-17 -49t-15.5 -37t-19 -33.5t-21.5 -21t-29.5 -16t-37 -3.5q-22 0 -39 3q-2 6 -2 16t2 16q16 -6 45 -6q12 0 21.5 1.5t17.5 6.5t14 9.5t13 15.5t11 18.5t10.5 24.5
t10.5 28.5l12 35.5t14 40zM213 581l63 128q9 3 26 3q16 0 25 -3l-96 -128q-5 -3 -9 -3t-9 3z" />
    <glyph glyph-name="thorn" unicode="&#xfe;" horiz-adv-x="529" 
d="M82 -207v909q15 0 35 4v-261q60 62 153 62q103 0 154.5 -71t51.5 -187t-52 -187.5t-154 -71.5q-94 0 -153 61v-254q-15 0 -35 -4zM117 424v-352q24 -28 64 -45t85 -17q168 0 168 239q0 238 -168 238q-44 0 -84.5 -17.5t-64.5 -45.5z" />
    <glyph glyph-name="ydieresis" unicode="&#xff;" horiz-adv-x="434" 
d="M209 15l-177 479v3h34l92 -255q57 -159 64 -188h2q4 16 64 188l89 255h28v-3l-168 -474l-18.5 -54t-17 -49t-15.5 -37t-19 -33.5t-21.5 -21t-29.5 -16t-37 -3.5q-22 0 -39 3q-2 6 -2 16t2 16q16 -6 45 -6q12 0 21.5 1.5t17.5 6.5t14 9.5t13 15.5t11 18.5t10.5 24.5
t10.5 28.5l12 35.5t14 40zM115 642q0 13 8.5 21t20.5 8t20 -8.5t8 -20.5t-8 -20.5t-20 -8.5t-20.5 8t-8.5 21zM280 642q0 13 8.5 21t20.5 8t20 -8t8 -21t-8 -21t-20 -8t-20.5 8t-8.5 21z" />
    <glyph glyph-name="Amacron" unicode="&#x100;" horiz-adv-x="576" 
d="M27 0v4l239 696h45l238 -696v-4h-35l-91 266h-276l-90 -266h-30zM155 289h260l-62 184q-58 170 -66 203h-3q-7 -25 -67 -203zM165 784v24h244v-24h-244z" />
    <glyph glyph-name="amacron" unicode="&#x101;" horiz-adv-x="484" 
d="M413 8l-29 -11q-13 23 -16 61q-55 -68 -145 -68q-77 0 -119.5 39.5t-42.5 103.5q0 76 52.5 113.5t136.5 37.5q71 0 117 -16v80q0 71 -24.5 106.5t-96.5 35.5q-58 0 -96 -26t-50 -54q-18 6 -26 19q23 35 69 56.5t101 21.5q88 0 123 -41t35 -112v-235q0 -83 11 -111z
M367 77v175q-45 14 -112 14q-155 0 -155 -130q0 -63 35.5 -94t95.5 -31q82 0 136 66zM123 623v24h244v-24h-244z" />
    <glyph glyph-name="Abreve" unicode="&#x102;" horiz-adv-x="576" 
d="M27 0v4l239 696h45l238 -696v-4h-35l-91 266h-276l-90 -266h-30zM155 289h260l-62 184q-58 170 -66 203h-3q-7 -25 -67 -203zM175 861q2 2 10 2q7 0 9 -2q5 -33 27.5 -55t65.5 -22t65 22t27 55q4 2 10 2q5 0 9 -2q-6 -49 -34.5 -76.5t-76.5 -27.5t-77 28t-35 76z" />
    <glyph glyph-name="abreve" unicode="&#x103;" horiz-adv-x="484" 
d="M413 8l-29 -11q-13 23 -16 61q-55 -68 -145 -68q-77 0 -119.5 39.5t-42.5 103.5q0 76 52.5 113.5t136.5 37.5q71 0 117 -16v80q0 71 -24.5 106.5t-96.5 35.5q-58 0 -96 -26t-50 -54q-18 6 -26 19q23 35 69 56.5t101 21.5q88 0 123 -41t35 -112v-235q0 -83 11 -111z
M367 77v175q-45 14 -112 14q-155 0 -155 -130q0 -63 35.5 -94t95.5 -31q82 0 136 66zM130 697q2 2 10 2q7 0 9 -2q14 -89 93 -89q78 0 92 89q4 2 10 2q5 0 9 -2q-13 -116 -111 -116q-49 0 -78 30.5t-34 85.5z" />
    <glyph glyph-name="Aogonek" unicode="&#x104;" horiz-adv-x="576" 
d="M27 0v4l239 696h45l238 -696v-4q-114 -57 -114 -145q0 -51 59 -51q35 0 56 16l6 -10q-23 -25 -71 -25q-81 0 -81 68q0 49 35 87t85 60h-10l-91 266h-276l-90 -266h-30zM155 290h260l-62 183q-58 170 -66 203h-3q-7 -25 -67 -203z" />
    <glyph glyph-name="aogonek" unicode="&#x105;" horiz-adv-x="484" 
d="M404 -180l6 -10q-25 -25 -71 -25q-81 0 -81 73q0 44 38 83t85 60q-10 22 -13 57q-55 -68 -145 -68q-77 0 -119.5 39.5t-42.5 103.5q0 76 52.5 113.5t136.5 37.5q71 0 117 -16v80q0 71 -24.5 106.5t-96.5 35.5q-58 0 -96 -26t-50 -54q-18 6 -26 19q23 35 69 56.5t101 21.5
q88 0 123 -41t35 -112v-235q0 -83 11 -111h1q-68 -38 -97 -72.5t-29 -76.5q0 -55 60 -55q33 0 56 16zM367 77v175q-45 14 -112 14q-155 0 -155 -130q0 -63 35.5 -94t95.5 -31q82 0 136 66z" />
    <glyph glyph-name="Cacute" unicode="&#x106;" horiz-adv-x="639" 
d="M558 195q25 -2 36 -11q-58 -196 -250 -196q-136 0 -209.5 99.5t-73.5 263.5q0 163 73.5 262t210.5 99q183 0 241 -176q-10 -13 -35 -13q-25 83 -72 125.5t-135 42.5q-118 0 -179.5 -89.5t-61.5 -250.5t62 -251.5t179 -90.5q167 0 214 186zM321 752l55 107q9 3 25 3
q17 0 26 -3l-88 -107q-5 -3 -9 -3t-9 3z" />
    <glyph glyph-name="cacute" unicode="&#x107;" horiz-adv-x="477" 
d="M415 109q22 0 31 -9q-19 -43 -61 -76.5t-116 -33.5q-107 0 -162 71.5t-55 187.5t54 187t159 71q133 0 174 -114q-12 -10 -31 -10q-33 106 -143 106q-172 0 -172 -240q0 -111 44 -176t133 -65q108 0 145 101zM255 581l63 128q9 3 26 3q16 0 25 -3l-96 -128q-5 -3 -9 -3
t-9 3z" />
    <glyph glyph-name="Ccircumflex" unicode="&#x108;" horiz-adv-x="639" 
d="M558 195q25 -2 36 -11q-58 -196 -250 -196q-136 0 -209.5 99.5t-73.5 263.5q0 163 73.5 262t210.5 99q183 0 241 -176q-10 -13 -35 -13q-25 83 -72 125.5t-135 42.5q-118 0 -179.5 -89.5t-61.5 -250.5t62 -251.5t179 -90.5q167 0 214 186zM244 750l81 109q7 3 25 3
q17 0 26 -3l81 -109q-4 -3 -11 -3q-4 0 -9 3l-86 83h-2l-86 -83q-5 -3 -9 -3q-6 0 -10 3z" />
    <glyph glyph-name="ccircumflex" unicode="&#x109;" horiz-adv-x="477" 
d="M415 109q22 0 31 -9q-19 -43 -61 -76.5t-116 -33.5q-107 0 -162 71.5t-55 187.5t54 187t159 71q133 0 174 -114q-12 -10 -31 -10q-33 106 -143 106q-172 0 -172 -240q0 -111 44 -176t133 -65q108 0 145 101zM158 581l83 128q9 3 26 3t25 -3l84 -128q-4 -3 -11 -3
q-5 0 -9 3l-88 105h-2l-89 -105q-5 -3 -9 -3q-6 0 -10 3z" />
    <glyph glyph-name="Cdotaccent" unicode="&#x10a;" horiz-adv-x="639" 
d="M558 195q25 -2 36 -11q-58 -196 -250 -196q-136 0 -209.5 99.5t-73.5 263.5q0 163 73.5 262t210.5 99q183 0 241 -176q-10 -13 -35 -13q-25 83 -72 125.5t-135 42.5q-118 0 -179.5 -89.5t-61.5 -250.5t62 -251.5t179 -90.5q167 0 214 186zM344 774q-12 0 -20 8.5t-8 20.5
t8 20.5t20 8.5t20 -8.5t8 -20.5t-8 -20.5t-20 -8.5z" />
    <glyph glyph-name="cdotaccent" unicode="&#x10b;" horiz-adv-x="477" 
d="M415 109q22 0 31 -9q-19 -43 -61 -76.5t-116 -33.5q-107 0 -162 71.5t-55 187.5t54 187t159 71q133 0 174 -114q-12 -10 -31 -10q-33 106 -143 106q-172 0 -172 -240q0 -111 44 -176t133 -65q108 0 145 101zM271 613q-12 0 -20 8t-8 20t8 20.5t20 8.5t19.5 -8.5
t7.5 -20.5t-7.5 -20t-19.5 -8z" />
    <glyph glyph-name="Ccaron" unicode="&#x10c;" horiz-adv-x="639" 
d="M558 195q25 -2 36 -11q-58 -196 -250 -196q-136 0 -209.5 99.5t-73.5 263.5q0 163 73.5 262t210.5 99q183 0 241 -176q-10 -13 -35 -13q-25 83 -72 125.5t-135 42.5q-118 0 -179.5 -89.5t-61.5 -250.5t62 -251.5t179 -90.5q167 0 214 186zM322 751l-81 109q9 3 10 3
q5 0 9 -3l86 -83h2l86 83q4 3 9 3q2 0 11 -3l-81 -109q-9 -3 -26 -3t-25 3z" />
    <glyph glyph-name="ccaron" unicode="&#x10d;" horiz-adv-x="477" 
d="M415 109q22 0 31 -9q-19 -43 -61 -76.5t-116 -33.5q-107 0 -162 71.5t-55 187.5t54 187t159 71q133 0 174 -114q-12 -10 -31 -10q-33 106 -143 106q-172 0 -172 -240q0 -111 44 -176t133 -65q108 0 145 101zM243 580l-83 128q9 3 10 3q4 0 9 -3l89 -105h2l88 105q4 3 9 3
q2 0 11 -3l-84 -128q-8 -3 -25 -3t-26 3z" />
    <glyph glyph-name="Dcaron" unicode="&#x10e;" horiz-adv-x="619" 
d="M96 0v700h142q163 0 242 -91t79 -258t-78.5 -259t-241.5 -92h-143zM133 21h105q277 0 277 330q0 328 -276 328h-106v-658zM264 751l-81 109q9 3 10 3q5 0 9 -3l86 -83h2l86 83q4 3 9 3q2 0 11 -3l-81 -109q-9 -3 -26 -3t-25 3z" />
    <glyph glyph-name="dcaron" unicode="&#x10f;" horiz-adv-x="628" 
d="M456 7l-29 -11q-13 20 -17 55q-61 -61 -154 -61q-103 0 -154 71t-51 187t51.5 187.5t153.5 71.5q93 0 153 -60v255q15 0 35 4v-582q0 -92 12 -117zM409 72v354q-24 27 -64 44t-85 17q-168 0 -168 -239q0 -238 168 -238q45 0 85 17t64 45zM540 581q35 28 37 78h-2
q-12 0 -20 7t-8 19q0 27 25 27q29 0 29 -34q0 -39 -16.5 -69t-32.5 -38q-4 0 -8 3t-4 7z" />
    <glyph glyph-name="Dcroat" unicode="&#x110;" horiz-adv-x="641" 
d="M118 0v346h-81v24h81v330h142q163 0 242 -91t79 -258t-78.5 -259t-241.5 -92h-143zM155 21h105q277 0 277 330q0 328 -276 328h-106v-309h204v-24h-204v-325z" />
    <glyph glyph-name="dcroat" unicode="&#x111;" horiz-adv-x="526" 
d="M456 7l-29 -11q-13 20 -17 55q-61 -61 -154 -61q-103 0 -154 71t-51 187t51.5 187.5t153.5 71.5q93 0 153 -60v153h-175v21h175v81q15 0 35 4v-85h79v-21h-79v-476q0 -92 12 -117zM409 72v354q-24 27 -64 44t-85 17q-168 0 -168 -239q0 -238 168 -238q45 0 85 17t64 45z
" />
    <glyph glyph-name="Emacron" unicode="&#x112;" horiz-adv-x="500" 
d="M96 0v700h339v-23h-302v-305h278q1 -6 1 -12q0 -5 -1 -12h-278v-325h317v-23h-354zM148 784v24h244v-24h-244z" />
    <glyph glyph-name="emacron" unicode="&#x113;" horiz-adv-x="495" 
d="M92 264v-7q0 -119 44.5 -184t129.5 -65q103 0 141 102q21 -2 31 -11q-46 -109 -173 -109q-108 0 -160.5 73t-52.5 190q0 113 52 183.5t153 70.5q93 0 140 -60.5t47 -150.5q0 -20 -1 -32h-351zM93 284h311q0 205 -148 205q-74 0 -116 -53.5t-47 -151.5zM138 623v24h244
v-24h-244z" />
    <glyph glyph-name="Ebreve" unicode="&#x114;" horiz-adv-x="500" 
d="M96 0v700h339v-23h-302v-305h278q1 -6 1 -12q0 -5 -1 -12h-278v-325h317v-23h-354zM159 861q2 2 10 2q7 0 9 -2q5 -33 27.5 -55t65.5 -22t65 22t27 55q4 2 10 2q5 0 9 -2q-6 -49 -34.5 -76.5t-76.5 -27.5t-77 28t-35 76z" />
    <glyph glyph-name="ebreve" unicode="&#x115;" horiz-adv-x="495" 
d="M92 264v-7q0 -119 44.5 -184t129.5 -65q103 0 141 102q21 -2 31 -11q-46 -109 -173 -109q-108 0 -160.5 73t-52.5 190q0 113 52 183.5t153 70.5q93 0 140 -60.5t47 -150.5q0 -20 -1 -32h-351zM93 284h311q0 205 -148 205q-74 0 -116 -53.5t-47 -151.5zM146 697q2 2 10 2
q7 0 9 -2q14 -89 93 -89q78 0 92 89q4 2 10 2q5 0 9 -2q-13 -116 -111 -116q-49 0 -78 30.5t-34 85.5z" />
    <glyph glyph-name="Edotaccent" unicode="&#x116;" horiz-adv-x="500" 
d="M96 0v700h339v-23h-302v-305h278q1 -6 1 -12q0 -5 -1 -12h-278v-325h317v-23h-354zM264 774q-12 0 -20 8.5t-8 20.5t8 20.5t20 8.5t20 -8.5t8 -20.5t-8 -20.5t-20 -8.5z" />
    <glyph glyph-name="edotaccent" unicode="&#x117;" horiz-adv-x="495" 
d="M92 264v-7q0 -119 44.5 -184t129.5 -65q103 0 141 102q21 -2 31 -11q-46 -109 -173 -109q-108 0 -160.5 73t-52.5 190q0 113 52 183.5t153 70.5q93 0 140 -60.5t47 -150.5q0 -20 -1 -32h-351zM93 284h311q0 205 -148 205q-74 0 -116 -53.5t-47 -151.5zM260 613
q-12 0 -20 8t-8 20t8 20.5t20 8.5t19.5 -8.5t7.5 -20.5t-7.5 -20t-19.5 -8z" />
    <glyph glyph-name="Eogonek" unicode="&#x118;" horiz-adv-x="500" 
d="M96 0v700h339v-23h-302v-305h274q1 -6 1 -12t-1 -13h-274v-324h317v-23q-114 -57 -114 -145q0 -51 59 -51q35 0 56 16l6 -10q-23 -25 -71 -25q-81 0 -81 68q0 49 35 87t85 60h-329z" />
    <glyph glyph-name="eogonek" unicode="&#x119;" horiz-adv-x="495" 
d="M418 -180l6 -10q-25 -25 -73 -25q-81 0 -81 74q0 33 20.5 66t61.5 82q-37 -17 -87 -17q-108 0 -161 73t-53 190q0 113 52.5 183.5t153.5 70.5q93 0 140 -60.5t47 -150.5q0 -20 -1 -32h-351v-7q0 -119 44.5 -184t129.5 -65q103 0 141 102q21 -2 31 -11q-9 -24 -31 -52
q-6 -7 -21.5 -27l-21 -27t-17.5 -23.5t-16.5 -24l-12 -21t-10.5 -23t-5.5 -20.5t-2.5 -22q0 -55 59 -55q36 0 59 16zM93 284h311q0 205 -148 205q-74 0 -116 -53.5t-47 -151.5z" />
    <glyph glyph-name="Ecaron" unicode="&#x11a;" horiz-adv-x="500" 
d="M96 0v700h339v-23h-302v-305h278q1 -6 1 -12q0 -5 -1 -12h-278v-325h317v-23h-354zM247 751l-81 109q9 3 10 3q4 0 9 -3l86 -83h2l86 83q5 3 9 3q2 0 11 -3l-81 -109q-9 -3 -26 -3q-18 0 -25 3z" />
    <glyph glyph-name="ecaron" unicode="&#x11b;" horiz-adv-x="495" 
d="M92 264v-7q0 -119 44.5 -184t129.5 -65q103 0 141 102q21 -2 31 -11q-46 -109 -173 -109q-108 0 -160.5 73t-52.5 190q0 113 52 183.5t153 70.5q93 0 140 -60.5t47 -150.5q0 -20 -1 -32h-351zM93 284h311q0 205 -148 205q-74 0 -116 -53.5t-47 -151.5zM237 580l-83 128
q9 3 10 3q4 0 9 -3l89 -105h2l88 105q4 3 9 3q2 0 11 -3l-84 -128q-7 -3 -25 -3q-17 0 -26 3z" />
    <glyph glyph-name="Gcircumflex" unicode="&#x11c;" horiz-adv-x="651" 
d="M537 63v263h-174v23h209v-292q-76 -69 -214 -69q-151 0 -224 98t-73 265q0 163 73.5 262t209.5 99q171 0 227 -139q-9 -12 -31 -12q-46 130 -196 130q-118 0 -179.5 -89.5t-61.5 -250.5q0 -342 253 -342q127 0 181 54zM244 750l81 109q7 3 25 3q17 0 26 -3l81 -109
q-4 -3 -11 -3q-4 0 -9 3l-86 83h-2l-86 -83q-5 -3 -9 -3q-6 0 -10 3z" />
    <glyph glyph-name="gcircumflex" unicode="&#x11d;" horiz-adv-x="502" 
d="M223 49h78q92 0 131.5 -25.5t39.5 -73.5q0 -69 -59 -115t-173 -46q-100 0 -152 36.5t-52 96.5q0 72 77 109q-48 21 -48 64q0 50 66 90q-62 49 -62 142q0 83 49.5 131.5t130.5 48.5q36 0 66 -10h161v-19h-128q33 -19 57 -58.5t24 -92.5q0 -81 -49.5 -130t-130.5 -49
q-60 0 -105 28q-47 -31 -47 -72q0 -28 27.5 -41.5t98.5 -13.5zM249 166q68 0 105 43.5t37 117.5t-37 118t-105 44q-67 0 -104.5 -44.5t-37.5 -118.5t37 -117t105 -43zM295 17h-90q-47 0 -77 9q-55 -39 -55 -100q0 -117 173 -117q94 0 144.5 36t50.5 95q0 41 -31.5 59
t-114.5 18zM144 581l83 128q9 3 26 3t25 -3l84 -128q-4 -3 -11 -3q-5 0 -9 3l-88 105h-2l-89 -105q-5 -3 -9 -3q-6 0 -10 3z" />
    <glyph glyph-name="Gbreve" unicode="&#x11e;" horiz-adv-x="651" 
d="M537 63v263h-174v23h209v-292q-76 -69 -214 -69q-151 0 -224 98t-73 265q0 163 73.5 262t209.5 99q171 0 227 -139q-9 -12 -31 -12q-46 130 -196 130q-118 0 -179.5 -89.5t-61.5 -250.5q0 -342 253 -342q127 0 181 54zM240 861q2 2 10 2q7 0 9 -2q5 -33 27.5 -55
t65.5 -22t65 22t27 55q4 2 10 2q5 0 9 -2q-6 -49 -34.5 -76.5t-76.5 -27.5t-77 28t-35 76z" />
    <glyph glyph-name="gbreve" unicode="&#x11f;" horiz-adv-x="502" 
d="M223 49h78q92 0 131.5 -25.5t39.5 -73.5q0 -69 -59 -115t-173 -46q-100 0 -152 36.5t-52 96.5q0 72 77 109q-48 21 -48 64q0 50 66 90q-62 49 -62 142q0 83 49.5 131.5t130.5 48.5q36 0 66 -10h161v-19h-128q33 -19 57 -58.5t24 -92.5q0 -81 -49.5 -130t-130.5 -49
q-60 0 -105 28q-47 -31 -47 -72q0 -28 27.5 -41.5t98.5 -13.5zM249 166q68 0 105 43.5t37 117.5t-37 118t-105 44q-67 0 -104.5 -44.5t-37.5 -118.5t37 -117t105 -43zM295 17h-90q-47 0 -77 9q-55 -39 -55 -100q0 -117 173 -117q94 0 144.5 36t50.5 95q0 41 -31.5 59
t-114.5 18zM143 697q2 2 10 2q7 0 9 -2q14 -89 93 -89q78 0 92 89q4 2 10 2q5 0 9 -2q-13 -116 -111 -116q-49 0 -78 30.5t-34 85.5z" />
    <glyph glyph-name="Gdotaccent" unicode="&#x120;" horiz-adv-x="651" 
d="M537 63v263h-174v23h209v-292q-76 -69 -214 -69q-151 0 -224 98t-73 265q0 163 73.5 262t209.5 99q171 0 227 -139q-9 -12 -31 -12q-46 130 -196 130q-118 0 -179.5 -89.5t-61.5 -250.5q0 -342 253 -342q127 0 181 54zM351 774q-12 0 -20 8.5t-8 20.5t8 20.5t20 8.5
t20 -8.5t8 -20.5t-8 -20.5t-20 -8.5z" />
    <glyph glyph-name="gdotaccent" unicode="&#x121;" horiz-adv-x="502" 
d="M223 49h78q92 0 131.5 -25.5t39.5 -73.5q0 -69 -59 -115t-173 -46q-100 0 -152 36.5t-52 96.5q0 72 77 109q-48 21 -48 64q0 50 66 90q-62 49 -62 142q0 83 49.5 131.5t130.5 48.5q36 0 66 -10h161v-19h-128q33 -19 57 -58.5t24 -92.5q0 -81 -49.5 -130t-130.5 -49
q-60 0 -105 28q-47 -31 -47 -72q0 -28 27.5 -41.5t98.5 -13.5zM249 166q68 0 105 43.5t37 117.5t-37 118t-105 44q-67 0 -104.5 -44.5t-37.5 -118.5t37 -117t105 -43zM295 17h-90q-47 0 -77 9q-55 -39 -55 -100q0 -117 173 -117q94 0 144.5 36t50.5 95q0 41 -31.5 59
t-114.5 18zM254 613q-12 0 -20 8t-8 20t8 20.5t20 8.5t19.5 -8.5t7.5 -20.5t-7.5 -20t-19.5 -8z" />
    <glyph glyph-name="Gcommaaccent" unicode="&#x122;" horiz-adv-x="651" 
d="M537 63v263h-174v23h209v-292q-76 -69 -214 -69q-151 0 -224 98t-73 265q0 163 73.5 262t209.5 99q171 0 227 -139q-9 -12 -31 -12q-46 130 -196 130q-118 0 -179.5 -89.5t-61.5 -250.5q0 -342 253 -342q127 0 181 54zM307 -199q19 13 30.5 36.5t12.5 43.5
q-14 0 -23.5 8.5t-9.5 21.5t7.5 21.5t20.5 8.5q32 0 32 -37q0 -40 -19 -72t-37 -39q-11 0 -14 8z" />
    <glyph glyph-name="gcommaaccent" unicode="&#x123;" horiz-adv-x="502" 
d="M223 49h78q92 0 131.5 -25.5t39.5 -73.5q0 -69 -59 -115t-173 -46q-100 0 -152 36.5t-52 96.5q0 72 77 109q-48 21 -48 64q0 50 66 90q-62 49 -62 142q0 83 49.5 131.5t130.5 48.5q36 0 66 -10h161v-19h-128q33 -19 57 -58.5t24 -92.5q0 -81 -49.5 -130t-130.5 -49
q-60 0 -105 28q-47 -31 -47 -72q0 -28 27.5 -41.5t98.5 -13.5zM249 166q68 0 105 43.5t37 117.5t-37 118t-105 44q-67 0 -104.5 -44.5t-37.5 -118.5t37 -117t105 -43zM295 17h-90q-47 0 -77 9q-55 -39 -55 -100q0 -117 173 -117q94 0 144.5 36t50.5 95q0 41 -31.5 59
t-114.5 18zM276 739q4 0 8.5 -3.5t5.5 -7.5q-19 -14 -31 -37.5t-12 -42.5h2q13 0 22 -9t9 -21t-8 -21t-20 -9q-16 0 -24.5 10.5t-8.5 27.5q0 40 19.5 73t37.5 40z" />
    <glyph glyph-name="Hcircumflex" unicode="&#x124;" horiz-adv-x="666" 
d="M96 0v700h37v-315h400v315h37v-700h-37v361h-400v-361h-37zM237 750l81 109q8 3 25 3t26 -3l81 -109q-4 -3 -11 -3q-5 0 -9 3l-86 83h-2l-86 -83q-4 -3 -9 -3t-10 3z" />
    <glyph glyph-name="hcircumflex" unicode="&#x125;" horiz-adv-x="521" 
d="M82 0v702q15 0 35 4v-269q24 28 67 49t97 21q160 0 160 -191v-215q0 -90 5 -101h-40v303q0 90 -29 136.5t-104 46.5q-50 0 -91.5 -21t-64.5 -48v-417h-35zM159 750l81 109q8 3 25 3t26 -3l81 -109q-4 -3 -11 -3q-5 0 -9 3l-86 83h-2l-86 -83q-4 -3 -9 -3t-10 3z" />
    <glyph glyph-name="Hbar" unicode="&#x126;" horiz-adv-x="666" 
d="M96 0v552h-50v24h50v124h37v-124h400v124h37v-124h50v-24h-50v-552h-37v361h-400v-361h-37zM133 385h400v167h-400v-167z" />
    <glyph glyph-name="hbar" unicode="&#x127;" horiz-adv-x="521" 
d="M82 0v600h-76v21h76v81q15 0 35 4v-85h178v-21h-178v-163q24 28 67 49t97 21q160 0 160 -191v-215q0 -90 5 -101h-40v303q0 90 -29 136.5t-104 46.5q-50 0 -91.5 -21t-64.5 -48v-417h-35z" />
    <glyph glyph-name="Itilde" unicode="&#x128;" horiz-adv-x="229" 
d="M96 0v700h37v-700h-37zM-31 766q16 40 34 61t28.5 24t25.5 3q27 0 66 -30.5t62 -30.5q34 0 61 60q3 1 11 1q6 0 9 -1q-23 -55 -42.5 -71.5t-40.5 -16.5q-26 0 -66.5 31.5t-62.5 31.5t-39 -19.5t-26 -42.5q-6 -2 -10 -2t-10 2z" />
    <glyph glyph-name="itilde" unicode="&#x129;" horiz-adv-x="199" 
d="M82 0v497q15 0 35 4v-400q0 -90 6 -101h-41zM-48 604q16 40 34 61t28.5 24t25.5 3q27 0 66 -30.5t62 -30.5q34 0 61 60q3 1 11 1q6 0 9 -1q-23 -55 -42.5 -71.5t-40.5 -16.5q-26 0 -66.5 31.5t-62.5 31.5t-39 -19.5t-26 -42.5q-6 -2 -10 -2t-10 2z" />
    <glyph glyph-name="Imacron" unicode="&#x12a;" horiz-adv-x="229" 
d="M96 0v700h37v-700h-37zM-8 784v24h244v-24h-244z" />
    <glyph glyph-name="imacron" unicode="&#x12b;" horiz-adv-x="199" 
d="M82 0v497q15 0 35 4v-400q0 -90 6 -101h-41zM-22 623v24h244v-24h-244z" />
    <glyph glyph-name="Ibreve" unicode="&#x12c;" horiz-adv-x="229" 
d="M96 0v700h37v-700h-37zM2 861q2 2 10 2q7 0 9 -2q5 -33 27.5 -55t65.5 -22t65 22t27 55q4 2 10 2q5 0 9 -2q-6 -49 -34.5 -76.5t-76.5 -27.5t-77 28t-35 76z" />
    <glyph glyph-name="ibreve" unicode="&#x12d;" horiz-adv-x="199" 
d="M82 0v497q15 0 35 4v-400q0 -90 6 -101h-41zM-12 697q2 2 10 2q7 0 9 -2q14 -89 93 -89q78 0 92 89q4 2 10 2q5 0 9 -2q-13 -116 -111 -116q-49 0 -78 30.5t-34 85.5z" />
    <glyph glyph-name="Iogonek" unicode="&#x12e;" horiz-adv-x="229" 
d="M133 -180l6 -10q-23 -25 -71 -25q-81 0 -81 68q0 49 35 87t85 60h-11v700h37v-700h-1q-114 -57 -114 -145q0 -51 59 -51q35 0 56 16z" />
    <glyph glyph-name="iogonek" unicode="&#x12f;" horiz-adv-x="199" 
d="M123 -180l7 -10q-25 -25 -71 -25q-81 0 -81 68q0 49 34.5 87t85.5 60h-16v497q15 0 35 4v-400q0 -90 6 -101q-115 -57 -115 -145q0 -51 59 -51q35 0 56 16zM100 614q-12 0 -19.5 8t-7.5 19q0 12 7.5 20.5t19.5 8.5t19.5 -8.5t7.5 -20.5q0 -11 -7.5 -19t-19.5 -8z" />
    <glyph glyph-name="Idotaccent" unicode="&#x130;" horiz-adv-x="229" 
d="M96 0v700h37v-700h-37zM114 774q-12 0 -20 8.5t-8 20.5t8 20.5t20 8.5t20 -8.5t8 -20.5t-8 -20.5t-20 -8.5z" />
    <glyph glyph-name="dotlessi" unicode="&#x131;" horiz-adv-x="199" 
d="M82 0v497q15 0 35 4v-400q0 -90 6 -101h-41z" />
    <glyph glyph-name="IJ" unicode="&#x132;" horiz-adv-x="593" 
d="M96 0v700h37v-700h-37zM464 147v553h36v-561q0 -78 -39.5 -113.5t-120.5 -35.5q-68 0 -90 11q-1 3 -1 10q0 11 3 18q34 -17 90 -17q67 0 94.5 30.5t27.5 104.5z" />
    <glyph glyph-name="ij" unicode="&#x133;" horiz-adv-x="386" 
d="M100 614q-12 0 -19.5 8t-7.5 19q0 12 7.5 20.5t19.5 8.5t19.5 -8.5t7.5 -20.5q0 -11 -7.5 -19t-19.5 -8zM82 0v497q15 0 35 4v-400q0 -90 6 -101h-41zM269 -69v566q15 0 35 4v-581q0 -68 -24 -95.5t-81 -27.5q-27 0 -41 4q-2 2 -2 9q0 10 3 15q16 -7 42 -7q44 0 56 24.5
t12 88.5zM287 614q-12 0 -19.5 8t-7.5 19q0 12 7.5 20.5t19.5 8.5t19.5 -8.5t7.5 -20.5q0 -11 -7.5 -19t-19.5 -8z" />
    <glyph glyph-name="Jcircumflex" unicode="&#x134;" horiz-adv-x="376" 
d="M247 147v553h36v-561q0 -78 -39.5 -113.5t-120.5 -35.5q-68 0 -90 11q-1 3 -1 10q0 11 3 18q34 -17 90 -17q67 0 94.5 30.5t27.5 104.5zM157 750l81 109q8 3 25 3t26 -3l81 -109q-4 -3 -11 -3q-5 0 -9 3l-86 83h-2l-86 -83q-4 -3 -9 -3t-10 3z" />
    <glyph glyph-name="jcircumflex" unicode="&#x135;" horiz-adv-x="199" 
d="M82 -69v566q15 0 35 4v-581q0 -68 -24 -95.5t-81 -27.5q-27 0 -41 4q-2 2 -2 9q0 10 3 15q16 -7 42 -7q44 0 56 24.5t12 88.5zM-9 581l83 128q9 3 26 3q18 0 25 -3l84 -128q-4 -3 -11 -3q-4 0 -9 3l-88 105h-2l-89 -105q-4 -3 -9 -3t-10 3z" />
    <glyph glyph-name="Kcommaaccent" unicode="&#x136;" horiz-adv-x="521" 
d="M96 0v700h37v-334h2l317 334h36v-4l-315 -328l321 -364v-4h-43l-316 359h-2v-359h-37zM237 -199q19 13 30.5 36.5t12.5 43.5q-14 0 -23.5 8.5t-9.5 21.5t7.5 21.5t20.5 8.5q32 0 32 -37q0 -40 -19 -72t-37 -39q-11 0 -14 8z" />
    <glyph glyph-name="kcommaaccent" unicode="&#x137;" horiz-adv-x="409" 
d="M82 0v702q15 0 35 4v-421h1l227 212h35v-3l-224 -208l227 -282v-4h-39l-226 282h-1v-282h-35zM171 -199q19 13 30.5 36.5t12.5 43.5q-14 0 -23.5 8.5t-9.5 21.5t7.5 21.5t20.5 8.5q32 0 32 -37q0 -40 -19 -72t-37 -39q-11 0 -14 8z" />
    <glyph glyph-name="kgreenlandic" unicode="&#x138;" horiz-adv-x="409" 
d="M82 0v497q15 0 35 4v-246h1l227 242h35v-3l-224 -238l227 -252v-4h-39l-226 252h-1v-252h-35z" />
    <glyph glyph-name="Lacute" unicode="&#x139;" horiz-adv-x="472" 
d="M96 0v700h37v-677h314v-23h-351zM107 752l55 107q9 3 25 3q17 0 26 -3l-88 -107q-5 -3 -9 -3t-9 3z" />
    <glyph glyph-name="lacute" unicode="&#x13a;" horiz-adv-x="199" 
d="M82 0v702q15 0 35 4v-605q0 -90 6 -101h-41zM86 752l55 107q9 3 25 3q17 0 26 -3l-88 -107q-4 -3 -9 -3t-9 3z" />
    <glyph glyph-name="Lcommaaccent" unicode="&#x13b;" horiz-adv-x="472" 
d="M96 0v700h37v-677h314v-23h-351zM233 -199q19 13 30.5 36.5t12.5 43.5q-14 0 -23.5 8.5t-9.5 21.5t7.5 21.5t20.5 8.5q32 0 32 -37q0 -40 -19 -72t-37 -39q-11 0 -14 8z" />
    <glyph glyph-name="lcommaaccent" unicode="&#x13c;" horiz-adv-x="199" 
d="M82 0v702q15 0 35 4v-605q0 -90 6 -101h-41zM64 -199q19 13 30.5 36.5t12.5 43.5q-14 0 -23.5 8.5t-9.5 21.5t7.5 21.5t20.5 8.5q32 0 32 -37q0 -40 -19 -72t-37 -39q-11 0 -14 8z" />
    <glyph glyph-name="Lcaron" unicode="&#x13d;" horiz-adv-x="472" 
d="M96 0v700h37v-677h314v-23h-351zM254 581q35 28 37 78h-2q-12 0 -20 7t-8 19q0 27 25 27q29 0 29 -34q0 -39 -16.5 -69t-32.5 -38q-4 0 -8 3t-4 7z" />
    <glyph glyph-name="lcaron" unicode="&#x13e;" horiz-adv-x="302" 
d="M82 0v702q15 0 35 4v-605q0 -90 6 -101h-41zM214 581q35 28 37 78h-2q-12 0 -20 7t-8 19q0 27 25 27q29 0 29 -34q0 -39 -16.5 -69t-32.5 -38q-4 0 -8 3t-4 7z" />
    <glyph glyph-name="Ldot" unicode="&#x13f;" horiz-adv-x="472" 
d="M96 0v700h37v-677h314v-23h-351zM308 339q-12 0 -20 8t-8 20t8 20.5t20 8.5t19.5 -8.5t7.5 -20.5t-7.5 -20t-19.5 -8z" />
    <glyph glyph-name="ldot" unicode="&#x140;" horiz-adv-x="319" 
d="M82 0v702q15 0 35 4v-605q0 -90 6 -101h-41zM254 344q-12 0 -20 8t-8 20t8 20.5t20 8.5t19.5 -8.5t7.5 -20.5t-7.5 -20t-19.5 -8z" />
    <glyph glyph-name="Lslash" unicode="&#x141;" horiz-adv-x="501" 
d="M125 0v269l-78 -48v26l78 48v405h37v-386l179 111v-28l-179 -109v-264h314v-24h-351z" />
    <glyph glyph-name="lslash" unicode="&#x142;" horiz-adv-x="306" 
d="M135 0v392l-98 -61v22l98 61v288q15 0 35 4v-270l99 61v-23l-99 -60v-313q0 -90 6 -101h-41z" />
    <glyph glyph-name="Nacute" unicode="&#x143;" horiz-adv-x="679" 
d="M96 0v700h38l316 -478q79 -119 103 -169h2q-3 81 -3 226v421h31v-700h-25l-305 463q-108 162 -126 201h-2q3 -60 3 -242v-422h-32zM349 752l55 107q9 3 25 3q17 0 26 -3l-88 -107q-5 -3 -9 -3t-9 3z" />
    <glyph glyph-name="nacute" unicode="&#x144;" horiz-adv-x="521" 
d="M82 0v497q13 0 33 4v-67q23 29 67 51t100 22q159 0 159 -191v-215q0 -90 5 -101h-40v303q0 90 -29 136.5t-104 46.5q-50 0 -91.5 -21t-64.5 -48v-417h-35zM243 581l63 128q9 3 26 3q16 0 25 -3l-96 -128q-5 -3 -9 -3t-9 3z" />
    <glyph glyph-name="Ncommaaccent" unicode="&#x145;" horiz-adv-x="679" 
d="M96 0v700h38l316 -478q79 -119 103 -169h2q-3 81 -3 226v421h31v-700h-25l-305 463q-108 162 -126 201h-2q3 -60 3 -242v-422h-32zM316 -199q19 13 30.5 36.5t12.5 43.5q-14 0 -23.5 8.5t-9.5 21.5t7.5 21.5t20.5 8.5q32 0 32 -37q0 -40 -19 -72t-37 -39q-11 0 -14 8z
" />
    <glyph glyph-name="ncommaaccent" unicode="&#x146;" horiz-adv-x="521" 
d="M82 0v497q13 0 33 4v-67q23 29 67 51t100 22q159 0 159 -191v-215q0 -90 5 -101h-40v303q0 90 -29 136.5t-104 46.5q-50 0 -91.5 -21t-64.5 -48v-417h-35zM224 -199q19 13 30.5 36.5t12.5 43.5q-14 0 -23.5 8.5t-9.5 21.5t7.5 21.5t20.5 8.5q32 0 32 -37q0 -40 -19 -72
t-37 -39q-11 0 -14 8z" />
    <glyph glyph-name="Ncaron" unicode="&#x147;" horiz-adv-x="679" 
d="M96 0v700h38l316 -478q79 -119 103 -169h2q-3 81 -3 226v421h31v-700h-25l-305 463q-108 162 -126 201h-2q3 -60 3 -242v-422h-32zM336 751l-81 109q9 3 10 3q5 0 9 -3l86 -83h2l86 83q4 3 9 3q2 0 11 -3l-81 -109q-9 -3 -26 -3t-25 3z" />
    <glyph glyph-name="ncaron" unicode="&#x148;" horiz-adv-x="521" 
d="M82 0v497q13 0 33 4v-67q23 29 67 51t100 22q159 0 159 -191v-215q0 -90 5 -101h-40v303q0 90 -29 136.5t-104 46.5q-50 0 -91.5 -21t-64.5 -48v-417h-35zM241 580l-83 128q9 3 10 3q4 0 9 -3l89 -105h2l88 105q4 3 9 3q2 0 11 -3l-84 -128q-8 -3 -25 -3t-26 3z" />
    <glyph glyph-name="napostrophe" unicode="&#x149;" horiz-adv-x="521" 
d="M82 0v497q13 0 33 4v-67q23 29 67 51t100 22q159 0 159 -191v-215q0 -90 5 -101h-40v303q0 90 -29 136.5t-104 46.5q-50 0 -91.5 -21t-64.5 -48v-417h-35zM32 566q19 13 30.5 36.5t12.5 43.5q-14 0 -23.5 8.5t-9.5 21.5t7.5 21.5t20.5 8.5q32 0 32 -37q0 -40 -19 -72
t-37 -39q-11 0 -14 8z" />
    <glyph glyph-name="Eng" unicode="&#x14a;" horiz-adv-x="679" 
d="M96 0v700h38l316 -478q79 -119 103 -169h2q-3 81 -3 226v421h31v-780q0 -68 -24 -95.5t-81 -27.5q-27 0 -41 4q-2 2 -2 9q0 10 3 15q16 -7 42 -7q44 0 58 25t14 88v78l-299 454q-108 162 -126 201h-2q3 -60 3 -242v-422h-32z" />
    <glyph glyph-name="eng" unicode="&#x14b;" horiz-adv-x="523" 
d="M82 0v497q11 0 33 4v-67q23 29 67 51t100 22q159 0 159 -191v-396q0 -68 -24.5 -95.5t-82.5 -27.5q-31 0 -39 4q-1 4 -1 10q0 10 2 14q18 -8 42 -8q44 0 56 25.5t12 93.5v367q0 90 -29 136.5t-104 46.5q-50 0 -91.5 -20.5t-64.5 -48.5v-417h-35z" />
    <glyph glyph-name="Omacron" unicode="&#x14c;" horiz-adv-x="691" 
d="M344 -12q-136 0 -209.5 100t-73.5 263t73.5 262t209.5 99q137 0 211.5 -99.5t74.5 -261.5q0 -163 -75 -263t-211 -100zM344 9q118 0 180.5 90.5t62.5 251.5t-62.5 250.5t-180.5 89.5t-179.5 -89.5t-61.5 -250.5t62 -251.5t179 -90.5zM224 784v24h244v-24h-244z" />
    <glyph glyph-name="omacron" unicode="&#x14d;" horiz-adv-x="544" 
d="M271 -10q-107 0 -163 71.5t-56 187.5q0 115 56 186.5t163 71.5q109 0 165 -71.5t56 -186.5t-56.5 -187t-164.5 -72zM271 8q93 0 136.5 66t43.5 175t-43.5 174.5t-136.5 65.5q-92 0 -135 -65.5t-43 -175.5q0 -109 43 -174.5t135 -65.5zM150 623v24h244v-24h-244z" />
    <glyph glyph-name="Obreve" unicode="&#x14e;" horiz-adv-x="691" 
d="M344 -12q-136 0 -209.5 100t-73.5 263t73.5 262t209.5 99q137 0 211.5 -99.5t74.5 -261.5q0 -163 -75 -263t-211 -100zM344 9q118 0 180.5 90.5t62.5 251.5t-62.5 250.5t-180.5 89.5t-179.5 -89.5t-61.5 -250.5t62 -251.5t179 -90.5zM234 861q2 2 10 2q7 0 9 -2
q5 -33 27.5 -55t65.5 -22t65 22t27 55q4 2 10 2q5 0 9 -2q-6 -49 -34.5 -76.5t-76.5 -27.5t-77 28t-35 76z" />
    <glyph glyph-name="obreve" unicode="&#x14f;" horiz-adv-x="544" 
d="M271 -10q-107 0 -163 71.5t-56 187.5q0 115 56 186.5t163 71.5q109 0 165 -71.5t56 -186.5t-56.5 -187t-164.5 -72zM271 8q93 0 136.5 66t43.5 175t-43.5 174.5t-136.5 65.5q-92 0 -135 -65.5t-43 -175.5q0 -109 43 -174.5t135 -65.5zM159 697q2 2 10 2q7 0 9 -2
q14 -89 93 -89q78 0 92 89q4 2 10 2q5 0 9 -2q-13 -116 -111 -116q-49 0 -78 30.5t-34 85.5z" />
    <glyph glyph-name="Ohungarumlaut" unicode="&#x150;" horiz-adv-x="691" 
d="M344 -12q-136 0 -209.5 100t-73.5 263t73.5 262t209.5 99q137 0 211.5 -99.5t74.5 -261.5q0 -163 -75 -263t-211 -100zM344 9q118 0 180.5 90.5t62.5 251.5t-62.5 250.5t-180.5 89.5t-179.5 -89.5t-61.5 -250.5t62 -251.5t179 -90.5zM270 752l37 108q9 3 27 3q17 0 26 -3
l-72 -108q-4 -3 -9 -3t-9 3zM394 752l52 108q9 3 26 3q18 0 27 -3l-85 -108q-4 -3 -10 -3q-7 0 -10 3z" />
    <glyph glyph-name="ohungarumlaut" unicode="&#x151;" horiz-adv-x="544" 
d="M271 -10q-107 0 -163 71.5t-56 187.5q0 115 56 186.5t163 71.5q109 0 165 -71.5t56 -186.5t-56.5 -187t-164.5 -72zM271 8q93 0 136.5 66t43.5 175t-43.5 174.5t-136.5 65.5q-92 0 -135 -65.5t-43 -175.5q0 -109 43 -174.5t135 -65.5zM199 581l43 128q9 3 27 3
q17 0 26 -3l-78 -128q-5 -3 -9 -3t-9 3zM313 581l58 128q9 3 26 3q18 0 27 -3l-91 -128q-5 -3 -10 -3q-7 0 -10 3z" />
    <glyph glyph-name="OE" unicode="&#x152;" horiz-adv-x="843" 
d="M475 23h318v-23h-354q-43 -12 -95 -12q-134 0 -209 100.5t-75 262.5q0 161 75 261t209 100q50 0 95 -12h339v-23h-303v-305h275q0 -2 0.5 -6.5t0.5 -7.5q0 -8 -1 -11h-275v-324zM439 19v662q-36 10 -95 10q-115 0 -178 -90.5t-63 -249.5q0 -160 63 -251t178 -91
q54 0 95 10z" />
    <glyph glyph-name="oe" unicode="&#x153;" horiz-adv-x="896" 
d="M492 264v-7q0 -119 44 -184t130 -65q104 0 141 104q20 -3 31 -14q-51 -108 -173 -108q-148 0 -193 142q-23 -66 -74 -104t-127 -38q-106 0 -162.5 72t-56.5 187t56.5 186.5t162.5 71.5q150 0 200 -139q44 139 186 139q93 0 140 -60.5t47 -150.5q0 -20 -1 -32h-351zM271 8
q91 0 135.5 66.5t44.5 174.5t-44.5 174t-135.5 66t-134.5 -66t-43.5 -175q0 -108 43.5 -174t134.5 -66zM493 284h310q0 205 -148 205q-74 0 -115.5 -53.5t-46.5 -151.5z" />
    <glyph glyph-name="Racute" unicode="&#x154;" horiz-adv-x="529" 
d="M96 0v700h110q133 0 193 -49t60 -145q0 -149 -155 -188l177 -314v-4h-39l-174 312q-27 -4 -68 -4h-67v-308h-37zM133 329h75q110 0 159 44.5t49 133.5t-49 130.5t-161 41.5h-73v-350zM249 752l55 107q9 3 25 3q17 0 26 -3l-88 -107q-5 -3 -9 -3t-9 3z" />
    <glyph glyph-name="racute" unicode="&#x155;" horiz-adv-x="300" 
d="M82 0v497q13 0 33 4v-64h1q14 22 50 45t81 23q15 0 24 -2q2 -4 2 -13q0 -12 -2 -18q-10 2 -31 2q-37 0 -66 -12t-40.5 -23t-16.5 -21v-317q0 -90 6 -101h-41zM156 581l63 128q9 3 26 3q16 0 25 -3l-96 -128q-4 -3 -9 -3t-9 3z" />
    <glyph glyph-name="Rcommaaccent" unicode="&#x156;" horiz-adv-x="529" 
d="M96 0v700h110q133 0 193 -49t60 -145q0 -149 -155 -188l177 -314v-4h-39l-174 312q-27 -4 -68 -4h-67v-308h-37zM133 329h75q110 0 159 44.5t49 133.5t-49 130.5t-161 41.5h-73v-350zM238 -199q19 13 30.5 36.5t12.5 43.5q-14 0 -23.5 8.5t-9.5 21.5t7.5 21.5t20.5 8.5
q32 0 32 -37q0 -40 -19 -72t-37 -39q-11 0 -14 8z" />
    <glyph glyph-name="rcommaaccent" unicode="&#x157;" horiz-adv-x="300" 
d="M82 0v497q13 0 33 4v-64h1q14 22 50 45t81 23q15 0 24 -2q2 -4 2 -13q0 -12 -2 -18q-10 2 -31 2q-37 0 -66 -12t-40.5 -23t-16.5 -21v-317q0 -90 6 -101h-41zM60 -199q19 13 30.5 36.5t12.5 43.5q-14 0 -23.5 8.5t-9.5 21.5t7.5 21.5t20.5 8.5q32 0 32 -37q0 -40 -19 -72
t-37 -39q-11 0 -14 8z" />
    <glyph glyph-name="Rcaron" unicode="&#x158;" horiz-adv-x="529" 
d="M96 0v700h110q133 0 193 -49t60 -145q0 -149 -155 -188l177 -314v-4h-39l-174 312q-27 -4 -68 -4h-67v-308h-37zM133 329h75q110 0 159 44.5t49 133.5t-49 130.5t-161 41.5h-73v-350zM238 751l-81 109q9 3 10 3q5 0 9 -3l86 -83h2l86 83q4 3 9 3q2 0 11 -3l-81 -109
q-9 -3 -26 -3t-25 3z" />
    <glyph glyph-name="rcaron" unicode="&#x159;" horiz-adv-x="300" 
d="M82 0v497q13 0 33 4v-64h1q14 22 50 45t81 23q15 0 24 -2q2 -4 2 -13q0 -12 -2 -18q-10 2 -31 2q-37 0 -66 -12t-40.5 -23t-16.5 -21v-317q0 -90 6 -101h-41zM153 580l-83 128q9 3 10 3q4 0 9 -3l89 -105h2l88 105q4 3 9 3q2 0 11 -3l-84 -128q-7 -3 -25 -3q-17 0 -26 3z
" />
    <glyph glyph-name="Sacute" unicode="&#x15a;" horiz-adv-x="533" 
d="M45 131q10 13 36 16q8 -25 18.5 -44t31.5 -43t56.5 -37.5t82.5 -13.5q76 0 121 46.5t45 123.5q0 27 -6 48.5t-21 39t-27 29t-38 24t-39.5 18l-44.5 17.5q-35 13 -54.5 21.5t-47.5 25t-42.5 33t-25.5 43.5t-11 59q0 74 53.5 124.5t140.5 50.5q47 0 84.5 -13t59 -34
t33.5 -40.5t18 -39.5q-6 -9 -33 -11q-7 20 -14 34t-25 36t-49.5 34.5t-73.5 12.5q-71 0 -113.5 -39.5t-42.5 -113.5q0 -33 12.5 -58t37.5 -43t49 -29.5t61 -25.5q7 -3 11 -4q43 -17 69.5 -29.5t57 -35.5t45.5 -56t15 -77q0 -78 -53.5 -135t-153.5 -57q-169 0 -223 143z
M252 752l55 107q9 3 25 3q17 0 26 -3l-88 -107q-4 -3 -9 -3t-9 3z" />
    <glyph glyph-name="sacute" unicode="&#x15b;" horiz-adv-x="430" 
d="M45 93q9 11 30 16q35 -101 141 -101q58 0 91.5 31.5t33.5 82.5q0 26 -9.5 46t-30.5 34t-39 22t-48 19q-28 10 -37 13.5t-32.5 14t-33 19l-23 21.5t-18.5 30t-5 37q0 55 41 92t114 37q68 0 104.5 -28t49.5 -60q-6 -9 -29 -14q-6 17 -16.5 33.5t-40 33.5t-69.5 17
q-57 0 -89 -28t-32 -78q0 -23 9.5 -40t30.5 -30t37.5 -20t47.5 -18q37 -13 56 -21.5t45.5 -26t38.5 -41.5t12 -57q0 -58 -42.5 -98.5t-116.5 -40.5q-67 0 -111.5 30.5t-59.5 72.5zM204 581l63 128q9 3 26 3q16 0 25 -3l-96 -128q-4 -3 -9 -3t-9 3z" />
    <glyph glyph-name="Scircumflex" unicode="&#x15c;" horiz-adv-x="533" 
d="M45 131q10 13 36 16q8 -25 18.5 -44t31.5 -43t56.5 -37.5t82.5 -13.5q76 0 121 46.5t45 123.5q0 27 -6 48.5t-21 39t-27 29t-38 24t-39.5 18l-44.5 17.5q-35 13 -54.5 21.5t-47.5 25t-42.5 33t-25.5 43.5t-11 59q0 74 53.5 124.5t140.5 50.5q47 0 84.5 -13t59 -34
t33.5 -40.5t18 -39.5q-6 -9 -33 -11q-7 20 -14 34t-25 36t-49.5 34.5t-73.5 12.5q-71 0 -113.5 -39.5t-42.5 -113.5q0 -33 12.5 -58t37.5 -43t49 -29.5t61 -25.5q7 -3 11 -4q43 -17 69.5 -29.5t57 -35.5t45.5 -56t15 -77q0 -78 -53.5 -135t-153.5 -57q-169 0 -223 143z
M174 750l81 109q7 3 25 3q17 0 26 -3l81 -109q-5 -3 -11 -3q-4 0 -9 3l-86 83h-2l-86 -83q-5 -3 -9 -3q-6 0 -10 3z" />
    <glyph glyph-name="scircumflex" unicode="&#x15d;" horiz-adv-x="430" 
d="M45 93q9 11 30 16q35 -101 141 -101q58 0 91.5 31.5t33.5 82.5q0 26 -9.5 46t-30.5 34t-39 22t-48 19q-28 10 -37 13.5t-32.5 14t-33 19l-23 21.5t-18.5 30t-5 37q0 55 41 92t114 37q68 0 104.5 -28t49.5 -60q-6 -9 -29 -14q-6 17 -16.5 33.5t-40 33.5t-69.5 17
q-57 0 -89 -28t-32 -78q0 -23 9.5 -40t30.5 -30t37.5 -20t47.5 -18q37 -13 56 -21.5t45.5 -26t38.5 -41.5t12 -57q0 -58 -42.5 -98.5t-116.5 -40.5q-67 0 -111.5 30.5t-59.5 72.5zM111 581l83 128q9 3 26 3q18 0 25 -3l84 -128q-5 -3 -11 -3q-4 0 -9 3l-88 105h-2l-89 -105
q-4 -3 -9 -3t-10 3z" />
    <glyph glyph-name="Scedilla" unicode="&#x15e;" horiz-adv-x="533" 
d="M199 -188l4 15q20 -16 57 -16q55 0 55 48q0 27 -20 39t-65 22l20 69q-155 7 -205 142q11 13 35 16q47 -138 194 -138q74 0 118 47t44 123q0 27 -6 48.5t-21 39t-27 29t-38 24t-39.5 18l-44.5 17.5q-35 13 -54.5 21.5t-47.5 25t-42.5 33t-25.5 43.5t-11 59
q0 74 53.5 124.5t140.5 50.5q47 0 84.5 -13t59 -34t33.5 -40.5t18 -39.5q-6 -9 -33 -11q-7 20 -14 34t-25 36t-49.5 34.5t-73.5 12.5q-71 0 -113.5 -39.5t-42.5 -113.5q0 -33 12.5 -58t37.5 -43t49 -29.5t61 -25.5q7 -3 11 -4q43 -17 69.5 -29.5t57 -35.5t45.5 -56t15 -77
q0 -77 -52.5 -133.5t-149.5 -58.5l-15 -48q88 -15 88 -77q0 -36 -22.5 -54.5t-58.5 -18.5q-44 0 -66 22z" />
    <glyph glyph-name="scedilla" unicode="&#x15f;" horiz-adv-x="430" 
d="M147 -188l4 15q24 -16 60 -16q52 0 52 48q0 27 -20 39t-65 22l21 71q-61 4 -100.5 33.5t-53.5 68.5q9 11 30 16q35 -101 141 -101q58 0 91.5 31.5t33.5 82.5q0 26 -9.5 46t-30.5 34t-39 22t-48 19q-28 10 -37 13.5t-32.5 14t-33 19l-23 21.5t-18.5 30t-5 37q0 55 41 92
t114 37q68 0 104.5 -28t49.5 -60q-6 -9 -29 -14q-6 17 -16.5 33.5t-40 33.5t-69.5 17q-57 0 -89 -28t-32 -78q0 -23 9.5 -40t30.5 -30t37.5 -20t47.5 -18q37 -13 56 -21.5t45.5 -26t38.5 -41.5t12 -57q0 -57 -41 -97t-113 -42l-15 -50q88 -15 88 -77q0 -36 -22 -54t-57 -18
q-44 0 -68 21z" />
    <glyph glyph-name="Scaron" unicode="&#x160;" horiz-adv-x="533" 
d="M45 131q10 13 36 16q8 -25 18.5 -44t31.5 -43t56.5 -37.5t82.5 -13.5q76 0 121 46.5t45 123.5q0 27 -6 48.5t-21 39t-27 29t-38 24t-39.5 18l-44.5 17.5q-35 13 -54.5 21.5t-47.5 25t-42.5 33t-25.5 43.5t-11 59q0 74 53.5 124.5t140.5 50.5q47 0 84.5 -13t59 -34
t33.5 -40.5t18 -39.5q-6 -9 -33 -11q-7 20 -14 34t-25 36t-49.5 34.5t-73.5 12.5q-71 0 -113.5 -39.5t-42.5 -113.5q0 -33 12.5 -58t37.5 -43t49 -29.5t61 -25.5q7 -3 11 -4q43 -17 69.5 -29.5t57 -35.5t45.5 -56t15 -77q0 -78 -53.5 -135t-153.5 -57q-169 0 -223 143z
M258 751l-81 109q9 3 10 3q5 0 9 -3l86 -83h2l86 83q4 3 9 3q2 0 11 -3l-81 -109q-9 -3 -26 -3t-25 3z" />
    <glyph glyph-name="scaron" unicode="&#x161;" horiz-adv-x="430" 
d="M45 93q9 11 30 16q35 -101 141 -101q58 0 91.5 31.5t33.5 82.5q0 26 -9.5 46t-30.5 34t-39 22t-48 19q-28 10 -37 13.5t-32.5 14t-33 19l-23 21.5t-18.5 30t-5 37q0 55 41 92t114 37q68 0 104.5 -28t49.5 -60q-6 -9 -29 -14q-6 17 -16.5 33.5t-40 33.5t-69.5 17
q-57 0 -89 -28t-32 -78q0 -23 9.5 -40t30.5 -30t37.5 -20t47.5 -18q37 -13 56 -21.5t45.5 -26t38.5 -41.5t12 -57q0 -58 -42.5 -98.5t-116.5 -40.5q-67 0 -111.5 30.5t-59.5 72.5zM191 580l-83 128q9 3 10 3q4 0 9 -3l89 -105h2l88 105q4 3 9 3q2 0 11 -3l-84 -128
q-8 -3 -25 -3t-26 3z" />
    <glyph glyph-name="Tcommaaccent" unicode="&#x162;" horiz-adv-x="483" 
d="M175 -188l4 15q32 -16 57 -16q55 0 55 48q0 27 -20 39t-65 22l24 80h-7v677h-199v23h435v-23h-200v-677h-7l-18 -60q88 -15 88 -77q0 -36 -22.5 -54.5t-58.5 -18.5q-44 0 -66 22z" />
    <glyph glyph-name="tcommaaccent" unicode="&#x163;" horiz-adv-x="298" 
d="M109 -188l4 15q24 -16 60 -16q52 0 52 48q0 27 -20 39t-65 22l24 81q-32 10 -47 36.5t-15 77.5v363h-77v19h79v134q13 0 33 4v-138h126v-19h-126v-368q0 -55 19.5 -75.5t66.5 -20.5q31 0 49 9q0 -1 0.5 -4.5t0.5 -6.5q0 -2 -0.5 -5.5t-0.5 -4.5q-9 -7 -52 -7q-14 0 -34 2
l-18 -57q88 -15 88 -77q0 -36 -22 -54t-57 -18q-44 0 -68 21z" />
    <glyph glyph-name="Tcaron" unicode="&#x164;" horiz-adv-x="483" 
d="M223 0v677h-199v23h435v-23h-200v-677h-36zM215 751l-81 109q9 3 10 3q4 0 9 -3l86 -83h2l86 83q5 3 9 3q2 0 11 -3l-81 -109q-9 -3 -26 -3q-18 0 -25 3z" />
    <glyph glyph-name="tcaron" unicode="&#x165;" horiz-adv-x="298" 
d="M102 115v363h-77v19h79v134q13 0 33 4v-138h126v-19h-126v-368q0 -55 19.5 -75.5t66.5 -20.5q31 0 49 9q0 -1 0.5 -4.5t0.5 -6.5q0 -2 -0.5 -5.5t-0.5 -4.5q-9 -7 -52 -7q-63 0 -90.5 26.5t-27.5 93.5zM231 603q35 28 37 78h-2q-12 0 -20 7t-8 19q0 27 25 27q29 0 29 -34
q0 -39 -16.5 -69t-32.5 -38q-4 0 -8 3t-4 7z" />
    <glyph glyph-name="Tbar" unicode="&#x166;" horiz-adv-x="483" 
d="M223 0v386h-141v23h141v268h-199v23h435v-23h-200v-268h147v-23h-147v-386h-36z" />
    <glyph glyph-name="tbar" unicode="&#x167;" horiz-adv-x="298" 
d="M102 115v154h-77v18h77v191h-77v19h79v134q13 0 33 4v-138h126v-19h-126v-191h126v-18h-126v-159q0 -55 19.5 -75.5t66.5 -20.5q31 0 49 9q0 -1 0.5 -4.5t0.5 -6.5q0 -2 -0.5 -5.5t-0.5 -4.5q-9 -7 -52 -7q-63 0 -90.5 26.5t-27.5 93.5z" />
    <glyph glyph-name="Utilde" unicode="&#x168;" horiz-adv-x="677" 
d="M92 288v412h37v-412q0 -149 53.5 -212.5t158.5 -63.5q106 0 159.5 64t53.5 214v410h31v-412q0 -153 -59 -226t-188 -73q-128 0 -187 73.5t-59 225.5zM207 766q16 40 34 61t28.5 24t25.5 3q27 0 66 -30.5t62 -30.5q34 0 61 60q3 1 11 1q6 0 9 -1q-23 -55 -42.5 -71.5
t-40.5 -16.5q-26 0 -66.5 31.5t-62.5 31.5t-39 -19.5t-26 -42.5q-6 -2 -10 -2t-10 2z" />
    <glyph glyph-name="utilde" unicode="&#x169;" horiz-adv-x="507" 
d="M80 173v324q15 0 35 4v-317q0 -86 27.5 -128t100.5 -42q46 0 85.5 17.5t61.5 43.5v422q15 0 35 4v-376q0 -92 12 -117l-29 -11q-13 21 -17 60q-61 -67 -157 -67q-154 0 -154 183zM106 604q16 40 34 61t28.5 24t25.5 3q27 0 66 -30.5t62 -30.5q34 0 61 60q3 1 11 1
q6 0 9 -1q-23 -55 -42.5 -71.5t-40.5 -16.5q-26 0 -66.5 31.5t-62.5 31.5t-39 -19.5t-26 -42.5q-6 -2 -10 -2t-10 2z" />
    <glyph glyph-name="Umacron" unicode="&#x16a;" horiz-adv-x="677" 
d="M92 288v412h37v-412q0 -149 53.5 -212.5t158.5 -63.5q106 0 159.5 64t53.5 214v410h31v-412q0 -153 -59 -226t-188 -73q-128 0 -187 73.5t-59 225.5zM222 784v24h244v-24h-244z" />
    <glyph glyph-name="umacron" unicode="&#x16b;" horiz-adv-x="507" 
d="M80 173v324q15 0 35 4v-317q0 -86 27.5 -128t100.5 -42q46 0 85.5 17.5t61.5 43.5v422q15 0 35 4v-376q0 -92 12 -117l-29 -11q-13 21 -17 60q-61 -67 -157 -67q-154 0 -154 183zM133 623v24h244v-24h-244z" />
    <glyph glyph-name="Ubreve" unicode="&#x16c;" horiz-adv-x="677" 
d="M92 288v412h37v-412q0 -149 53.5 -212.5t158.5 -63.5q106 0 159.5 64t53.5 214v410h31v-412q0 -153 -59 -226t-188 -73q-128 0 -187 73.5t-59 225.5zM232 861q2 2 10 2q7 0 9 -2q5 -33 27.5 -55t65.5 -22t65 22t27 55q4 2 10 2q5 0 9 -2q-6 -49 -34.5 -76.5t-76.5 -27.5
t-77 28t-35 76z" />
    <glyph glyph-name="ubreve" unicode="&#x16d;" horiz-adv-x="507" 
d="M80 173v324q15 0 35 4v-317q0 -86 27.5 -128t100.5 -42q46 0 85.5 17.5t61.5 43.5v422q15 0 35 4v-376q0 -92 12 -117l-29 -11q-13 21 -17 60q-61 -67 -157 -67q-154 0 -154 183zM143 697q2 2 10 2q7 0 9 -2q14 -89 93 -89q78 0 92 89q4 2 10 2q5 0 9 -2
q-13 -116 -111 -116q-49 0 -78 30.5t-34 85.5z" />
    <glyph glyph-name="Uring" unicode="&#x16e;" horiz-adv-x="677" 
d="M92 288v412h37v-412q0 -149 53.5 -212.5t158.5 -63.5q106 0 159.5 64t53.5 214v410h31v-412q0 -153 -59 -226t-188 -73q-128 0 -187 73.5t-59 225.5zM344 727q-32 0 -51.5 20.5t-19.5 51.5q0 32 19.5 52t51.5 20q33 0 52 -20t19 -52q0 -31 -19.5 -51.5t-51.5 -20.5z
M344 746q22 0 34.5 15t12.5 38t-12.5 38t-34.5 15t-34 -14.5t-12 -38.5t12 -38.5t34 -14.5z" />
    <glyph glyph-name="uring" unicode="&#x16f;" horiz-adv-x="507" 
d="M80 173v324q15 0 35 4v-317q0 -86 27.5 -128t100.5 -42q46 0 85.5 17.5t61.5 43.5v422q15 0 35 4v-376q0 -92 12 -117l-29 -11q-13 21 -17 60q-61 -67 -157 -67q-154 0 -154 183zM188 633q0 32 19.5 52t51.5 20q33 0 52 -20t19 -52q0 -31 -19.5 -51t-51.5 -20t-51.5 20
t-19.5 51zM259 580q22 0 34.5 15t12.5 38t-12.5 38t-34.5 15t-34 -14.5t-12 -38.5t12 -38.5t34 -14.5z" />
    <glyph glyph-name="Uhungarumlaut" unicode="&#x170;" horiz-adv-x="677" 
d="M92 288v412h37v-412q0 -149 53.5 -212.5t158.5 -63.5q106 0 159.5 64t53.5 214v410h31v-412q0 -153 -59 -226t-188 -73q-128 0 -187 73.5t-59 225.5zM266 752l37 108q9 3 27 3q17 0 26 -3l-72 -108q-4 -3 -9 -3t-9 3zM390 752l52 108q9 3 26 3q18 0 27 -3l-85 -108
q-4 -3 -10 -3q-7 0 -10 3z" />
    <glyph glyph-name="uhungarumlaut" unicode="&#x171;" horiz-adv-x="507" 
d="M80 173v324q15 0 35 4v-317q0 -86 27.5 -128t100.5 -42q46 0 85.5 17.5t61.5 43.5v422q15 0 35 4v-376q0 -92 12 -117l-29 -11q-13 21 -17 60q-61 -67 -157 -67q-154 0 -154 183zM181 581l43 128q9 3 27 3q17 0 26 -3l-78 -128q-5 -3 -9 -3t-9 3zM295 581l58 128
q9 3 26 3q18 0 27 -3l-91 -128q-5 -3 -10 -3q-7 0 -10 3z" />
    <glyph glyph-name="Uogonek" unicode="&#x172;" horiz-adv-x="677" 
d="M510 -180l6 -10q-25 -25 -71 -25q-81 0 -81 73q0 71 84 148q-48 -18 -112 -18q-129 0 -186.5 73t-57.5 227v412h37v-412q0 -149 53.5 -213.5t158.5 -64.5q106 0 159.5 65t53.5 215v410h31v-411q0 -174 -75 -245q-116 -109 -116 -185q0 -55 60 -55q33 0 56 16z" />
    <glyph glyph-name="uogonek" unicode="&#x173;" horiz-adv-x="509" 
d="M428 -180l7 -10q-25 -25 -71 -25q-82 0 -82 73q0 45 38 83t87 61q-11 20 -14 55q-61 -67 -157 -67q-154 0 -154 183v324q15 0 35 4v-317q0 -86 27.5 -128t100.5 -42q45 0 84.5 18t62.5 43v422q15 0 35 4v-376q0 -92 12 -117q-67 -37 -96.5 -72t-29.5 -77q0 -55 59 -55
q35 0 56 16z" />
    <glyph glyph-name="Wcircumflex" unicode="&#x174;" horiz-adv-x="894" 
d="M224 0l-192 696v4h36l112 -415q58 -215 64 -251h3q8 46 65 250l115 416h48l116 -420q57 -204 63 -246h3q1 9 64 246l112 420h30v-4l-190 -696h-38l-117 420q-61 217 -68 257h-3q-7 -41 -68 -258l-117 -419h-38zM341 750l81 109q7 3 25 3q17 0 26 -3l81 -109q-4 -3 -11 -3
q-5 0 -9 3l-86 83h-2l-86 -83q-4 -3 -9 -3t-10 3z" />
    <glyph glyph-name="wcircumflex" unicode="&#x175;" horiz-adv-x="645" 
d="M162 0l-122 494v3h35l64 -265q36 -149 41 -189h2q7 38 54 190l77 250h29l75 -252q42 -144 49 -188h2q5 46 43 187l70 267h24v-3l-128 -494h-26l-92 308q-29 97 -35 131h-2q-3 -19 -38 -133l-93 -306h-29zM217 581l83 128q9 3 26 3q18 0 25 -3l84 -128q-5 -3 -11 -3
q-4 0 -9 3l-88 105h-2l-89 -105q-4 -3 -9 -3t-10 3z" />
    <glyph glyph-name="Ycircumflex" unicode="&#x176;" horiz-adv-x="530" 
d="M247 0v273l-214 423v4h37l198 -399h1l199 399h30v-4l-215 -423v-273h-36zM163 750l81 109q7 3 25 3q17 0 26 -3l81 -109q-4 -3 -11 -3q-5 0 -9 3l-86 83h-2l-86 -83q-4 -3 -9 -3t-10 3z" />
    <glyph glyph-name="ycircumflex" unicode="&#x177;" horiz-adv-x="434" 
d="M209 15l-177 479v3h34l92 -255q57 -159 64 -188h2q4 16 64 188l89 255h28v-3l-168 -474l-18.5 -54t-17 -49t-15.5 -37t-19 -33.5t-21.5 -21t-29.5 -16t-37 -3.5q-22 0 -39 3q-2 6 -2 16t2 16q16 -6 45 -6q12 0 21.5 1.5t17.5 6.5t14 9.5t13 15.5t11 18.5t10.5 24.5
t10.5 28.5l12 35.5t14 40zM116 581l83 128q9 3 26 3t25 -3l84 -128q-4 -3 -11 -3q-5 0 -9 3l-88 105h-2l-89 -105q-5 -3 -9 -3q-6 0 -10 3z" />
    <glyph glyph-name="Ydieresis" unicode="&#x178;" horiz-adv-x="530" 
d="M247 0v273l-214 423v4h37l198 -399h1l199 399h30v-4l-215 -423v-273h-36zM147 791q0 13 8.5 21t20.5 8t20 -8t8 -21q0 -12 -8 -20t-20 -8t-20.5 8t-8.5 20zM333 791q0 13 8 21t20 8t20.5 -8t8.5 -21q0 -12 -8.5 -20t-20.5 -8t-20 8t-8 20z" />
    <glyph glyph-name="Zacute" unicode="&#x179;" horiz-adv-x="570" 
d="M50 0v9l422 668h-400v23h448v-9l-422 -668h419v-23h-467zM281 752l55 107q9 3 25 3q17 0 26 -3l-88 -107q-5 -3 -9 -3t-9 3z" />
    <glyph glyph-name="zacute" unicode="&#x17a;" horiz-adv-x="436" 
d="M39 0v6l315 472h-294v19h338v-6l-315 -472h311v-19h-355zM209 581l63 128q9 3 26 3q16 0 25 -3l-96 -128q-5 -3 -9 -3t-9 3z" />
    <glyph glyph-name="Zdotaccent" unicode="&#x17b;" horiz-adv-x="570" 
d="M50 0v9l422 668h-400v23h448v-9l-422 -668h419v-23h-467zM294 774q-12 0 -20 8.5t-8 20.5t8 20.5t20 8.5t20 -8.5t8 -20.5t-8 -20.5t-20 -8.5z" />
    <glyph glyph-name="zdotaccent" unicode="&#x17c;" horiz-adv-x="436" 
d="M39 0v6l315 472h-294v19h338v-6l-315 -472h311v-19h-355zM232 614q-12 0 -20 8t-8 20t8 20.5t20 8.5t19.5 -8.5t7.5 -20.5t-7.5 -20t-19.5 -8z" />
    <glyph glyph-name="Zcaron" unicode="&#x17d;" horiz-adv-x="570" 
d="M50 0v9l422 668h-400v23h448v-9l-422 -668h419v-23h-467zM284 751l-81 109q9 3 10 3q5 0 9 -3l86 -83h2l86 83q4 3 9 3q2 0 11 -3l-81 -109q-9 -3 -26 -3t-25 3z" />
    <glyph glyph-name="zcaron" unicode="&#x17e;" horiz-adv-x="436" 
d="M39 0v6l315 472h-294v19h338v-6l-315 -472h311v-19h-355zM209 580l-83 128q9 3 10 3q4 0 9 -3l89 -105h2l88 105q4 3 9 3q2 0 11 -3l-84 -128q-8 -3 -25 -3t-26 3z" />
    <glyph glyph-name="longs" unicode="&#x17f;" horiz-adv-x="273" 
d="M82 0v527q0 181 150 181q46 0 56 -5q0 -4 -0.5 -12t-0.5 -10q-13 8 -59 8q-62 0 -86.5 -39t-24.5 -122v-427q0 -90 6 -101h-41z" />
    <glyph glyph-name="uni018F" unicode="&#x18f;" horiz-adv-x="662" 
d="M61 323h495v14q0 170 -61 262t-183 92q-152 0 -203 -144q-27 6 -34 15q29 70 90.5 110t148.5 40q77 0 133.5 -29t89.5 -80.5t48.5 -116t15.5 -143.5q0 -157 -72 -256t-212 -99q-86 0 -145.5 42t-85.5 106.5t-26 144.5q0 24 1 42zM555 300h-449q0 -291 214 -291
q107 0 167 76t68 215z" />
    <glyph glyph-name="florin" unicode="&#x192;" 
d="M278 -65v448h-109v19h109v133q0 80 32 113.5t92 33.5q36 0 52 -7v-5q0 -9 -1 -19q-19 12 -54 12q-50 0 -68 -28.5t-18 -99.5v-133h143v-19h-143v-448q0 -82 -32 -114.5t-92 -32.5q-36 0 -52 7q0 1 -0.5 3.5t-0.5 3.5q0 13 2 17q18 -11 54 -11q50 0 68 28t18 99z" />
    <glyph glyph-name="uni01B5" unicode="&#x1b5;" horiz-adv-x="570" 
d="M50 0v9l218 346h-196v22h210l189 300h-399v23h448v-9l-198 -314h195v-22h-209l-209 -332h418v-23h-467z" />
    <glyph glyph-name="uni01B6" unicode="&#x1b6;" horiz-adv-x="436" 
d="M38 0v6l161 241h-140v19h152l142 212h-294v19h340v-6l-150 -225h147v-19h-160l-152 -228h311v-19h-357z" />
    <glyph glyph-name="AEacute" unicode="&#x1fc;" horiz-adv-x="785" 
d="M22 0v4l338 696h359v-23h-302v-305h274q1 -3 1 -12q0 -10 -1 -13h-274v-324h317v-23h-353v266h-200l-127 -266h-32zM192 290h189v387h-2q-13 -31 -100 -209zM507 752l55 107q9 3 25 3q17 0 26 -3l-88 -107q-5 -3 -9 -3t-9 3z" />
    <glyph glyph-name="aeacute" unicode="&#x1fd;" horiz-adv-x="808" 
d="M364 268v79q0 71 -24.5 107t-94.5 36q-60 0 -98 -25.5t-50 -54.5q-19 6 -26 19q23 35 69.5 56.5t102.5 21.5q131 0 151 -107q51 107 175 107q93 0 140 -60.5t47 -150.5q0 -19 -1 -32h-351v-7q0 -119 44.5 -184t129.5 -65q104 0 141 102q22 -2 31 -11q-45 -109 -173 -109
q-123 0 -177 99q-66 -99 -181 -99q-77 0 -119 39.5t-42 105.5q0 74 52.5 111.5t139.5 37.5q68 0 114 -16zM391 107q-27 60 -27 145q-42 14 -113 14q-70 0 -112 -31.5t-42 -99.5q0 -62 35.5 -93t93.5 -31q51 0 94.5 28.5t70.5 67.5zM405 284h311q0 205 -148 205
q-74 0 -116 -53.5t-47 -151.5zM406 581l63 128q9 3 26 3q16 0 25 -3l-96 -128q-4 -3 -9 -3t-9 3z" />
    <glyph glyph-name="Oslashacute" unicode="&#x1fe;" horiz-adv-x="691" 
d="M91 -8l56 82q-86 98 -86 277q0 162 75 261.5t208 99.5q111 0 186 -73l55 81l23 -15l-59 -87q81 -98 81 -267q0 -162 -75.5 -262.5t-210.5 -100.5q-106 0 -177 66l-52 -76zM165 101l348 513q-63 77 -169 77q-115 0 -178 -90.5t-63 -249.5t62 -250zM530 590l-347 -512
q60 -69 161 -69q116 0 179.5 91t63.5 251q0 150 -57 239zM341 752l55 107q9 3 25 3q17 0 26 -3l-88 -107q-5 -3 -9 -3t-9 3z" />
    <glyph glyph-name="oslashacute" unicode="&#x1ff;" horiz-adv-x="544" 
d="M77 0l38 53q-63 70 -63 196q0 115 56 186.5t163 71.5q85 0 140 -47l33 46l22 -15l-36 -49q62 -69 62 -193q0 -115 -56.5 -187t-164.5 -72q-83 0 -136 44l-35 -48zM133 77l262 362q-45 50 -124 50q-92 0 -135 -65.5t-43 -175.5t40 -171zM412 416l-262 -361q44 -47 121 -47
q93 0 136.5 66t43.5 175q0 105 -39 167zM265 581l63 128q9 3 26 3q16 0 25 -3l-96 -128q-5 -3 -9 -3t-9 3z" />
    <glyph glyph-name="Scommaaccent" unicode="&#x218;" horiz-adv-x="533" 
d="M45 131q10 13 36 16q8 -25 18.5 -44t31.5 -43t56.5 -37.5t82.5 -13.5q76 0 121 46.5t45 123.5q0 27 -6 48.5t-21 39t-27 29t-38 24t-39.5 18l-44.5 17.5q-35 13 -54.5 21.5t-47.5 25t-42.5 33t-25.5 43.5t-11 59q0 74 53.5 124.5t140.5 50.5q47 0 84.5 -13t59 -34
t33.5 -40.5t18 -39.5q-6 -9 -33 -11q-7 20 -14 34t-25 36t-49.5 34.5t-73.5 12.5q-71 0 -113.5 -39.5t-42.5 -113.5q0 -33 12.5 -58t37.5 -43t49 -29.5t61 -25.5q7 -3 11 -4q43 -17 69.5 -29.5t57 -35.5t45.5 -56t15 -77q0 -78 -53.5 -135t-153.5 -57q-169 0 -223 143z
M230 -199q19 13 30.5 36.5t12.5 43.5q-14 0 -23.5 8.5t-9.5 21.5t7.5 21.5t20.5 8.5q32 0 32 -37q0 -40 -19 -72t-37 -39q-11 0 -14 8z" />
    <glyph glyph-name="scommaaccent" unicode="&#x219;" horiz-adv-x="430" 
d="M45 93q9 11 30 16q35 -101 141 -101q58 0 91.5 31.5t33.5 82.5q0 26 -9.5 46t-30.5 34t-39 22t-48 19q-28 10 -37 13.5t-32.5 14t-33 19l-23 21.5t-18.5 30t-5 37q0 55 41 92t114 37q68 0 104.5 -28t49.5 -60q-6 -9 -29 -14q-6 17 -16.5 33.5t-40 33.5t-69.5 17
q-57 0 -89 -28t-32 -78q0 -23 9.5 -40t30.5 -30t37.5 -20t47.5 -18q37 -13 56 -21.5t45.5 -26t38.5 -41.5t12 -57q0 -58 -42.5 -98.5t-116.5 -40.5q-67 0 -111.5 30.5t-59.5 72.5zM177 -199q19 13 30.5 36.5t12.5 43.5q-14 0 -23.5 8.5t-9.5 21.5t7.5 21.5t20.5 8.5
q32 0 32 -37q0 -40 -19 -72t-37 -39q-11 0 -14 8z" />
    <glyph glyph-name="uni021A" unicode="&#x21a;" horiz-adv-x="483" 
d="M223 0v677h-199v23h435v-23h-200v-677h-36zM201 -199q19 13 30.5 36.5t12.5 43.5q-14 0 -23.5 8.5t-9.5 21.5t7.5 21.5t20.5 8.5q32 0 32 -37q0 -40 -19 -72t-37 -39q-11 0 -14 8z" />
    <glyph glyph-name="uni021B" unicode="&#x21b;" horiz-adv-x="298" 
d="M102 115v363h-77v19h79v134q13 0 33 4v-138h126v-19h-126v-368q0 -55 19.5 -75.5t66.5 -20.5q31 0 49 9q0 -1 0.5 -4.5t0.5 -6.5q0 -2 -0.5 -5.5t-0.5 -4.5q-9 -7 -52 -7q-63 0 -90.5 26.5t-27.5 93.5zM140 -199q19 13 30.5 36.5t12.5 43.5q-14 0 -23.5 8.5t-9.5 21.5
t7.5 21.5t20.5 8.5q32 0 32 -37q0 -40 -19 -72t-37 -39q-11 0 -14 8z" />
    <glyph glyph-name="dotlessj" unicode="&#x237;" horiz-adv-x="199" 
d="M82 -69v566q15 0 35 4v-581q0 -68 -24 -95.5t-81 -27.5q-27 0 -41 4q-2 2 -2 9q0 10 3 15q16 -7 42 -7q44 0 56 24.5t12 88.5z" />
    <glyph glyph-name="uni0259" unicode="&#x259;" horiz-adv-x="498" 
d="M53 234h350v6q0 119 -44 184t-130 65q-104 0 -141 -103q-20 2 -31 13q51 108 173 108q108 0 161 -73t53 -190q0 -113 -52 -183.5t-154 -70.5q-92 0 -139 60.5t-47 150.5q0 20 1 33zM402 213h-310q0 -205 148 -205q74 0 115.5 53t46.5 152z" />
    <glyph glyph-name="circumflex" unicode="&#x2c6;" horiz-adv-x="330" 
d="M56 581l83 128q9 3 26 3t25 -3l84 -128q-4 -3 -11 -3q-5 0 -9 3l-88 105h-2l-89 -105q-5 -3 -9 -3q-5 0 -10 3z" />
    <glyph glyph-name="caron" unicode="&#x2c7;" horiz-adv-x="330" 
d="M139 580l-83 128q9 3 10 3q4 0 9 -3l89 -105h2l88 105q4 3 9 3q2 0 11 -3l-84 -128q-8 -3 -25 -3t-26 3z" />
    <glyph glyph-name="breve" unicode="&#x2d8;" horiz-adv-x="336" 
d="M56 697q2 2 10 2q7 0 9 -2q14 -89 93 -89q78 0 92 89q4 2 10 2q5 0 9 -2q-13 -116 -111 -116q-49 0 -78 30.5t-34 85.5z" />
    <glyph glyph-name="dotaccent" unicode="&#x2d9;" horiz-adv-x="167" 
d="M84 613q-12 0 -20 8t-8 20t8 20.5t20 8.5t19.5 -8.5t7.5 -20.5t-7.5 -20t-19.5 -8z" />
    <glyph glyph-name="ring" unicode="&#x2da;" horiz-adv-x="254" 
d="M56 633q0 32 19.5 52t51.5 20q33 0 52 -20t19 -52q0 -31 -19.5 -51t-51.5 -20t-51.5 20t-19.5 51zM127 580q22 0 34.5 15t12.5 38t-12.5 38t-34.5 15t-34 -14.5t-12 -38.5t12 -38.5t34 -14.5z" />
    <glyph glyph-name="ogonek" unicode="&#x2db;" horiz-adv-x="265" 
d="M202 -180l6 -10q-25 -25 -71 -25q-81 0 -81 68q0 53 41 93t96 61l8 -7q-114 -57 -114 -145q0 -51 59 -51q35 0 56 16z" />
    <glyph glyph-name="tilde" unicode="&#x2dc;" horiz-adv-x="409" 
d="M56 604q16 40 34 61t28.5 24t25.5 3q27 0 66 -30.5t62 -30.5q34 0 61 60q3 1 11 1q6 0 9 -1q-23 -55 -42.5 -71.5t-40.5 -16.5q-26 0 -66.5 31.5t-62.5 31.5t-39 -19.5t-26 -42.5q-6 -2 -10 -2t-10 2z" />
    <glyph glyph-name="hungarumlaut" unicode="&#x2dd;" horiz-adv-x="337" 
d="M56 581l43 128q9 3 27 3q17 0 26 -3l-78 -128q-4 -3 -9 -3t-9 3zM170 581l58 128q9 3 26 3q18 0 27 -3l-91 -128q-4 -3 -10 -3q-7 0 -10 3z" />
    <glyph glyph-name="uni0394" unicode="&#x394;" 
d="M35 0v6l238 694h46l238 -696v-4h-522zM74 23h439l-219 643h-2z" />
    <glyph glyph-name="uni03A9" unicode="&#x3a9;" horiz-adv-x="711" 
d="M63 0v34h214v58q-97 23 -152 104t-55 203q0 141 74.5 227t208.5 86q135 0 210.5 -86t75.5 -227q0 -122 -57 -202.5t-153 -103.5v-59h219v-34h-243v108q91 18 142 93t51 199q0 138 -64 216t-181 78q-115 0 -179 -78t-64 -216q0 -125 51 -199.5t140 -92.5v-108h-238z" />
    <glyph glyph-name="uni03BC" unicode="&#x3bc;" horiz-adv-x="507" 
d="M80 -207v704q15 0 35 4v-322q0 -83 27.5 -124t102.5 -41q43 0 83 18t62 43v422q15 0 35 4v-376q0 -92 12 -117l-29 -11q-14 20 -17 60q-61 -67 -153 -67q-84 0 -123 49v-242q-15 0 -35 -4z" />
    <glyph glyph-name="pi" unicode="&#x3c0;" horiz-adv-x="557" 
d="M117 0v479h-90v18h480v-18h-113v-370q0 -55 19.5 -75.5t66.5 -20.5q30 0 48 9q2 -4 2 -12q0 -2 -0.5 -4.5t-0.5 -3.5q-9 -7 -49 -7q-66 0 -93.5 26t-27.5 94v364h-207v-378q0 -90 6 -101h-41z" />
    <glyph glyph-name="Wgrave" unicode="&#x1e80;" horiz-adv-x="894" 
d="M224 0l-192 696v4h36l112 -415q58 -215 64 -251h3q8 46 65 250l115 416h48l116 -420q57 -204 63 -246h3q1 9 64 246l112 420h30v-4l-190 -696h-38l-117 420q-61 217 -68 257h-3q-7 -41 -68 -258l-117 -419h-38zM444 752l-88 107q8 3 25 3t26 -3l55 -107q-4 -3 -9 -3t-9 3
z" />
    <glyph glyph-name="wgrave" unicode="&#x1e81;" horiz-adv-x="645" 
d="M162 0l-122 494v3h35l64 -265q36 -149 41 -189h2q7 38 54 190l77 250h29l75 -252q42 -144 49 -188h2q5 46 43 187l70 267h24v-3l-128 -494h-26l-92 308q-29 97 -35 131h-2q-3 -19 -38 -133l-93 -306h-29zM319 581l-96 128q8 3 25 3t26 -3l63 -128q-3 -3 -9 -3q-4 0 -9 3z
" />
    <glyph glyph-name="Wacute" unicode="&#x1e82;" horiz-adv-x="894" 
d="M224 0l-192 696v4h36l112 -415q58 -215 64 -251h3q8 46 65 250l115 416h48l116 -420q57 -204 63 -246h3q1 9 64 246l112 420h30v-4l-190 -696h-38l-117 420q-61 217 -68 257h-3q-7 -41 -68 -258l-117 -419h-38zM443 752l55 107q9 3 25 3q17 0 26 -3l-88 -107q-5 -3 -9 -3
t-9 3z" />
    <glyph glyph-name="wacute" unicode="&#x1e83;" horiz-adv-x="645" 
d="M162 0l-122 494v3h35l64 -265q36 -149 41 -189h2q7 38 54 190l77 250h29l75 -252q42 -144 49 -188h2q5 46 43 187l70 267h24v-3l-128 -494h-26l-92 308q-29 97 -35 131h-2q-3 -19 -38 -133l-93 -306h-29zM314 581l63 128q9 3 26 3q16 0 25 -3l-96 -128q-4 -3 -9 -3t-9 3z
" />
    <glyph glyph-name="Wdieresis" unicode="&#x1e84;" horiz-adv-x="894" 
d="M224 0l-192 696v4h36l112 -415q58 -215 64 -251h3q8 46 65 250l115 416h48l116 -420q57 -204 63 -246h3q1 9 64 246l112 420h30v-4l-190 -696h-38l-117 420q-61 217 -68 257h-3q-7 -41 -68 -258l-117 -419h-38zM326 791q0 13 8.5 21t20.5 8t20 -8t8 -21q0 -12 -8 -20
t-20 -8t-20.5 8t-8.5 20zM512 791q0 13 8 21t20 8t20.5 -8t8.5 -21q0 -12 -8.5 -20t-20.5 -8t-20 8t-8 20z" />
    <glyph glyph-name="wdieresis" unicode="&#x1e85;" horiz-adv-x="645" 
d="M162 0l-122 494v3h35l64 -265q36 -149 41 -189h2q7 38 54 190l77 250h29l75 -252q42 -144 49 -188h2q5 46 43 187l70 267h24v-3l-128 -494h-26l-92 308q-29 97 -35 131h-2q-3 -19 -38 -133l-93 -306h-29zM213 642q0 13 8.5 21t20.5 8t20 -8.5t8 -20.5t-8 -20.5t-20 -8.5
t-20.5 8t-8.5 21zM378 642q0 13 8.5 21t20.5 8t20 -8t8 -21t-8 -21t-20 -8t-20.5 8t-8.5 21z" />
    <glyph glyph-name="uni1E8A" unicode="&#x1e8a;" horiz-adv-x="562" 
d="M32 0v4l229 354l-215 338v4h38l199 -318l203 318h30v-4l-217 -333l230 -359v-4h-38l-213 336l-216 -336h-30zM283 774q-12 0 -20 8.5t-8 20.5t8 20.5t20 8.5t20 -8.5t8 -20.5t-8 -20.5t-20 -8.5z" />
    <glyph glyph-name="uni1E8B" unicode="&#x1e8b;" horiz-adv-x="423" 
d="M30 0v4l163 253l-151 237v3h35l136 -218l141 218h27v-3l-154 -235l165 -255v-4h-34l-150 234l-152 -234h-26zM212 613q-12 0 -20 8t-8 20t8 20.5t20 8.5t19.5 -8.5t7.5 -20.5t-7.5 -20t-19.5 -8z" />
    <glyph glyph-name="Ygrave" unicode="&#x1ef2;" horiz-adv-x="530" 
d="M247 0v273l-214 423v4h37l198 -399h1l199 399h30v-4l-215 -423v-273h-36zM281 752l-88 107q8 3 25 3t26 -3l55 -107q-5 -3 -9 -3t-9 3z" />
    <glyph glyph-name="ygrave" unicode="&#x1ef3;" horiz-adv-x="434" 
d="M209 15l-177 479v3h34l92 -255q57 -159 64 -188h2q4 16 64 188l89 255h28v-3l-168 -474l-18.5 -54t-17 -49t-15.5 -37t-19 -33.5t-21.5 -21t-29.5 -16t-37 -3.5q-22 0 -39 3q-2 6 -2 16t2 16q16 -6 45 -6q12 0 21.5 1.5t17.5 6.5t14 9.5t13 15.5t11 18.5t10.5 24.5
t10.5 28.5l12 35.5t14 40zM237 581l-96 128q8 3 25 3t26 -3l63 -128q-3 -3 -9 -3q-4 0 -9 3z" />
    <glyph glyph-name="endash" unicode="&#x2013;" horiz-adv-x="570" 
d="M62 284v31h446v-31h-446z" />
    <glyph glyph-name="emdash" unicode="&#x2014;" horiz-adv-x="790" 
d="M62 284v31h666v-31h-666z" />
    <glyph glyph-name="quoteleft" unicode="&#x2018;" horiz-adv-x="181" 
d="M113 705q-18 -13 -29.5 -36t-12.5 -42q14 0 23.5 -8t9.5 -21q0 -12 -7.5 -20t-19.5 -8q-31 0 -31 35q0 39 19 71t36 38q10 0 12 -9z" />
    <glyph glyph-name="quoteright" unicode="&#x2019;" horiz-adv-x="181" 
d="M57 577q18 13 29.5 36t12.5 42q-14 0 -23.5 8t-9.5 21q0 12 7.5 20t19.5 8q31 0 31 -35q0 -39 -19 -71t-36 -38q-10 0 -12 9z" />
    <glyph glyph-name="quotesinglbase" unicode="&#x201a;" horiz-adv-x="181" 
d="M57 -85q18 13 29.5 36t12.5 42q-14 0 -23.5 8t-9.5 21q0 12 7.5 20t19.5 8q31 0 31 -35q0 -39 -19 -71t-36 -38q-10 0 -12 9z" />
    <glyph glyph-name="quotedblleft" unicode="&#x201c;" horiz-adv-x="314" 
d="M113 705q-18 -13 -29.5 -36t-12.5 -42q14 0 23.5 -8t9.5 -21q0 -12 -7.5 -20t-19.5 -8q-31 0 -31 35q0 39 19 71t36 38q10 0 12 -9zM246 705q-18 -13 -29.5 -36t-12.5 -42q14 0 23.5 -8t9.5 -21q0 -12 -7.5 -20t-19.5 -8q-31 0 -31 35q0 39 19 71t36 38q10 0 12 -9z" />
    <glyph glyph-name="quotedblright" unicode="&#x201d;" horiz-adv-x="314" 
d="M57 577q18 13 29.5 36t12.5 42q-14 0 -23.5 8t-9.5 21q0 12 7.5 20t19.5 8q31 0 31 -35q0 -39 -19 -71t-36 -38q-10 0 -12 9zM190 577q18 13 29.5 36t12.5 42q-14 0 -23.5 8t-9.5 21q0 12 7.5 20t19.5 8q31 0 31 -35q0 -39 -19 -71t-36 -38q-10 0 -12 9z" />
    <glyph glyph-name="quotedblbase" unicode="&#x201e;" horiz-adv-x="314" 
d="M57 -85q18 13 29.5 36t12.5 42q-14 0 -23.5 8t-9.5 21q0 12 7.5 20t19.5 8q31 0 31 -35q0 -39 -19 -71t-36 -38q-10 0 -12 9zM190 -85q18 13 29.5 36t12.5 42q-14 0 -23.5 8t-9.5 21q0 12 7.5 20t19.5 8q31 0 31 -35q0 -39 -19 -71t-36 -38q-10 0 -12 9z" />
    <glyph glyph-name="dagger" unicode="&#x2020;" horiz-adv-x="619" 
d="M300 -100l-7 570l-221 -6q-4 5 -4 16.5t4 16.5l221 -8l-2 211q5 4 18 4t18 -4l-3 -211l223 8q5 -5 5 -16.5t-5 -16.5l-223 6l-6 -570h-18z" />
    <glyph glyph-name="daggerdbl" unicode="&#x2021;" horiz-adv-x="619" 
d="M300 -100l-4 270l-224 -7q-4 6 -4 17.5t4 15.5l224 -8l-3 282l-221 -6q-4 5 -4 16.5t4 16.5l221 -8l-2 211q5 4 18 4t18 -4l-3 -211l223 8q5 -5 5 -16.5t-5 -16.5l-223 6l-3 -282l226 8q5 -4 5 -15.5t-5 -17.5l-226 7l-3 -270h-18z" />
    <glyph glyph-name="bullet" unicode="&#x2022;" horiz-adv-x="281" 
d="M57 353q0 36 23 60t61 24q36 0 59.5 -24t23.5 -60t-23 -59.5t-60 -23.5q-38 0 -61 23.5t-23 59.5z" />
    <glyph glyph-name="ellipsis" unicode="&#x2026;" horiz-adv-x="456" 
d="M80 -5q-12 0 -20 8t-8 20t8 20t20 8t19.5 -8t7.5 -20t-7.5 -20t-19.5 -8zM228 -5q-12 0 -20 8t-8 20t8 20t20 8t19.5 -8t7.5 -20t-7.5 -20t-19.5 -8zM376 -5q-12 0 -20 8t-8 20t8 20t20 8t19.5 -8t7.5 -20t-7.5 -20t-19.5 -8z" />
    <glyph glyph-name="perthousand" unicode="&#x2030;" horiz-adv-x="1155" 
d="M171 0v3l440 697h31v-3l-439 -697h-32zM610 -6q-69 0 -107 48t-38 128t38 127.5t107 47.5q70 0 107 -47t37 -128t-37 -128.5t-107 -47.5zM610 11q105 0 105 159q0 158 -105 158q-51 0 -77.5 -41.5t-26.5 -116.5q0 -76 26.5 -117.5t77.5 -41.5zM203 354q-69 0 -107 48
t-38 128t38 127.5t107 47.5q70 0 107 -47t37 -128t-37 -128.5t-107 -47.5zM203 371q105 0 105 159q0 158 -105 158q-51 0 -77.5 -41.5t-26.5 -116.5q0 -76 26.5 -117.5t77.5 -41.5zM953 -6q-69 0 -107 48t-38 128t38 127.5t107 47.5q70 0 107 -47t37 -128t-37 -128.5
t-107 -47.5zM953 11q105 0 105 159q0 158 -105 158q-51 0 -77.5 -41.5t-26.5 -116.5q0 -76 26.5 -117.5t77.5 -41.5z" />
    <glyph glyph-name="guilsinglleft" unicode="&#x2039;" horiz-adv-x="359" 
d="M252 47l-174 209v6l174 207h28l-161 -211l161 -211h-28z" />
    <glyph glyph-name="guilsinglright" unicode="&#x203a;" horiz-adv-x="359" 
d="M78 47l162 211l-162 211h28l174 -207v-6l-174 -209h-28z" />
    <glyph glyph-name="fraction" unicode="&#x2044;" horiz-adv-x="186" 
d="M-142 0v3l439 697h31v-3l-439 -697h-31z" />
    <glyph glyph-name="zero.superior" unicode="&#x2070;" horiz-adv-x="390" 
d="M200 461q-73 0 -111.5 55t-38.5 150q0 94 38.5 149t111.5 55q74 0 112 -54.5t38 -149.5t-38.5 -150t-111.5 -55zM200 481q108 0 108 185t-108 185q-107 0 -107 -185t107 -185z" />
    <glyph glyph-name="four.superior" unicode="&#x2074;" horiz-adv-x="370" 
d="M47 570v29l196 265h38v-265h50v-29h-50v-102h-37v102h-197zM76 599h168v223h-3z" />
    <glyph glyph-name="five.superior" unicode="&#x2075;" horiz-adv-x="348" 
d="M61 664l7 200h223v-33h-200l-5 -143q41 25 92 25q64 0 97 -35t33 -89q0 -57 -38 -92.5t-98 -35.5q-46 0 -78.5 16.5t-45.5 41.5q9 9 29 14q31 -51 96 -51q44 0 70 28t26 75t-24.5 75.5t-70.5 28.5q-60 0 -87 -25h-26z" />
    <glyph glyph-name="six.superior" unicode="&#x2076;" horiz-adv-x="374" 
d="M102 666v-4q15 19 44.5 32.5t65.5 13.5q60 0 90 -34t30 -84q0 -57 -33.5 -93t-97.5 -36q-66 0 -103.5 56t-37.5 149q0 94 37 149t106 55q87 0 120 -82q-11 -11 -37 -11q-22 74 -83 74q-101 0 -101 -185zM102 639q8 -158 99 -158t91 103q0 47 -22.5 74t-65.5 27
q-64 0 -102 -46z" />
    <glyph glyph-name="seven.superior" unicode="&#x2077;" horiz-adv-x="330" 
d="M91 468v2l182 361h-235v33h262v-29l-166 -367h-43z" />
    <glyph glyph-name="eight.superior" unicode="&#x2078;" horiz-adv-x="364" 
d="M141 677v3q-34 9 -53.5 33t-19.5 58q0 44 33 71.5t87 27.5t87 -27.5t33 -71.5q0 -34 -20 -58t-55 -33v-3q42 -9 65.5 -36.5t23.5 -66.5q0 -51 -35.5 -82t-98.5 -31q-64 0 -100 31t-36 82q0 39 23.5 66t65.5 37zM188 481q45 0 69 24.5t24 69.5t-24.5 69t-68.5 24
q-45 0 -69.5 -24t-24.5 -69t24.5 -69.5t69.5 -24.5zM188 688q36 0 58 22.5t22 60.5q0 37 -20.5 58.5t-59.5 21.5q-40 0 -60.5 -21.5t-20.5 -58.5q0 -38 22 -60.5t59 -22.5z" />
    <glyph glyph-name="nine.superior" unicode="&#x2079;" horiz-adv-x="374" 
d="M63 543q9 8 35 13q24 -75 85 -75q99 0 101 184q-38 -47 -109 -47q-62 0 -91.5 35.5t-29.5 86.5q0 56 33.5 93t96.5 37q67 0 104.5 -55t37.5 -147q0 -97 -37 -152t-106 -55q-85 0 -120 82zM284 687q-3 79 -28 121.5t-71 42.5q-91 0 -91 -108q0 -47 22.5 -75t63.5 -28
q63 0 104 47z" />
    <glyph glyph-name="zero.inferior" unicode="&#x2080;" horiz-adv-x="390" 
d="M200 -180q-73 0 -111.5 55t-38.5 150q0 94 38.5 149t111.5 55q74 0 112 -54.5t38 -149.5t-38.5 -150t-111.5 -55zM200 -160q108 0 108 185t-108 185q-107 0 -107 -185t107 -185z" />
    <glyph glyph-name="one.inferior" unicode="&#x2081;" horiz-adv-x="329" 
d="M88 -173v21h83v343l-83 -21v23q5 1 23.5 7l41 13l31.5 10h24v-375h73v-21h-193z" />
    <glyph glyph-name="two.inferior" unicode="&#x2082;" horiz-adv-x="369" 
d="M49 -173v23q2 1 34.5 26.5t42.5 34.5l39 34.5t41.5 42l30 41t24.5 47.5t7 46q0 38 -20.5 63t-63.5 25q-70 0 -95 -75q-22 0 -33 11q30 83 128 83q59 0 91 -29.5t32 -80.5q0 -62 -54.5 -124.5t-154.5 -133.5v-1h221v-33h-270z" />
    <glyph glyph-name="three.inferior" unicode="&#x2083;" horiz-adv-x="348" 
d="M132 20v21h21q110 0 110 92q0 76 -85 76q-63 0 -89 -49q-21 3 -29 14q34 55 119 55q57 0 89.5 -24.5t32.5 -69.5q0 -44 -26 -69.5t-68 -33.5v-1q106 -12 106 -98q0 -52 -36.5 -82.5t-99.5 -30.5q-47 0 -79.5 16.5t-44.5 40.5q4 5 28 18q32 -54 96 -54q48 0 72 23.5
t24 63.5q0 92 -120 92h-21z" />
    <glyph glyph-name="four.inferior" unicode="&#x2084;" horiz-adv-x="370" 
d="M47 -71v29l196 265h38v-265h50v-29h-50v-102h-37v102h-197zM76 -42h168v223h-3z" />
    <glyph glyph-name="five.inferior" unicode="&#x2085;" horiz-adv-x="348" 
d="M61 23l7 200h223v-33h-200l-5 -143q41 25 92 25q64 0 97 -35t33 -89q0 -57 -38 -92.5t-98 -35.5q-46 0 -78.5 16.5t-45.5 41.5q9 9 29 14q31 -51 96 -51q44 0 70 28t26 75t-24.5 75.5t-70.5 28.5q-60 0 -87 -25h-26z" />
    <glyph glyph-name="six.inferior" unicode="&#x2086;" horiz-adv-x="374" 
d="M102 25v-4q15 19 44.5 32.5t65.5 13.5q60 0 90 -34t30 -84q0 -57 -33.5 -93t-97.5 -36q-66 0 -103.5 56t-37.5 149q0 94 37 149t106 55q87 0 120 -82q-11 -11 -37 -11q-22 74 -83 74q-101 0 -101 -185zM102 -2q8 -158 99 -158t91 103q0 47 -22.5 74t-65.5 27
q-64 0 -102 -46z" />
    <glyph glyph-name="seven.inferior" unicode="&#x2087;" horiz-adv-x="330" 
d="M91 -173v2l182 361h-235v33h262v-29l-166 -367h-43z" />
    <glyph glyph-name="eight.inferior" unicode="&#x2088;" horiz-adv-x="364" 
d="M141 36v3q-34 9 -53.5 33t-19.5 58q0 44 33 71.5t87 27.5t87 -27.5t33 -71.5q0 -34 -20 -58t-55 -33v-3q42 -9 65.5 -36.5t23.5 -66.5q0 -51 -35.5 -82t-98.5 -31q-64 0 -100 31t-36 82q0 39 23.5 66t65.5 37zM188 -160q45 0 69 24.5t24 69.5t-24.5 69t-68.5 24
q-45 0 -69.5 -24t-24.5 -69t24.5 -69.5t69.5 -24.5zM188 47q36 0 58 22.5t22 60.5q0 37 -20.5 58.5t-59.5 21.5q-40 0 -60.5 -21.5t-20.5 -58.5q0 -38 22 -60.5t59 -22.5z" />
    <glyph glyph-name="nine.inferior" unicode="&#x2089;" horiz-adv-x="374" 
d="M63 -98q9 8 35 13q24 -75 85 -75q99 0 101 184q-38 -47 -109 -47q-62 0 -91.5 35.5t-29.5 86.5q0 56 33.5 93t96.5 37q67 0 104.5 -55t37.5 -147q0 -97 -37 -152t-106 -55q-85 0 -120 82zM284 46q-3 79 -28 121.5t-71 42.5q-91 0 -91 -108q0 -47 22.5 -75t63.5 -28
q63 0 104 47z" />
    <glyph glyph-name="uni20A8" unicode="&#x20a8;" 
d="M93 293v24h88q108 0 155.5 39.5t47.5 128.5v9h-291v21h289q-8 73 -55.5 106t-145.5 33h-88v22h456l-4 -21h-237q103 -40 115 -140h98l-4 -21h-92v-4q0 -94 -64 -145.5t-182 -51.5h-41l321 -289v-4h-44l-321 293h-1z" />
    <glyph glyph-name="Euro" unicode="&#x20ac;" 
d="M37 275v20h63q-1 14 -1 44q0 34 3 67h-65v20h67q16 123 78.5 193t169.5 70q47 0 86 -13.5t63 -34.5t38 -39t21 -35q-12 -16 -31 -16q-53 118 -178 118q-178 0 -205 -243h309l-4 -20h-307q-2 -44 -2 -67q0 -30 1 -44h290l-5 -20h-284q21 -267 206 -267q77 0 121 39.5
t61 89.5q20 0 33 -15q-60 -134 -215 -134q-112 0 -174 77t-74 210h-65z" />
    <glyph glyph-name="uni2117" unicode="&#x2117;" horiz-adv-x="814" 
d="M300 112v474h91q89 0 135 -39t46 -106t-46.5 -106.5t-135.5 -39.5h-56v-183h-34zM334 316h57q141 0 141 123q0 125 -141 125h-57v-248zM407 -11q-153 0 -256.5 105t-103.5 256t103.5 256t256.5 105t256 -105t103 -256t-103 -256t-256 -105zM407 18q144 0 235 95t91 237
t-91 237t-235 95t-235 -95t-91 -237t91 -237t235 -95z" />
    <glyph glyph-name="trademark" unicode="&#x2122;" horiz-adv-x="705" 
d="M134 354v330h-98v16h226v-16h-100v-330h-28zM321 354v346h32l72 -181q49 -126 53 -139h1q8 28 53 138l74 182h33v-346h-27v204q0 66 2 112h-2q-8 -31 -38 -103l-89 -213h-17l-87 213q-29 69 -39 103h-2q3 -35 3 -112v-204h-22z" />
    <glyph glyph-name="Omega" unicode="&#x2126;" horiz-adv-x="711" 
d="M63 0v34h214v58q-97 23 -152 104t-55 203q0 141 74.5 227t208.5 86q135 0 210.5 -86t75.5 -227q0 -122 -57 -202.5t-153 -103.5v-59h219v-34h-243v108q91 18 142 93t51 199q0 138 -64 216t-181 78q-115 0 -179 -78t-64 -216q0 -125 51 -199.5t140 -92.5v-108h-238z" />
    <glyph glyph-name="partialdiff" unicode="&#x2202;" horiz-adv-x="553" 
d="M451 327q2 42 2 67q0 140 -42 218t-127 78q-55 0 -95 -30.5t-61 -80.5q-21 2 -31 15q26 50 74.5 82.5t108.5 32.5q105 0 160 -85t55 -233q0 -188 -69.5 -295.5t-185.5 -107.5q-96 0 -147 58t-51 148q0 93 55 158.5t164 65.5q64 0 117 -28t73 -63zM448 299q-26 42 -74 71
t-115 29q-83 0 -130 -58.5t-47 -156.5q0 -177 159 -177q88 0 141 76.5t66 215.5z" />
    <glyph glyph-name="Delta" unicode="&#x2206;" 
d="M35 0v6l238 694h46l238 -696v-4h-522zM74 23h439l-219 643h-2z" />
    <glyph glyph-name="product" unicode="&#x220f;" horiz-adv-x="666" 
d="M96 -100v800h474v-800h-37v777h-400v-777h-37z" />
    <glyph glyph-name="summation" unicode="&#x2211;" horiz-adv-x="570" 
d="M50 -100v9l243 403l-228 379v9h448v-22h-403l221 -366l-236 -390h422v-22h-467z" />
    <glyph glyph-name="minus" unicode="&#x2212;" 
d="M62 286v27h468v-27h-468z" />
    <glyph glyph-name="radical" unicode="&#x221a;" horiz-adv-x="587" 
d="M281 0l-174 474h-80l6 23h97l170 -468h2q2 10 7 26t21 63l37.5 107.5l66.5 191.5l97 283h30v-3l-245 -697h-35z" />
    <glyph glyph-name="infinity" unicode="&#x221e;" horiz-adv-x="825" 
d="M405 365q48 68 92.5 105t107.5 37q64 0 113 -39.5t49 -121.5q0 -77 -46 -124t-122 -47q-61 0 -109 32t-96 115q-43 -64 -85 -98.5t-104 -34.5q-67 0 -107 43t-40 113q0 75 49 112.5t113 37.5q37 0 64.5 -9t50 -30.5t35.5 -38.5t35 -52zM415 350q54 -85 92.5 -120.5
t92.5 -35.5q53 0 85.5 37.5t32.5 110.5q0 142 -121 142q-33 0 -59.5 -10t-50 -33t-37 -40.5t-35.5 -50.5zM385 338l-20 29t-21 30l-19 25t-22.5 24t-23.5 16t-28.5 12.5t-30.5 3.5q-56 0 -85 -39.5t-29 -96.5q0 -55 30.5 -94t83.5 -39q48 0 84.5 33t80.5 96z" />
    <glyph glyph-name="integral" unicode="&#x222b;" 
d="M278 -65v600q0 80 32 113.5t92 33.5q36 0 52 -7v-7q0 -13 -1 -16q-16 12 -54 12q-50 0 -68 -28.5t-18 -100.5v-600q0 -80 -32.5 -113.5t-91.5 -33.5q-36 0 -52 7q0 1 -0.5 3t-0.5 4q0 10 2 16q19 -12 54 -12q50 0 68 29t18 100z" />
    <glyph glyph-name="approxequal" unicode="&#x2248;" 
d="M68 150v30q6 5 17.5 12.5t46 20.5t67.5 13q40 0 112 -25.5t113 -25.5q25 0 50 11t38 22l12 11v-35q-46 -34 -100 -34q-43 0 -117 25.5t-109 25.5q-28 0 -60.5 -12.5t-51.5 -25.5zM69 336v30q6 5 17.5 12.5t46 20.5t67.5 13q40 0 112 -25.5t113 -25.5q25 0 50 11t37 22
l13 11v-35q-46 -34 -100 -34q-43 0 -117 25.5t-109 25.5q-28 0 -60.5 -12.5t-50.5 -25.5z" />
    <glyph glyph-name="notequal" unicode="&#x2260;" 
d="M168 23v3l69 161h-175v26h186l75 173h-261v26h272l63 145h27v-3l-61 -142h167v-26h-178l-75 -173h253v-26h-264l-71 -164h-27z" />
    <glyph glyph-name="lessequal" unicode="&#x2264;" 
d="M62 301v26l468 140v-27l-430 -126v-2l430 -124v-27zM62 34v26h468v-26h-468z" />
    <glyph glyph-name="greaterequal" unicode="&#x2265;" 
d="M62 161v27l430 124v2l-430 126v27l468 -140v-26zM62 34v26h468v-26h-468z" />
    <glyph glyph-name="lozenge" unicode="&#x25ca;" horiz-adv-x="560" 
d="M258 0l-201 350l201 350h44l201 -350l-201 -350h-44zM276 16h3l188 334l-188 334h-3l-190 -334z" />
    <glyph glyph-name="CR" horiz-adv-x="221" 
 />
    <glyph glyph-name="a.small" horiz-adv-x="525" 
d="M34 0v4l206 564h45l206 -564v-4h-35l-78 211h-238l-77 -211h-29zM149 235h220l-52 144q-51 142 -57 167h-1q-11 -40 -58 -168z" />
    <glyph glyph-name="b.small" horiz-adv-x="488" 
d="M93 0v568h121q104 0 151.5 -34.5t47.5 -102.5q0 -105 -112 -132v-2q61 -9 98.5 -45.5t37.5 -96.5q0 -155 -211 -155h-133zM129 20h87q92 0 136.5 32.5t44.5 101.5q0 133 -174 133h-94v-267zM129 307h75q89 0 130 29.5t41 93.5q0 62 -39 90t-121 28h-86v-241z" />
    <glyph glyph-name="c.small" horiz-adv-x="576" 
d="M492 160q22 0 35 -9q-49 -161 -218 -161q-119 0 -182.5 81t-63.5 213q0 133 64.5 213.5t183.5 80.5q162 0 209 -145q-9 -11 -34 -11q-20 66 -60.5 101t-115.5 35q-101 0 -154 -72t-53 -202q0 -129 53 -201.5t154 -72.5q143 0 182 150z" />
    <glyph glyph-name="d.small" horiz-adv-x="561" 
d="M93 0v568h126q142 0 210.5 -74t68.5 -210q0 -135 -68.5 -209.5t-209.5 -74.5h-127zM129 21h90q237 0 237 263q0 131 -57 197t-179 66h-91v-526z" />
    <glyph glyph-name="e.small" horiz-adv-x="457" 
d="M93 0v568h296v-22h-260v-243h238q0 -1 0.5 -5t0.5 -7q0 -2 -0.5 -6t-0.5 -5h-238v-258h274v-22h-310z" />
    <glyph glyph-name="f.small" horiz-adv-x="449" 
d="M93 0v568h303v-22h-267v-244h238q1 -3 1 -11q0 -9 -1 -12h-238v-279h-36z" />
    <glyph glyph-name="g.small" horiz-adv-x="583" 
d="M475 53v210h-150v22h183v-239q-63 -56 -191 -56t-191 79.5t-63 214.5q0 133 63.5 213.5t183.5 80.5q152 0 198 -115q-9 -11 -31 -11q-39 106 -167 106q-101 0 -154 -72t-53 -202q0 -274 216 -274q108 0 156 43z" />
    <glyph glyph-name="h.small" horiz-adv-x="600" 
d="M93 0v568h36v-255h342v255h36v-568h-36v290h-342v-290h-36z" />
    <glyph glyph-name="i.small" horiz-adv-x="222" 
d="M93 0v568h36v-568h-36z" />
    <glyph glyph-name="j.small" horiz-adv-x="349" 
d="M224 121v447h35v-454q0 -64 -35 -93t-106 -29q-64 0 -79 9q0 1 -0.5 4t-0.5 5q0 12 3 17q33 -14 78 -14q58 0 81.5 24.5t23.5 83.5z" />
    <glyph glyph-name="k.small" horiz-adv-x="476" 
d="M93 0v568h36v-270h2l273 270h35v-4l-272 -265l277 -295v-4h-43l-270 289h-2v-289h-36z" />
    <glyph glyph-name="l.small" horiz-adv-x="432" 
d="M93 0v568h36v-545h270v-23h-306z" />
    <glyph glyph-name="m.small" horiz-adv-x="723" 
d="M93 0v568h44l130 -304q82 -192 93 -229h2q14 49 92 226l134 307h41v-568h-34v310q0 112 3 220h-2q-25 -72 -67 -168l-160 -362h-22l-157 362q-51 117 -67 168h-3q4 -48 4 -219v-311h-31z" />
    <glyph glyph-name="n.small" horiz-adv-x="613" 
d="M93 0v568h37l245 -347q101 -145 114 -168h3q-3 63 -3 219v296h31v-568h-26l-254 358q-93 129 -116 173h-3q3 -48 3 -206v-325h-31z" />
    <glyph glyph-name="o.small" horiz-adv-x="621" 
d="M310 -10q-119 0 -183 80.5t-64 213.5t64 213.5t183 80.5q118 0 183.5 -81t65.5 -213t-65.5 -213t-183.5 -81zM310 10q100 0 153.5 72.5t53.5 201.5q0 130 -53 202t-154 72t-154 -72t-53 -202q0 -129 53 -201.5t154 -72.5z" />
    <glyph glyph-name="p.small" horiz-adv-x="466" 
d="M93 0v568h102q219 0 219 -164q0 -165 -219 -165h-66v-239h-36zM129 260h66q94 0 136.5 36t42.5 108q0 73 -42 108t-137 35h-66v-287z" />
    <glyph glyph-name="q.small" horiz-adv-x="621" 
d="M368 -11l-3 6q-28 -5 -55 -5q-119 0 -183 80.5t-64 213.5t64 213.5t183 80.5q118 0 183.5 -81t65.5 -213q0 -108 -44.5 -183.5t-127.5 -99.5l1 -1q14 -45 39 -62.5t64 -17.5q22 0 34 5q2 -8 2 -19q0 -4 -0.5 -8t-0.5 -5q-12 -4 -32 -4q-52 0 -78 22.5t-48 77.5zM310 10
q100 0 153.5 72.5t53.5 201.5q0 130 -53 202t-154 72t-154 -72t-53 -202q0 -129 53 -201.5t154 -72.5z" />
    <glyph glyph-name="r.small" horiz-adv-x="478" 
d="M93 0v568h97q116 0 168 -40.5t52 -119.5q0 -125 -131 -156l148 -248v-4h-37l-147 246q-25 -3 -56 -3h-58v-243h-36zM129 264h63q94 0 136 36t42 108t-41.5 105.5t-136.5 33.5h-63v-283z" />
    <glyph glyph-name="s.small" horiz-adv-x="487" 
d="M49 106q14 14 33 15q43 -111 160 -111q68 0 107 36t39 100q0 31 -11.5 54t-37.5 39t-45.5 24.5t-57.5 21.5q-39 14 -60 23t-47.5 26.5t-38.5 41.5t-12 56q0 63 46.5 104.5t122.5 41.5q78 0 119.5 -32.5t53.5 -69.5q-7 -11 -32 -13q-6 16 -12.5 27t-21.5 29.5t-42.5 28.5
t-63.5 10q-63 0 -98 -31.5t-35 -92.5q0 -27 11 -47t36 -35.5t44.5 -23.5t56.5 -21q38 -13 60.5 -23.5t49.5 -29t40 -45t13 -61.5q0 -68 -47.5 -113t-137.5 -45q-75 0 -123 31.5t-69 84.5z" />
    <glyph glyph-name="t.small" horiz-adv-x="443" 
d="M204 0v545h-172v23h380v-23h-173v-545h-35z" />
    <glyph glyph-name="u.small" horiz-adv-x="609" 
d="M90 232v336h36v-336q0 -117 46 -168.5t136 -51.5t136 52t46 170v334h29v-335q0 -124 -52 -183.5t-165 -59.5t-162.5 59t-49.5 183z" />
    <glyph glyph-name="v.small" horiz-adv-x="523" 
d="M244 0l-206 564v4h35l137 -377q47 -128 54 -163h3q17 65 54 165l136 375h29v-4l-206 -564h-36z" />
    <glyph glyph-name="w.small" horiz-adv-x="801" 
d="M205 0l-167 564v4h35l96 -332q45 -157 55 -203h3q7 43 55 202l99 333h46l100 -336q47 -155 54 -198h3q3 22 54 198l96 336h30v-4l-166 -564h-37l-101 333q-35 113 -57 208h-3q-15 -64 -58 -207l-100 -334h-37z" />
    <glyph glyph-name="x.small" horiz-adv-x="512" 
d="M39 0v4l197 285l-185 275v4h35l171 -256l175 256h28v-4l-187 -270l200 -290v-4h-38l-182 269l-186 -269h-28z" />
    <glyph glyph-name="y.small" horiz-adv-x="484" 
d="M224 0v220l-185 344v4h35l171 -322h1l172 322h29v-4l-187 -344v-220h-36z" />
    <glyph glyph-name="z.small" horiz-adv-x="518" 
d="M54 0v10l363 536h-344v22h391v-11l-363 -535h360v-22h-407z" />
    <glyph glyph-name="agrave.small" horiz-adv-x="525" 
d="M34 0v4l206 564h45l206 -564v-4h-35l-78 211h-238l-77 -211h-29zM149 235h220l-52 144q-51 142 -57 167h-1q-11 -40 -58 -168zM255 630l-96 129q7 3 23 3q7 0 28 -3l63 -129q-4 -2 -9 -2q-3 0 -9 2z" />
    <glyph glyph-name="aacute.small" horiz-adv-x="525" 
d="M34 0v4l206 564h45l206 -564v-4h-35l-78 211h-238l-77 -211h-29zM149 235h220l-52 144q-51 142 -57 167h-1q-11 -40 -58 -168zM251 630l63 129q18 3 28 3q16 0 23 -3l-96 -129q-6 -2 -9 -2t-9 2z" />
    <glyph glyph-name="acircumflex.small" horiz-adv-x="525" 
d="M34 0v4l206 564h45l206 -564v-4h-35l-78 211h-238l-77 -211h-29zM149 235h220l-52 144q-51 142 -57 167h-1q-11 -40 -58 -168zM153 630l83 129q9 3 26 3q18 0 25 -3l84 -129q-6 -2 -11 -2q-3 0 -9 2l-88 106h-2l-89 -106q-6 -2 -9 -2q-4 0 -10 2z" />
    <glyph glyph-name="atilde.small" horiz-adv-x="525" 
d="M34 0v4l206 564h45l206 -564v-4h-35l-78 211h-238l-77 -211h-29zM149 235h220l-52 144q-51 142 -57 167h-1q-11 -40 -58 -168zM114 653q16 40 34 61t28.5 24t25.5 3q27 0 66 -30.5t62 -30.5q34 0 61 60q3 1 11 1q6 0 9 -1q-23 -55 -42.5 -71.5t-40.5 -16.5
q-26 0 -66.5 31.5t-62.5 31.5t-39 -19.5t-26 -42.5q-6 -2 -10 -2t-10 2z" />
    <glyph glyph-name="adieresis.small" horiz-adv-x="525" 
d="M34 0v4l206 564h45l206 -564v-4h-35l-78 211h-238l-77 -211h-29zM149 235h220l-52 144q-51 142 -57 167h-1q-11 -40 -58 -168zM151 691q0 13 8.5 21t20.5 8t20 -8t8 -21q0 -12 -8 -20t-20 -8t-20.5 8t-8.5 20zM316 691q0 13 8.5 21t20.5 8t20 -8t8 -21t-8 -20.5t-20 -7.5
t-20.5 8t-8.5 20z" />
    <glyph glyph-name="amacron.small" horiz-adv-x="525" 
d="M34 0v4l206 564h45l206 -564v-4h-35l-78 211h-238l-77 -211h-29zM149 235h220l-52 144q-51 142 -57 167h-1q-11 -40 -58 -168zM141 673v24h244v-24h-244z" />
    <glyph glyph-name="abreve.small" horiz-adv-x="525" 
d="M34 0v4l206 564h45l206 -564v-4h-35l-78 211h-238l-77 -211h-29zM149 235h220l-52 144q-51 142 -57 167h-1q-11 -40 -58 -168zM151 747q2 2 10 2q7 0 9 -2q14 -89 93 -89q78 0 92 89q4 2 10 2q5 0 9 -2q-13 -116 -111 -116q-49 0 -78 30.5t-34 85.5z" />
    <glyph glyph-name="aring.small" horiz-adv-x="525" 
d="M34 0v4l206 564h45l206 -564v-4h-35l-78 211h-238l-77 -211h-29zM149 235h220l-52 144q-51 142 -57 167h-1q-11 -40 -58 -168zM262 611q-32 0 -51.5 20t-19.5 52q0 31 19.5 51t51.5 20t51.5 -20t19.5 -51q0 -32 -19 -52t-52 -20zM262 630q22 0 34.5 15t12.5 38t-12.5 38
t-34.5 15t-34 -14.5t-12 -38.5t12 -38.5t34 -14.5z" />
    <glyph glyph-name="aogonek.small" horiz-adv-x="525" 
d="M34 0v4l206 564h45l206 -564v-4q-114 -57 -114 -145q0 -51 59 -51q35 0 56 16l6 -10q-25 -25 -71 -25q-81 0 -81 68q0 49 35 87t85 60h-10l-78 211h-238l-77 -211h-29zM149 235h220l-52 144q-51 142 -57 167h-1q-11 -40 -58 -168z" />
    <glyph glyph-name="ae.small" horiz-adv-x="703" 
d="M27 0v4l292 564h317v-22h-261v-243h237q1 -3 1 -12t-1 -11h-237v-258h274v-22h-309v211h-173v2l-109 -213h-31zM179 235h161v311h-3q-14 -31 -86 -171z" />
    <glyph glyph-name="aeacute.small" horiz-adv-x="703" 
d="M27 0v4l292 564h317v-22h-261v-243h237q1 -3 1 -12t-1 -11h-237v-258h274v-22h-309v211h-173v2l-109 -213h-31zM179 235h161v311h-3q-14 -31 -86 -171zM432 630l63 129q18 3 28 3q15 0 23 -3l-96 -129q-6 -2 -9 -2t-9 2z" />
    <glyph glyph-name="cacute.small" horiz-adv-x="576" 
d="M492 160q22 0 35 -9q-49 -161 -218 -161q-119 0 -182.5 81t-63.5 213q0 133 64.5 213.5t183.5 80.5q162 0 209 -145q-9 -11 -34 -11q-20 66 -60.5 101t-115.5 35q-101 0 -154 -72t-53 -202q0 -129 53 -201.5t154 -72.5q143 0 182 150zM279 630l63 129q18 3 28 3
q16 0 23 -3l-96 -129q-6 -2 -9 -2t-9 2z" />
    <glyph glyph-name="ccircumflex.small" horiz-adv-x="576" 
d="M492 160q22 0 35 -9q-49 -161 -218 -161q-119 0 -182.5 81t-63.5 213q0 133 64.5 213.5t183.5 80.5q162 0 209 -145q-9 -11 -34 -11q-20 66 -60.5 101t-115.5 35q-101 0 -154 -72t-53 -202q0 -129 53 -201.5t154 -72.5q143 0 182 150zM199 630l83 129q9 3 26 3
q18 0 25 -3l84 -129q-6 -2 -11 -2q-3 0 -9 2l-88 106h-2l-89 -106q-6 -2 -9 -2q-4 0 -10 2z" />
    <glyph glyph-name="ccaron.small" horiz-adv-x="576" 
d="M492 160q22 0 35 -9q-49 -161 -218 -161q-119 0 -182.5 81t-63.5 213q0 133 64.5 213.5t183.5 80.5q162 0 209 -145q-9 -11 -34 -11q-20 66 -60.5 101t-115.5 35q-101 0 -154 -72t-53 -202q0 -129 53 -201.5t154 -72.5q143 0 182 150zM292 632l-83 129q9 3 10 3q5 0 9 -3
l89 -105h2l88 105q5 3 9 3q2 0 11 -3l-84 -129q-5 -2 -25 -2t-26 2z" />
    <glyph glyph-name="cdotaccent.small" horiz-adv-x="576" 
d="M492 160q22 0 35 -9q-49 -161 -218 -161q-119 0 -182.5 81t-63.5 213q0 133 64.5 213.5t183.5 80.5q162 0 209 -145q-9 -11 -34 -11q-20 66 -60.5 101t-115.5 35q-101 0 -154 -72t-53 -202q0 -129 53 -201.5t154 -72.5q143 0 182 150zM308 662q-12 0 -20 8.5t-8 20.5
t8 20t20 8t19.5 -8t7.5 -20t-7.5 -20.5t-19.5 -8.5z" />
    <glyph glyph-name="ccedilla.small" horiz-adv-x="576" 
d="M239 -188l5 14q19 -15 59 -15q52 0 52 48q0 27 -20 39t-65 22l21 71q-111 7 -169.5 86.5t-58.5 206.5q0 133 64 213.5t183 80.5q162 0 210 -145q-9 -11 -34 -11q-20 66 -60.5 101t-115.5 35q-101 0 -154 -72t-53 -202q0 -129 53 -201.5t154 -72.5q143 0 182 150
q22 0 35 -9q-48 -158 -214 -161l-15 -50q88 -15 88 -77q0 -36 -21 -54t-56 -18q-46 0 -70 21z" />
    <glyph glyph-name="dcaron.small" horiz-adv-x="561" 
d="M93 0v568h126q142 0 210.5 -74t68.5 -210q0 -135 -68.5 -209.5t-209.5 -74.5h-127zM129 21h90q237 0 237 263q0 131 -57 197t-179 66h-91v-526zM245 632l-83 129q9 3 10 3q4 0 9 -3l89 -105h2l88 105q4 3 9 3q2 0 11 -3l-84 -129q-5 -2 -25 -2t-26 2z" />
    <glyph glyph-name="dcroat.small" horiz-adv-x="581" 
d="M113 0v279h-70v22h70v267h125q280 0 280 -284q0 -135 -68.5 -209.5t-209.5 -74.5h-127zM149 21h90q237 0 237 263q0 131 -57 197t-179 66h-91v-246h175v-22h-175v-258z" />
    <glyph glyph-name="egrave.small" horiz-adv-x="457" 
d="M93 0v568h296v-22h-260v-243h238q0 -1 0.5 -5t0.5 -7q0 -2 -0.5 -6t-0.5 -5h-238v-258h274v-22h-310zM256 630l-96 129q8 3 23 3q7 0 28 -3l63 -129q-4 -2 -9 -2q-3 0 -9 2z" />
    <glyph glyph-name="eacute.small" horiz-adv-x="457" 
d="M93 0v568h296v-22h-260v-243h238q0 -1 0.5 -5t0.5 -7q0 -2 -0.5 -6t-0.5 -5h-238v-258h274v-22h-310zM224 630l63 129q18 3 28 3q15 0 23 -3l-96 -129q-6 -2 -9 -2t-9 2z" />
    <glyph glyph-name="ecircumflex.small" horiz-adv-x="457" 
d="M93 0v568h296v-22h-260v-243h238q0 -1 0.5 -5t0.5 -7q0 -2 -0.5 -6t-0.5 -5h-238v-258h274v-22h-310zM137 630l83 129q9 3 26 3q18 0 25 -3l84 -129q-6 -2 -11 -2q-3 0 -9 2l-88 106h-2l-89 -106q-6 -2 -9 -2q-4 0 -10 2z" />
    <glyph glyph-name="ecaron.small" horiz-adv-x="457" 
d="M93 0v568h296v-22h-260v-243h238q0 -1 0.5 -5t0.5 -7q0 -2 -0.5 -6t-0.5 -5h-238v-258h274v-22h-310zM225 632l-83 129q9 3 10 3q4 0 9 -3l89 -105h2l88 105q4 3 9 3q2 0 11 -3l-84 -129q-5 -2 -25 -2t-26 2z" />
    <glyph glyph-name="edieresis.small" horiz-adv-x="457" 
d="M93 0v568h296v-22h-260v-243h238q0 -1 0.5 -5t0.5 -7q0 -2 -0.5 -6t-0.5 -5h-238v-258h274v-22h-310zM129 691q0 13 8.5 21t20.5 8t20 -8t8 -21q0 -12 -8 -20t-20 -8t-20.5 8t-8.5 20zM294 691q0 13 8.5 21t20.5 8t20 -8t8 -21t-8 -20.5t-20 -7.5t-20.5 8t-8.5 20z" />
    <glyph glyph-name="emacron.small" horiz-adv-x="457" 
d="M93 0v568h296v-22h-260v-243h238q0 -1 0.5 -5t0.5 -7q0 -2 -0.5 -6t-0.5 -5h-238v-258h274v-22h-310zM124 673v24h244v-24h-244z" />
    <glyph glyph-name="ebreve.small" horiz-adv-x="457" 
d="M93 0v568h296v-22h-260v-243h238q0 -1 0.5 -5t0.5 -7q0 -2 -0.5 -6t-0.5 -5h-238v-258h274v-22h-310zM138 747q2 2 10 2q7 0 9 -2q14 -89 93 -89q78 0 92 89q4 2 10 2q5 0 9 -2q-13 -116 -111 -116q-49 0 -78 30.5t-34 85.5z" />
    <glyph glyph-name="edotaccent.small" horiz-adv-x="457" 
d="M93 0v568h296v-22h-260v-243h238q0 -1 0.5 -5t0.5 -7q0 -2 -0.5 -6t-0.5 -5h-238v-258h274v-22h-310zM250 662q-12 0 -20 8.5t-8 20.5t8 20t20 8t19.5 -8t7.5 -20t-7.5 -20.5t-19.5 -8.5z" />
    <glyph glyph-name="eogonek.small" horiz-adv-x="457" 
d="M93 0v568h296v-22h-260v-243h237q0 -1 0.5 -5t0.5 -7q0 -2 -0.5 -5.5t-0.5 -4.5h-237v-259h274v-22h-1q-114 -57 -114 -145q0 -51 59 -51q35 0 56 16l6 -10q-25 -25 -71 -25q-81 0 -81 68q0 49 35 87t85 60h-284z" />
    <glyph glyph-name="gcircumflex.small" horiz-adv-x="587" 
d="M475 53v210h-150v22h183v-239q-63 -56 -191 -56t-191 79.5t-63 214.5q0 133 63.5 213.5t183.5 80.5q152 0 198 -115q-9 -11 -31 -11q-39 106 -167 106q-101 0 -154 -72t-53 -202q0 -274 216 -274q108 0 156 43zM206 630l83 129q9 3 26 3t25 -3l84 -129q-6 -2 -11 -2
q-3 0 -9 2l-88 106h-2l-89 -106q-6 -2 -9 -2q-4 0 -10 2z" />
    <glyph glyph-name="gbreve.small" horiz-adv-x="587" 
d="M475 53v210h-150v22h183v-239q-63 -56 -191 -56t-191 79.5t-63 214.5q0 133 63.5 213.5t183.5 80.5q152 0 198 -115q-9 -11 -31 -11q-39 106 -167 106q-101 0 -154 -72t-53 -202q0 -274 216 -274q108 0 156 43zM205 747q2 2 10 2q7 0 9 -2q14 -89 93 -89q78 0 92 89
q4 2 10 2q5 0 9 -2q-13 -116 -111 -116q-49 0 -78 30.5t-34 85.5z" />
    <glyph glyph-name="gdotaccent.small" horiz-adv-x="587" 
d="M475 53v210h-150v22h183v-239q-63 -56 -191 -56t-191 79.5t-63 214.5q0 133 63.5 213.5t183.5 80.5q152 0 198 -115q-9 -11 -31 -11q-39 106 -167 106q-101 0 -154 -72t-53 -202q0 -274 216 -274q108 0 156 43zM317 662q-12 0 -20 8.5t-8 20.5t8 20t20 8t19.5 -8t7.5 -20
t-7.5 -20.5t-19.5 -8.5z" />
    <glyph glyph-name="gcommaaccent.small" horiz-adv-x="587" 
d="M475 53v210h-150v22h183v-239q-63 -56 -191 -56t-191 79.5t-63 214.5q0 133 63.5 213.5t183.5 80.5q152 0 198 -115q-9 -11 -31 -11q-39 106 -167 106q-101 0 -154 -72t-53 -202q0 -274 216 -274q108 0 156 43zM264 -199q19 13 30.5 36.5t12.5 43.5q-14 0 -23.5 8.5
t-9.5 21.5t7.5 21.5t20.5 8.5q32 0 32 -37q0 -40 -19 -72t-37 -39q-11 0 -14 8z" />
    <glyph glyph-name="hcircumflex.small" horiz-adv-x="600" 
d="M93 0v568h36v-255h342v255h36v-568h-36v290h-342v-290h-36zM193 630l83 129q9 3 26 3q18 0 25 -3l84 -129q-6 -2 -11 -2q-3 0 -9 2l-88 106h-2l-89 -106q-6 -2 -9 -2q-4 0 -10 2z" />
    <glyph glyph-name="hbar.small" horiz-adv-x="600" 
d="M93 0v453h-30v22h30v93h36v-93h342v93h36v-93h30v-22h-30v-453h-36v290h-342v-290h-36zM129 313h342v140h-342v-140z" />
    <glyph glyph-name="dotlessi.small" horiz-adv-x="222" 
d="M93 0v568h36v-568h-36z" />
    <glyph glyph-name="dotlessj.small" horiz-adv-x="349" 
d="M224 121v447h35v-454q0 -64 -35 -93t-106 -29q-64 0 -79 9q0 1 -0.5 4t-0.5 5q0 12 3 17q33 -14 78 -14q58 0 81.5 24.5t23.5 83.5z" />
    <glyph glyph-name="igrave.small" horiz-adv-x="222" 
d="M93 0v568h36v-568h-36zM106 630l-96 129q8 3 23 3q7 0 28 -3l63 -129q-4 -2 -9 -2q-3 0 -9 2z" />
    <glyph glyph-name="iacute.small" horiz-adv-x="222" 
d="M93 0v568h36v-568h-36zM96 630l63 129q18 3 28 3q15 0 23 -3l-96 -129q-6 -2 -9 -2t-9 2z" />
    <glyph glyph-name="icircumflex.small" horiz-adv-x="222" 
d="M93 0v568h36v-568h-36zM2 630l83 129q9 3 26 3t25 -3l84 -129q-6 -2 -11 -2q-3 0 -9 2l-88 106h-2l-89 -106q-6 -2 -9 -2q-4 0 -10 2z" />
    <glyph glyph-name="itilde.small" horiz-adv-x="222" 
d="M93 0v568h36v-568h-36zM-37 653q16 40 34 61t28.5 24t25.5 3q27 0 66 -30.5t62 -30.5q34 0 61 60q3 1 11 1q6 0 9 -1q-23 -55 -42.5 -71.5t-40.5 -16.5q-26 0 -66.5 31.5t-62.5 31.5t-39 -19.5t-26 -42.5q-6 -2 -10 -2t-10 2z" />
    <glyph glyph-name="idieresis.small" horiz-adv-x="222" 
d="M93 0v568h36v-568h-36zM-1 691q0 13 8.5 21t20.5 8t20 -8t8 -21q0 -12 -8 -20t-20 -8t-20.5 8t-8.5 20zM164 691q0 13 8.5 21t20.5 8t20 -8t8 -21t-8 -20.5t-20 -7.5t-20.5 8t-8.5 20z" />
    <glyph glyph-name="imacron.small" horiz-adv-x="222" 
d="M93 0v568h36v-568h-36zM-11 673v24h244v-24h-244z" />
    <glyph glyph-name="ibreve.small" horiz-adv-x="222" 
d="M93 0v568h36v-568h-36zM-1 747q2 2 10 2q7 0 9 -2q14 -89 93 -89q78 0 92 89q4 2 10 2q5 0 9 -2q-13 -116 -111 -116q-49 0 -78 30.5t-34 85.5z" />
    <glyph glyph-name="idotaccent.small" horiz-adv-x="222" 
d="M93 0v568h36v-568h-36zM111 662q-12 0 -20 8.5t-8 20.5t8 20t20 8t19.5 -8t7.5 -20t-7.5 -20.5t-19.5 -8.5z" />
    <glyph glyph-name="iogonek.small" horiz-adv-x="222" 
d="M130 -180l6 -10q-25 -25 -71 -25q-81 0 -81 68q0 49 35 87t85 60h-11v568h36v-568q-114 -57 -114 -145q0 -51 59 -51q35 0 56 16z" />
    <glyph glyph-name="ij.small" horiz-adv-x="559" 
d="M93 0v568h36v-568h-36zM434 121v447h35v-454q0 -64 -35 -93t-106 -29q-64 0 -79 9q0 1 -0.5 4t-0.5 5q0 12 3 17q33 -14 78 -14q58 0 81.5 24.5t23.5 83.5z" />
    <glyph glyph-name="jcircumflex.small" horiz-adv-x="349" 
d="M224 121v447h35v-454q0 -64 -35 -93t-106 -29q-64 0 -79 9q0 1 -0.5 4t-0.5 5q0 12 3 17q33 -14 78 -14q58 0 81.5 24.5t23.5 83.5zM130 630l83 129q9 3 26 3t25 -3l84 -129q-6 -2 -11 -2q-3 0 -9 2l-88 106h-2l-89 -106q-6 -2 -9 -2q-4 0 -10 2z" />
    <glyph glyph-name="kcommaaccent.small" horiz-adv-x="477" 
d="M93 0v568h36v-270h2l273 270h35v-4l-272 -265l277 -295v-4h-43l-270 289h-2v-289h-36zM196 -199q19 13 30.5 36.5t12.5 43.5q-14 0 -23.5 8.5t-9.5 21.5t7.5 21.5t20.5 8.5q32 0 32 -37q0 -40 -19 -72t-37 -39q-11 0 -14 8z" />
    <glyph glyph-name="kgreenlandic.small" horiz-adv-x="476" 
d="M93 0v568h36v-270h2l273 270h35v-4l-272 -265l277 -295v-4h-43l-270 289h-2v-289h-36z" />
    <glyph glyph-name="lacute.small" horiz-adv-x="432" 
d="M93 0v568h36v-545h270v-23h-306zM106 630l63 129q18 3 28 3q15 0 23 -3l-96 -129q-6 -2 -9 -2t-9 2z" />
    <glyph glyph-name="lcaron.small" horiz-adv-x="432" 
d="M93 0v568h36v-545h270v-23h-306zM236 445q35 28 37 78h-2q-12 0 -20 7t-8 19q0 27 25 27q29 0 29 -34q0 -39 -16.5 -69t-32.5 -38q-4 0 -8 3t-4 7z" />
    <glyph glyph-name="lcommaaccent.small" horiz-adv-x="432" 
d="M93 0v568h36v-545h270v-23h-306zM210 -199q19 13 30.5 36.5t12.5 43.5q-14 0 -23.5 8.5t-9.5 21.5t7.5 21.5t20.5 8.5q32 0 32 -37q0 -40 -19 -72t-37 -39q-11 0 -14 8z" />
    <glyph glyph-name="ldot.small" horiz-adv-x="432" 
d="M93 0v568h36v-545h270v-23h-306zM305 280q-12 0 -20 8t-8 20t8 20.5t20 8.5t19.5 -8.5t7.5 -20.5t-7.5 -20t-19.5 -8z" />
    <glyph glyph-name="lslash.small" horiz-adv-x="469" 
d="M130 0v217l-68 -41v26l68 40v326h36v-310l160 92v-26l-160 -90v-211h270v-23h-306z" />
    <glyph glyph-name="nacute.small" horiz-adv-x="613" 
d="M93 0v568h37l245 -347q101 -145 114 -168h3q-3 63 -3 219v296h31v-568h-26l-254 358q-93 129 -116 173h-3q3 -48 3 -206v-325h-31zM307 630l63 129q18 3 28 3q16 0 23 -3l-96 -129q-6 -2 -9 -2t-9 2z" />
    <glyph glyph-name="ncaron.small" horiz-adv-x="613" 
d="M93 0v568h37l245 -347q101 -145 114 -168h3q-3 63 -3 219v296h31v-568h-26l-254 358q-93 129 -116 173h-3q3 -48 3 -206v-325h-31zM302 632l-83 129q9 3 10 3q5 0 9 -3l89 -105h2l88 105q5 3 9 3q2 0 11 -3l-84 -129q-5 -2 -25 -2t-26 2z" />
    <glyph glyph-name="ntilde.small" horiz-adv-x="613" 
d="M93 0v568h37l245 -347q101 -145 114 -168h3q-3 63 -3 219v296h31v-568h-26l-254 358q-93 129 -116 173h-3q3 -48 3 -206v-325h-31zM169 653q16 40 34 61t28.5 24t25.5 3q27 0 66 -30.5t62 -30.5q34 0 61 60q3 1 11 1q6 0 9 -1q-23 -55 -42.5 -71.5t-40.5 -16.5
q-26 0 -66.5 31.5t-62.5 31.5t-39 -19.5t-26 -42.5q-6 -2 -10 -2t-10 2z" />
    <glyph glyph-name="napostrophe.small" horiz-adv-x="613" 
d="M93 0v568h37l245 -347q101 -145 114 -168h3q-3 63 -3 219v296h31v-568h-26l-254 358q-93 129 -116 173h-3q3 -48 3 -206v-325h-31zM43 641q19 13 30.5 36.5t12.5 43.5q-14 0 -23.5 8.5t-9.5 21.5t7.5 21.5t20.5 8.5q32 0 32 -37q0 -40 -19 -72t-37 -39q-11 0 -14 8z" />
    <glyph glyph-name="ncommaaccent.small" horiz-adv-x="613" 
d="M93 0v568h37l245 -347q101 -145 114 -168h3q-3 63 -3 219v296h31v-568h-26l-254 358q-93 129 -116 173h-3q3 -48 3 -206v-325h-31zM274 -199q19 13 30.5 36.5t12.5 43.5q-14 0 -23.5 8.5t-9.5 21.5t7.5 21.5t20.5 8.5q32 0 32 -37q0 -40 -19 -72t-37 -39q-11 0 -14 8z
" />
    <glyph glyph-name="ograve.small" horiz-adv-x="621" 
d="M310 -10q-119 0 -183 80.5t-64 213.5t64 213.5t183 80.5q118 0 183.5 -81t65.5 -213t-65.5 -213t-183.5 -81zM310 10q100 0 153.5 72.5t53.5 201.5q0 130 -53 202t-154 72t-154 -72t-53 -202q0 -129 53 -201.5t154 -72.5zM299 630l-96 129q8 3 23 3q7 0 28 -3l63 -129
q-4 -2 -9 -2q-3 0 -9 2z" />
    <glyph glyph-name="oacute.small" horiz-adv-x="621" 
d="M310 -10q-119 0 -183 80.5t-64 213.5t64 213.5t183 80.5q118 0 183.5 -81t65.5 -213t-65.5 -213t-183.5 -81zM310 10q100 0 153.5 72.5t53.5 201.5q0 130 -53 202t-154 72t-154 -72t-53 -202q0 -129 53 -201.5t154 -72.5zM303 630l63 129q18 3 28 3q16 0 23 -3l-96 -129
q-6 -2 -9 -2t-9 2z" />
    <glyph glyph-name="ocircumflex.small" horiz-adv-x="621" 
d="M310 -10q-119 0 -183 80.5t-64 213.5t64 213.5t183 80.5q118 0 183.5 -81t65.5 -213t-65.5 -213t-183.5 -81zM310 10q100 0 153.5 72.5t53.5 201.5q0 130 -53 202t-154 72t-154 -72t-53 -202q0 -129 53 -201.5t154 -72.5zM201 630l83 129q9 3 26 3q18 0 25 -3l84 -129
q-6 -2 -11 -2q-3 0 -9 2l-88 106h-2l-89 -106q-6 -2 -9 -2q-4 0 -10 2z" />
    <glyph glyph-name="otilde.small" horiz-adv-x="621" 
d="M310 -10q-119 0 -183 80.5t-64 213.5t64 213.5t183 80.5q118 0 183.5 -81t65.5 -213t-65.5 -213t-183.5 -81zM310 10q100 0 153.5 72.5t53.5 201.5q0 130 -53 202t-154 72t-154 -72t-53 -202q0 -129 53 -201.5t154 -72.5zM164 653q16 40 34 61t28.5 24t25.5 3
q27 0 66 -30.5t62 -30.5q34 0 61 60q3 1 11 1q6 0 9 -1q-23 -55 -42.5 -71.5t-40.5 -16.5q-26 0 -66.5 31.5t-62.5 31.5t-39 -19.5t-26 -42.5q-6 -2 -10 -2t-10 2z" />
    <glyph glyph-name="odieresis.small" horiz-adv-x="621" 
d="M310 -10q-119 0 -183 80.5t-64 213.5t64 213.5t183 80.5q118 0 183.5 -81t65.5 -213t-65.5 -213t-183.5 -81zM310 10q100 0 153.5 72.5t53.5 201.5q0 130 -53 202t-154 72t-154 -72t-53 -202q0 -129 53 -201.5t154 -72.5zM200 691q0 13 8.5 21t20.5 8q11 0 19.5 -8
t8.5 -21q0 -12 -8 -20t-20 -8t-20.5 8t-8.5 20zM365 691q0 13 8.5 21t20.5 8t20 -8t8 -21t-8 -20.5t-20 -7.5t-20.5 8t-8.5 20z" />
    <glyph glyph-name="omacron.small" horiz-adv-x="621" 
d="M310 -10q-119 0 -183 80.5t-64 213.5t64 213.5t183 80.5q118 0 183.5 -81t65.5 -213t-65.5 -213t-183.5 -81zM310 10q100 0 153.5 72.5t53.5 201.5q0 130 -53 202t-154 72t-154 -72t-53 -202q0 -129 53 -201.5t154 -72.5zM190 673v24h244v-24h-244z" />
    <glyph glyph-name="obreve.small" horiz-adv-x="621" 
d="M310 -10q-119 0 -183 80.5t-64 213.5t64 213.5t183 80.5q118 0 183.5 -81t65.5 -213t-65.5 -213t-183.5 -81zM310 10q100 0 153.5 72.5t53.5 201.5q0 130 -53 202t-154 72t-154 -72t-53 -202q0 -129 53 -201.5t154 -72.5zM200 747q2 2 10 2q7 0 9 -2q14 -89 93 -89
q78 0 92 89q4 2 10 2q5 0 9 -2q-13 -116 -111 -116q-49 0 -78 30.5t-34 85.5z" />
    <glyph glyph-name="ohungarumlaut.small" horiz-adv-x="621" 
d="M310 -10q-119 0 -183 80.5t-64 213.5t64 213.5t183 80.5q118 0 183.5 -81t65.5 -213t-65.5 -213t-183.5 -81zM310 10q100 0 153.5 72.5t53.5 201.5q0 130 -53 202t-154 72t-154 -72t-53 -202q0 -129 53 -201.5t154 -72.5zM244 630l43 129q18 3 29 3q16 0 24 -3l-78 -129
q-6 -2 -9 -2t-9 2zM358 630l58 129q18 3 29 3q15 0 24 -3l-91 -129q-6 -2 -10 -2q-6 0 -10 2z" />
    <glyph glyph-name="oslash.small" horiz-adv-x="621" 
d="M89 -6l47 66q-73 79 -73 224q0 133 64 213.5t183 80.5q97 0 161 -58l47 65l22 -14l-51 -69q70 -81 70 -218q0 -132 -65.5 -213t-183.5 -81q-93 0 -156 52l-44 -61zM154 84l300 414q-52 60 -144 60q-101 0 -154 -72t-53 -202q0 -128 51 -200zM471 476l-301 -412
q51 -54 140 -54q100 0 153.5 72.5t53.5 201.5q0 120 -46 192z" />
    <glyph glyph-name="oslashacute.small" horiz-adv-x="621" 
d="M89 -6l47 66q-73 79 -73 224q0 133 64 213.5t183 80.5q97 0 161 -58l47 65l22 -14l-51 -69q70 -81 70 -218q0 -132 -65.5 -213t-183.5 -81q-93 0 -156 52l-44 -61zM154 84l300 414q-52 60 -144 60q-101 0 -154 -72t-53 -202q0 -128 51 -200zM471 476l-301 -412
q51 -54 140 -54q100 0 153.5 72.5t53.5 201.5q0 120 -46 192zM303 630l63 129q18 3 28 3q16 0 23 -3l-96 -129q-6 -2 -9 -2t-9 2z" />
    <glyph glyph-name="oe.small" horiz-adv-x="756" 
d="M427 22h275v-22h-309q-42 -10 -82 -10q-117 0 -182.5 81t-65.5 213t65.5 213t182.5 81q39 0 81 -10h297v-22h-262v-243h237q0 -1 0.5 -5.5t0.5 -7.5q0 -7 -1 -9h-237v-259zM391 19v530q-32 9 -81 9q-98 0 -152 -72.5t-54 -201.5q0 -128 54 -201t152 -73q49 0 81 9z" />
    <glyph glyph-name="racute.small" horiz-adv-x="479" 
d="M93 0v568h97q116 0 168 -40.5t52 -119.5q0 -125 -131 -156l148 -248v-4h-37l-147 246q-25 -3 -56 -3h-58v-243h-36zM129 264h63q94 0 136 36t42 108t-41.5 105.5t-136.5 33.5h-63v-283zM230 630l63 129q18 3 28 3q15 0 23 -3l-96 -129q-6 -2 -9 -2t-9 2z" />
    <glyph glyph-name="rcaron.small" horiz-adv-x="479" 
d="M93 0v568h97q116 0 168 -40.5t52 -119.5q0 -125 -131 -156l148 -248v-4h-37l-147 246q-25 -3 -56 -3h-58v-243h-36zM129 264h63q94 0 136 36t42 108t-41.5 105.5t-136.5 33.5h-63v-283zM211 632l-83 129q9 3 10 3q4 0 9 -3l89 -105h2l88 105q4 3 9 3q2 0 11 -3l-84 -129
q-5 -2 -25 -2t-26 2z" />
    <glyph glyph-name="rcommaaccent.small" horiz-adv-x="479" 
d="M93 0v568h97q116 0 168 -40.5t52 -119.5q0 -125 -131 -156l148 -248v-4h-37l-147 246q-25 -3 -56 -3h-58v-243h-36zM129 264h63q94 0 136 36t42 108t-41.5 105.5t-136.5 33.5h-63v-283zM201 -199q19 13 30.5 36.5t12.5 43.5q-14 0 -23.5 8.5t-9.5 21.5t7.5 21.5t20.5 8.5
q32 0 32 -37q0 -40 -19 -72t-37 -39q-11 0 -14 8z" />
    <glyph glyph-name="sacute.small" horiz-adv-x="487" 
d="M49 106q14 14 33 15q43 -111 160 -111q68 0 107 36t39 100q0 31 -11.5 54t-37.5 39t-45.5 24.5t-57.5 21.5q-39 14 -60 23t-47.5 26.5t-38.5 41.5t-12 56q0 63 46.5 104.5t122.5 41.5q78 0 119.5 -32.5t53.5 -69.5q-7 -11 -32 -13q-6 16 -12.5 27t-21.5 29.5t-42.5 28.5
t-63.5 10q-63 0 -98 -31.5t-35 -92.5q0 -27 11 -47t36 -35.5t44.5 -23.5t56.5 -21q38 -13 60.5 -23.5t49.5 -29t40 -45t13 -61.5q0 -68 -47.5 -113t-137.5 -45q-75 0 -123 31.5t-69 84.5zM237 630l63 129q18 3 28 3q16 0 23 -3l-96 -129q-6 -2 -9 -2t-9 2z" />
    <glyph glyph-name="scircumflex.small" horiz-adv-x="487" 
d="M49 106q14 14 33 15q43 -111 160 -111q68 0 107 36t39 100q0 31 -11.5 54t-37.5 39t-45.5 24.5t-57.5 21.5q-39 14 -60 23t-47.5 26.5t-38.5 41.5t-12 56q0 63 46.5 104.5t122.5 41.5q78 0 119.5 -32.5t53.5 -69.5q-7 -11 -32 -13q-6 16 -12.5 27t-21.5 29.5t-42.5 28.5
t-63.5 10q-63 0 -98 -31.5t-35 -92.5q0 -27 11 -47t36 -35.5t44.5 -23.5t56.5 -21q38 -13 60.5 -23.5t49.5 -29t40 -45t13 -61.5q0 -68 -47.5 -113t-137.5 -45q-75 0 -123 31.5t-69 84.5zM144 630l83 129q9 3 26 3t25 -3l84 -129q-6 -2 -11 -2q-3 0 -9 2l-88 106h-2
l-89 -106q-6 -2 -9 -2q-4 0 -10 2z" />
    <glyph glyph-name="scaron.small" horiz-adv-x="487" 
d="M49 106q14 14 33 15q43 -111 160 -111q68 0 107 36t39 100q0 31 -11.5 54t-37.5 39t-45.5 24.5t-57.5 21.5q-39 14 -60 23t-47.5 26.5t-38.5 41.5t-12 56q0 63 46.5 104.5t122.5 41.5q78 0 119.5 -32.5t53.5 -69.5q-7 -11 -32 -13q-6 16 -12.5 27t-21.5 29.5t-42.5 28.5
t-63.5 10q-63 0 -98 -31.5t-35 -92.5q0 -27 11 -47t36 -35.5t44.5 -23.5t56.5 -21q38 -13 60.5 -23.5t49.5 -29t40 -45t13 -61.5q0 -68 -47.5 -113t-137.5 -45q-75 0 -123 31.5t-69 84.5zM226 632l-83 129q9 3 10 3q5 0 9 -3l89 -105h2l88 105q5 3 9 3q2 0 11 -3l-84 -129
q-5 -2 -25 -2t-26 2z" />
    <glyph glyph-name="scedilla.small" horiz-adv-x="487" 
d="M167 -188l4 15q24 -16 60 -16q52 0 52 48q0 27 -20 39t-65 22l21 71q-129 10 -170 115q14 14 33 15q43 -111 160 -111q68 0 107 36t39 100q0 31 -11.5 54t-37.5 39t-45.5 24.5t-57.5 21.5q-39 14 -60 23t-47.5 26.5t-38.5 41.5t-12 56q0 63 46.5 104.5t122.5 41.5
q78 0 119 -32t54 -70q-7 -11 -32 -13q-6 16 -12.5 27t-21.5 29.5t-42.5 28.5t-63.5 10q-63 0 -98 -31.5t-35 -92.5q0 -27 11 -47t36 -35.5t44.5 -23.5t56.5 -21q38 -13 60.5 -23.5t49.5 -29t40 -45t13 -61.5q0 -68 -47.5 -113t-137.5 -45l-15 -50q88 -15 88 -77
q0 -36 -22 -54t-57 -18q-44 0 -68 21z" />
    <glyph glyph-name="scommaaccent.small" horiz-adv-x="487" 
d="M49 106q14 14 33 15q43 -111 160 -111q68 0 107 36t39 100q0 31 -11.5 54t-37.5 39t-45.5 24.5t-57.5 21.5q-39 14 -60 23t-47.5 26.5t-38.5 41.5t-12 56q0 63 46.5 104.5t122.5 41.5q78 0 119.5 -32.5t53.5 -69.5q-7 -11 -32 -13q-6 16 -12.5 27t-21.5 29.5t-42.5 28.5
t-63.5 10q-63 0 -98 -31.5t-35 -92.5q0 -27 11 -47t36 -35.5t44.5 -23.5t56.5 -21q38 -13 60.5 -23.5t49.5 -29t40 -45t13 -61.5q0 -68 -47.5 -113t-137.5 -45q-75 0 -123 31.5t-69 84.5zM200 -199q19 13 30.5 36.5t12.5 43.5q-14 0 -23.5 8.5t-9.5 21.5t7.5 21.5t20.5 8.5
q32 0 32 -37q0 -40 -19 -72t-37 -39q-11 0 -14 8z" />
    <glyph glyph-name="germandbls.small" horiz-adv-x="962" 
d="M49 106q14 14 33 15q43 -111 160 -111q68 0 107 36t39 100q0 31 -11.5 54t-37.5 39t-45.5 24.5t-57.5 21.5q-39 14 -60 23t-47.5 26.5t-38.5 41.5t-12 56q0 63 46.5 104.5t122.5 41.5q78 0 119.5 -32.5t53.5 -69.5q-7 -11 -32 -13q-6 16 -12.5 27t-21.5 29.5t-42.5 28.5
t-63.5 10q-63 0 -98 -31.5t-35 -92.5q0 -27 11 -47t36 -35.5t44.5 -23.5t56.5 -21q38 -13 60.5 -23.5t49.5 -29t40 -45t13 -61.5q0 -68 -47.5 -113t-137.5 -45q-75 0 -123 31.5t-69 84.5zM524 106q14 14 33 15q43 -111 160 -111q68 0 107 36t39 100q0 31 -11.5 54t-37.5 39
t-45.5 24.5t-57.5 21.5q-39 14 -60 23t-47.5 26.5t-38.5 41.5t-12 56q0 63 46.5 104.5t122.5 41.5q78 0 119.5 -32.5t53.5 -69.5q-7 -11 -32 -13q-6 16 -12.5 27t-21.5 29.5t-42.5 28.5t-63.5 10q-63 0 -98 -31.5t-35 -92.5q0 -27 11 -47t36 -35.5t44.5 -23.5t56.5 -21
q38 -13 60.5 -23.5t49.5 -29t40 -45t13 -61.5q0 -68 -47.5 -113t-137.5 -45q-75 0 -123 31.5t-69 84.5z" />
    <glyph glyph-name="tcaron.small" horiz-adv-x="443" 
d="M204 0v545h-172v23h380v-23h-173v-545h-35zM197 632l-83 129q9 3 10 3q4 0 9 -3l89 -105h2l88 105q4 3 9 3q2 0 11 -3l-84 -129q-5 -2 -25 -2t-26 2z" />
    <glyph glyph-name="tcommaaccent.small" horiz-adv-x="443" 
d="M155 -188l4 15q24 -16 60 -16q52 0 52 48q0 27 -20 39t-65 22l24 80h-6v545h-172v23h380v-23h-173v-545h-7l-18 -60q88 -15 88 -77q0 -36 -22 -54t-57 -18q-44 0 -68 21z" />
    <glyph glyph-name="uni021B.small" horiz-adv-x="443" 
d="M204 0v545h-172v23h380v-23h-173v-545h-35zM183 -199q19 13 30.5 36.5t12.5 43.5q-14 0 -23.5 8.5t-9.5 21.5t7.5 21.5t20.5 8.5q32 0 32 -37q0 -40 -19 -72t-37 -39q-11 0 -14 8z" />
    <glyph glyph-name="tbar.small" horiz-adv-x="443" 
d="M204 0v307h-104v24h104v214h-172v23h380v-23h-173v-214h105v-24h-105v-307h-35z" />
    <glyph glyph-name="ugrave.small" horiz-adv-x="609" 
d="M90 232v336h36v-336q0 -117 46 -168.5t136 -51.5t136 52t46 170v334h29v-335q0 -124 -52 -183.5t-165 -59.5t-162.5 59t-49.5 183zM319 630l-96 129q8 3 23 3q7 0 28 -3l63 -129q-4 -2 -9 -2q-3 0 -9 2z" />
    <glyph glyph-name="uacute.small" horiz-adv-x="609" 
d="M90 232v336h36v-336q0 -117 46 -168.5t136 -51.5t136 52t46 170v334h29v-335q0 -124 -52 -183.5t-165 -59.5t-162.5 59t-49.5 183zM303 630l63 129q18 3 28 3q16 0 23 -3l-96 -129q-6 -2 -9 -2t-9 2z" />
    <glyph glyph-name="ucircumflex.small" horiz-adv-x="609" 
d="M90 232v336h36v-336q0 -117 46 -168.5t136 -51.5t136 52t46 170v334h29v-335q0 -124 -52 -183.5t-165 -59.5t-162.5 59t-49.5 183zM196 630l83 129q9 3 26 3t25 -3l84 -129q-6 -2 -11 -2q-3 0 -9 2l-88 106h-2l-89 -106q-6 -2 -9 -2q-4 0 -10 2z" />
    <glyph glyph-name="utilde.small" horiz-adv-x="609" 
d="M90 232v336h36v-336q0 -117 46 -168.5t136 -51.5t136 52t46 170v334h29v-335q0 -124 -52 -183.5t-165 -59.5t-162.5 59t-49.5 183zM167 653q16 40 34 61t28.5 24t25.5 3q27 0 66 -30.5t62 -30.5q34 0 61 60q3 1 11 1q6 0 9 -1q-23 -55 -42.5 -71.5t-40.5 -16.5
q-26 0 -66.5 31.5t-62.5 31.5t-39 -19.5t-26 -42.5q-6 -2 -10 -2t-10 2z" />
    <glyph glyph-name="udieresis.small" horiz-adv-x="609" 
d="M90 232v336h36v-336q0 -117 46 -168.5t136 -51.5t136 52t46 170v334h29v-335q0 -124 -52 -183.5t-165 -59.5t-162.5 59t-49.5 183zM198 691q0 13 8.5 21t20.5 8q11 0 19.5 -8t8.5 -21q0 -12 -8 -20t-20 -8t-20.5 8t-8.5 20zM363 691q0 13 8.5 21t20.5 8t20 -8t8 -21
t-8 -20.5t-20 -7.5t-20.5 8t-8.5 20z" />
    <glyph glyph-name="umacron.small" horiz-adv-x="609" 
d="M90 232v336h36v-336q0 -117 46 -168.5t136 -51.5t136 52t46 170v334h29v-335q0 -124 -52 -183.5t-165 -59.5t-162.5 59t-49.5 183zM189 673v24h244v-24h-244z" />
    <glyph glyph-name="ubreve.small" horiz-adv-x="609" 
d="M90 232v336h36v-336q0 -117 46 -168.5t136 -51.5t136 52t46 170v334h29v-335q0 -124 -52 -183.5t-165 -59.5t-162.5 59t-49.5 183zM199 747q2 2 10 2q7 0 9 -2q14 -89 93 -89q78 0 92 89q4 2 10 2q5 0 9 -2q-13 -116 -111 -116q-49 0 -78 30.5t-34 85.5z" />
    <glyph glyph-name="uring.small" horiz-adv-x="609" 
d="M90 232v336h36v-336q0 -117 46 -168.5t136 -51.5t136 52t46 170v334h29v-335q0 -124 -52 -183.5t-165 -59.5t-162.5 59t-49.5 183zM311 611q-32 0 -51.5 20t-19.5 52q0 31 19.5 51t51.5 20t51.5 -20t19.5 -51q0 -32 -19 -52t-52 -20zM311 630q22 0 34.5 15t12.5 38
t-12.5 38t-34.5 15t-34 -14.5t-12 -38.5t12 -38.5t34 -14.5z" />
    <glyph glyph-name="uhungarumlaut.small" horiz-adv-x="609" 
d="M90 232v336h36v-336q0 -117 46 -168.5t136 -51.5t136 52t46 170v334h29v-335q0 -124 -52 -183.5t-165 -59.5t-162.5 59t-49.5 183zM239 630l43 129q18 3 29 3q17 0 24 -3l-78 -129q-6 -2 -9 -2t-9 2zM353 630l58 129q18 3 29 3q15 0 24 -3l-91 -129q-6 -2 -10 -2
q-6 0 -10 2z" />
    <glyph glyph-name="uogonek.small" horiz-adv-x="609" 
d="M423 -180l6 -10q-25 -25 -71 -25q-81 0 -81 68q0 77 90 142q-30 -5 -65 -5q-113 0 -162.5 59t-49.5 183v336h36v-336q0 -117 46 -168.5t136 -51.5t136 52t46 170v334h29v-335q0 -87 -22.5 -137.5t-72.5 -80.5q-55 -33 -85.5 -76t-30.5 -84q0 -51 59 -51q35 0 56 16z" />
    <glyph glyph-name="wgrave.small" horiz-adv-x="801" 
d="M205 0l-167 564v4h35l96 -332q45 -157 55 -203h3q7 43 55 202l99 333h46l100 -336q47 -155 54 -198h3q3 22 54 198l96 336h30v-4l-166 -564h-37l-101 333q-35 113 -57 208h-3q-15 -64 -58 -207l-100 -334h-37zM399 630l-96 129q8 3 23 3q7 0 28 -3l63 -129q-4 -2 -9 -2
q-3 0 -9 2z" />
    <glyph glyph-name="wacute.small" horiz-adv-x="801" 
d="M205 0l-167 564v4h35l96 -332q45 -157 55 -203h3q7 43 55 202l99 333h46l100 -336q47 -155 54 -198h3q3 22 54 198l96 336h30v-4l-166 -564h-37l-101 333q-35 113 -57 208h-3q-15 -64 -58 -207l-100 -334h-37zM386 630l63 129q18 3 28 3q15 0 23 -3l-96 -129q-6 -2 -9 -2
t-9 2z" />
    <glyph glyph-name="wcircumflex.small" horiz-adv-x="801" 
d="M205 0l-167 564v4h35l96 -332q45 -157 55 -203h3q7 43 55 202l99 333h46l100 -336q47 -155 54 -198h3q3 22 54 198l96 336h30v-4l-166 -564h-37l-101 333q-35 113 -57 208h-3q-15 -64 -58 -207l-100 -334h-37zM295 630l83 129q9 3 26 3q18 0 25 -3l84 -129q-6 -2 -11 -2
q-3 0 -9 2l-88 106h-2l-89 -106q-6 -2 -9 -2q-4 0 -10 2z" />
    <glyph glyph-name="wdieresis.small" horiz-adv-x="801" 
d="M205 0l-167 564v4h35l96 -332q45 -157 55 -203h3q7 43 55 202l99 333h46l100 -336q47 -155 54 -198h3q3 22 54 198l96 336h30v-4l-166 -564h-37l-101 333q-35 113 -57 208h-3q-15 -64 -58 -207l-100 -334h-37zM292 691q0 13 8.5 21t20.5 8q11 0 19.5 -8t8.5 -21
q0 -12 -8 -20t-20 -8t-20.5 8t-8.5 20zM457 691q0 13 8.5 21t20.5 8t20 -8t8 -21t-8 -20.5t-20 -7.5t-20.5 8t-8.5 20z" />
    <glyph glyph-name="uni1E8B.small" horiz-adv-x="512" 
d="M39 0v4l197 285l-185 275v4h35l171 -256l175 256h28v-4l-187 -270l200 -290v-4h-38l-182 269l-186 -269h-28zM262 662q-12 0 -20 8.5t-8 20.5t8 20t20 8t19.5 -8t7.5 -20t-7.5 -20.5t-19.5 -8.5z" />
    <glyph glyph-name="ygrave.small" horiz-adv-x="484" 
d="M224 0v220l-185 344v4h35l171 -322h1l172 322h29v-4l-187 -344v-220h-36zM253 630l-96 129q7 3 23 3q7 0 28 -3l63 -129q-4 -2 -9 -2q-3 0 -9 2z" />
    <glyph glyph-name="yacute.small" horiz-adv-x="484" 
d="M224 0v220l-185 344v4h35l171 -322h1l172 322h29v-4l-187 -344v-220h-36zM234 630l63 129q18 3 28 3q15 0 23 -3l-96 -129q-6 -2 -9 -2t-9 2z" />
    <glyph glyph-name="ycircumflex.small" horiz-adv-x="484" 
d="M224 0v220l-185 344v4h35l171 -322h1l172 322h29v-4l-187 -344v-220h-36zM140 630l83 129q9 3 26 3t25 -3l84 -129q-6 -2 -11 -2q-3 0 -9 2l-88 106h-2l-89 -106q-6 -2 -9 -2q-4 0 -10 2z" />
    <glyph glyph-name="ydieresis.small" horiz-adv-x="484" 
d="M224 0v220l-185 344v4h35l171 -322h1l172 322h29v-4l-187 -344v-220h-36zM134 691q0 13 8.5 21t20.5 8q11 0 19.5 -8t8.5 -21q0 -12 -8 -20t-20 -8t-20.5 8t-8.5 20zM299 691q0 13 8.5 21t20.5 8t20 -8t8 -21t-8 -20.5t-20 -7.5t-20.5 8t-8.5 20z" />
    <glyph glyph-name="zacute.small" horiz-adv-x="518" 
d="M54 0v10l363 536h-344v22h391v-11l-363 -535h360v-22h-407zM252 630l63 129q18 3 28 3q16 0 23 -3l-96 -129q-6 -2 -9 -2t-9 2z" />
    <glyph glyph-name="zcaron.small" horiz-adv-x="518" 
d="M54 0v10l363 536h-344v22h391v-11l-363 -535h360v-22h-407zM257 632l-83 129q9 3 10 3q4 0 9 -3l89 -105h2l88 105q4 3 9 3q2 0 11 -3l-84 -129q-5 -2 -25 -2t-26 2z" />
    <glyph glyph-name="zdotaccent.small" horiz-adv-x="518" 
d="M54 0v10l363 536h-344v22h391v-11l-363 -535h360v-22h-407zM275 662q-12 0 -20 8.5t-8 20.5t8 20t20 8t19.5 -8t7.5 -20t-7.5 -20.5t-19.5 -8.5z" />
    <glyph glyph-name="uni01B6.small" horiz-adv-x="518" 
d="M54 0v10l183 271h-164v25h181l163 240h-344v22h391v-11l-170 -251h170v-25h-187l-176 -259h360v-22h-407z" />
    <glyph glyph-name="eng.small" horiz-adv-x="613" 
d="M93 0v568h37l245 -347q101 -145 114 -168h3q-3 63 -3 219v296h31v-648q0 -68 -24 -95.5t-81 -27.5q-27 0 -41 4q-2 2 -2 9q0 10 3 15q16 -7 42 -7q44 0 58 25t14 88v76l-249 351q-93 129 -116 173h-3q3 -48 3 -206v-325h-31z" />
    <glyph glyph-name="eth.small" horiz-adv-x="581" 
d="M113 0v279h-70v22h70v267h125q280 0 280 -284q0 -135 -68.5 -209.5t-209.5 -74.5h-127zM149 21h90q237 0 237 263q0 131 -57 197t-179 66h-91v-246h175v-22h-175v-258z" />
    <glyph glyph-name="thorn.small" horiz-adv-x="479" 
d="M93 0v568h36v-108h66q219 0 219 -164q0 -163 -219 -163h-66v-133h-36zM129 152h66q94 0 136.5 35.5t42.5 107.5q0 73 -42 109t-137 36h-66v-288z" />
    <glyph glyph-name="uni0259.small" horiz-adv-x="598" 
d="M64 265h428v9q0 137 -52 210.5t-158 73.5q-130 0 -174 -118q-23 5 -32 16q61 121 208 121q129 0 190 -82.5t61 -217.5q0 -127 -63 -207t-184 -80q-111 0 -168 68.5t-57 169.5q0 22 1 37zM491 243h-384q0 -233 182 -233q92 0 143.5 60.5t58.5 172.5z" />
    <glyph glyph-name="i.TRK" horiz-adv-x="199" 
d="M100 614q-12 0 -19.5 8t-7.5 19q0 12 7.5 20.5t19.5 8.5t19.5 -8.5t7.5 -20.5q0 -11 -7.5 -19t-19.5 -8zM82 0v497q15 0 35 4v-400q0 -90 6 -101h-41z" />
    <glyph glyph-name="grave.cap" horiz-adv-x="218" 
d="M144 752l-88 107q8 3 25 3t26 -3l55 -107q-4 -3 -9 -3t-9 3z" />
    <glyph glyph-name="grave.small" horiz-adv-x="226" 
d="M152 630l-96 129q8 3 23 3q7 0 28 -3l63 -129q-4 -2 -9 -2q-3 0 -9 2z" />
    <glyph glyph-name="acute.cap" horiz-adv-x="218" 
d="M56 752l55 107q9 3 25 3q17 0 26 -3l-88 -107q-4 -3 -9 -3t-9 3z" />
    <glyph glyph-name="acute.small" horiz-adv-x="226" 
d="M56 630l63 129q18 3 28 3q15 0 23 -3l-96 -129q-6 -2 -9 -2t-9 2z" />
    <glyph glyph-name="circumflex.cap" horiz-adv-x="305" 
d="M46 750l81 109q7 3 25 3q17 0 26 -3l81 -109q-4 -3 -11 -3q-4 0 -9 3l-86 83h-2l-86 -83q-5 -3 -9 -3q-6 0 -10 3z" />
    <glyph glyph-name="circumflex.small" horiz-adv-x="330" 
d="M56 630l83 129q9 3 26 3t25 -3l84 -129q-6 -2 -11 -2q-3 0 -9 2l-88 106h-2l-89 -106q-6 -2 -9 -2q-4 0 -10 2z" />
    <glyph glyph-name="caron.cap" horiz-adv-x="305" 
d="M127 751l-81 109q9 3 10 3q4 0 9 -3l86 -83h2l86 83q5 3 9 3q2 0 11 -3l-81 -109q-9 -3 -26 -3q-18 0 -25 3z" />
    <glyph glyph-name="caron.alt" horiz-adv-x="173" 
d="M56 581q35 28 37 78h-2q-12 0 -20 7t-8 19q0 27 25 27q29 0 29 -34q0 -39 -16.5 -69t-32.5 -38q-4 0 -8 3t-4 7z" />
    <glyph glyph-name="caron.small" horiz-adv-x="330" 
d="M139 632l-83 129q9 3 10 3q4 0 9 -3l89 -105h2l88 105q4 3 9 3q2 0 11 -3l-84 -129q-5 -2 -25 -2t-26 2z" />
    <glyph glyph-name="commaaccent" horiz-adv-x="228" 
d="M78 -199q19 13 30.5 36.5t12.5 43.5q-14 0 -23.5 8.5t-9.5 21.5t7.5 21.5t20.5 8.5q32 0 32 -37q0 -40 -19 -72t-37 -39q-11 0 -14 8z" />
    <glyph glyph-name="commaaccent.alt" horiz-adv-x="228" 
d="M136 739q4 0 8.5 -3.5t5.5 -7.5q-19 -14 -31 -37.5t-12 -42.5h2q13 0 22 -9t9 -21t-8 -21t-20 -9q-16 0 -24.5 10.5t-8.5 27.5q0 40 19.5 73t37.5 40z" />
    <glyph glyph-name="tilde.cap" horiz-adv-x="409" 
d="M56 766q16 40 34 61t28.5 24t25.5 3q27 0 66 -30.5t62 -30.5q34 0 61 60q3 1 11 1q6 0 9 -1q-23 -55 -42.5 -71.5t-40.5 -16.5q-26 0 -66.5 31.5t-62.5 31.5t-39 -19.5t-26 -42.5q-6 -2 -10 -2t-10 2z" />
    <glyph glyph-name="tilde.small" horiz-adv-x="409" 
d="M56 653q16 40 34 61t28.5 24t25.5 3q27 0 66 -30.5t62 -30.5q34 0 61 60q3 1 11 1q6 0 9 -1q-23 -55 -42.5 -71.5t-40.5 -16.5q-26 0 -66.5 31.5t-62.5 31.5t-39 -19.5t-26 -42.5q-6 -2 -10 -2t-10 2z" />
    <glyph glyph-name="dieresis.cap" horiz-adv-x="355" 
d="M56 791q0 13 8.5 21t20.5 8t20 -8t8 -21q0 -12 -8 -20t-20 -8t-20.5 8t-8.5 20zM242 791q0 13 8 21t20 8t20.5 -8t8.5 -21q0 -12 -8.5 -20t-20.5 -8t-20 8t-8 20z" />
    <glyph glyph-name="dieresis.small" horiz-adv-x="334" 
d="M56 691q0 13 8.5 21t20.5 8q11 0 19.5 -8t8.5 -21q0 -12 -8 -20t-20 -8t-20.5 8t-8.5 20zM221 691q0 13 8.5 21t20.5 8t20 -8t8 -21t-8 -20.5t-20 -7.5t-20.5 8t-8.5 20z" />
    <glyph glyph-name="macron.cap" horiz-adv-x="356" 
d="M56 784v24h244v-24h-244z" />
    <glyph glyph-name="macron.small" horiz-adv-x="356" 
d="M56 673v24h244v-24h-244z" />
    <glyph glyph-name="breve.cap" horiz-adv-x="336" 
d="M56 861q2 2 10 2q7 0 9 -2q5 -33 27.5 -55t65.5 -22t65 22t27 55q4 2 10 2q5 0 9 -2q-6 -49 -34.5 -76.5t-76.5 -27.5t-77 28t-35 76z" />
    <glyph glyph-name="breve.small" horiz-adv-x="336" 
d="M56 747q2 2 10 2q7 0 9 -2q14 -89 93 -89q78 0 92 89q4 2 10 2q5 0 9 -2q-13 -116 -111 -116q-49 0 -78 30.5t-34 85.5z" />
    <glyph glyph-name="ring.cap" horiz-adv-x="254" 
d="M127 727q-32 0 -51.5 20.5t-19.5 51.5q0 32 19.5 52t51.5 20q33 0 52 -20t19 -52q0 -31 -19.5 -51.5t-51.5 -20.5zM127 746q22 0 34.5 15t12.5 38t-12.5 38t-34.5 15t-34 -14.5t-12 -38.5t12 -38.5t34 -14.5z" />
    <glyph glyph-name="ring.small" horiz-adv-x="254" 
d="M127 611q-32 0 -51.5 20t-19.5 52q0 31 19.5 51t51.5 20t51.5 -20t19.5 -51q0 -32 -19 -52t-52 -20zM127 630q22 0 34.5 15t12.5 38t-12.5 38t-34.5 15t-34 -14.5t-12 -38.5t12 -38.5t34 -14.5z" />
    <glyph glyph-name="hungarumlaut.cap" horiz-adv-x="341" 
d="M56 752l37 108q9 3 27 3q17 0 26 -3l-72 -108q-4 -3 -9 -3t-9 3zM180 752l52 108q9 3 26 3q18 0 27 -3l-85 -108q-4 -3 -10 -3q-7 0 -10 3z" />
    <glyph glyph-name="hungarumlaut.small" horiz-adv-x="337" 
d="M56 630l43 129q18 3 29 3q16 0 24 -3l-78 -129q-6 -2 -9 -2t-9 2zM170 630l58 129q18 3 29 3q15 0 24 -3l-91 -129q-6 -2 -10 -2q-6 0 -10 2z" />
    <glyph glyph-name="dotaccent.cap" horiz-adv-x="226" 
d="M113 774q-12 0 -20 8.5t-8 20.5t8 20.5t20 8.5t20 -8.5t8 -20.5t-8 -20.5t-20 -8.5z" />
    <glyph glyph-name="dotaccent.small" horiz-adv-x="167" 
d="M84 662q-12 0 -20 8.5t-8 20.5t8 20t20 8t19.5 -8t7.5 -20t-7.5 -20.5t-19.5 -8.5z" />
    <glyph glyph-name="hyphen.cap" horiz-adv-x="370" 
d="M62 344v31h246v-31h-246z" />
    <glyph glyph-name="exclamdown.cap" horiz-adv-x="232" 
d="M114 571l10 -568q-5 -4 -20 -4q-14 0 -18 4l9 568h19zM104 707q12 0 20 -8t8 -20t-8 -20t-20 -8t-19.5 8t-7.5 20t7.5 20t19.5 8z" />
    <glyph glyph-name="questiondown.cap" horiz-adv-x="451" 
d="M268 573v-39q0 -54 -21 -93.5t-50.5 -64.5l-59 -50t-50.5 -65t-21 -95q0 -69 35.5 -110t109.5 -41q123 0 158 125q24 -2 32 -13q-44 -131 -192 -131q-91 0 -137.5 50.5t-46.5 117.5q0 47 15.5 84.5t39.5 60l52 47.5l52.5 46.5t42 56.5t20.5 79l2 35h19zM258 712
q12 0 19.5 -8t7.5 -20t-7.5 -20t-19.5 -8q-13 0 -20.5 8t-7.5 20t7.5 20t20.5 8z" />
    <glyph glyph-name="endash.cap" horiz-adv-x="570" 
d="M62 344v31h446v-31h-446z" />
    <glyph glyph-name="emdash.cap" horiz-adv-x="790" 
d="M62 344v31h666v-31h-666z" />
    <glyph glyph-name="parenleft.cap" horiz-adv-x="410" 
d="M353 -102v-19q-85 5 -145 68t-87.5 162.5t-27.5 225.5q0 127 27.5 225.5t87.5 161.5t145 68v-19q-74 -5 -125.5 -67.5t-73.5 -156.5t-22 -213t22 -213t73.5 -156.5t125.5 -66.5z" />
    <glyph glyph-name="parenright.cap" horiz-adv-x="410" 
d="M57 -121v19q74 4 125.5 66.5t73.5 156.5t22 213t-22 213t-73.5 156.5t-125.5 67.5v19q85 -5 145 -68t87.5 -161.5t27.5 -225.5q0 -126 -27.5 -225.5t-87.5 -162.5t-145 -68z" />
    <glyph glyph-name="bracketleft.cap" horiz-adv-x="364" 
d="M117 -110v890h190v-19h-154v-852h154v-19h-190z" />
    <glyph glyph-name="bracketright.cap" horiz-adv-x="364" 
d="M57 -110v19h154v852h-154v19h191v-890h-191z" />
    <glyph glyph-name="braceleft.cap" horiz-adv-x="385" 
d="M328 -104v-18q-98 0 -126 38t-28 164q0 111 -14 163.5t-61 80.5v20q47 28 61 80.5t14 163.5q0 126 28 164t126 38v-18q-29 -1 -44 -3t-31 -8.5t-22.5 -17t-12.5 -31.5t-7.5 -49.5t-1.5 -73.5q0 -102 -14.5 -164.5t-54.5 -90.5q40 -28 54.5 -90.5t14.5 -164.5
q0 -45 1.5 -73t7.5 -49.5t12.5 -32t22.5 -17t31 -8.5t44 -3z" />
    <glyph glyph-name="braceright.cap" horiz-adv-x="385" 
d="M57 -123v18q29 1 43.5 3t30.5 8.5t22.5 17t12.5 32t7.5 49.5t1.5 73q0 102 14.5 164.5t55.5 90.5q-41 28 -55.5 90.5t-14.5 164.5q0 54 -3.5 85t-9 52t-22 30t-33 12t-50.5 4v18q98 0 126 -38t28 -164q0 -111 13.5 -163.5t60.5 -80.5v-20q-47 -28 -60.5 -80.5
t-13.5 -163.5q0 -126 -28 -164t-126 -38z" />
    <glyph glyph-name="at.cap" horiz-adv-x="988" 
d="M668 -55v-4q-74 -34 -176 -34q-126 0 -221.5 58.5t-144 155.5t-48.5 216q0 185 113 308.5t303 123.5t303 -104.5t113 -260.5q0 -138 -69.5 -226t-162.5 -88q-78 0 -90 67q-28 -27 -70.5 -46t-89.5 -19q-76 0 -112.5 45t-36.5 123q0 52 14 104.5t42 100.5t76.5 78
t109.5 30q79 0 124 -49l7 40q8 0 36 8l-59 -333q-7 -40 -7 -63q0 -68 58 -68q85 0 138.5 84t53.5 212q0 150 -104 244.5t-274 94.5q-169 0 -273.5 -114t-104.5 -291q0 -181 101.5 -292.5t278.5 -111.5q98 0 166 31q6 -6 6 -20zM586 177v8q0 21 5 48l47 268q-38 53 -121 53
q-52 0 -92 -29t-61.5 -75.5t-32 -95.5t-10.5 -97q0 -145 114 -145q43 0 84.5 18.5t66.5 46.5z" />
    <glyph glyph-name="registered.alt" horiz-adv-x="814" 
d="M407 -11q-153 0 -256.5 105t-103.5 256t103.5 256t256.5 105t256 -105t103 -256t-103 -256t-256 -105zM407 18q144 0 235 95t91 237t-91 237t-235 95t-235 -95t-91 -237t91 -237t235 -95zM293 118v474h81q90 0 135 -35t45 -96q0 -112 -128 -134q24 -10 40 -36l101 -170
v-3h-39l-79 141q-22 40 -35.5 51.5t-46.5 11.5h-39v-204h-35zM328 344h46q73 0 107 27.5t34 86.5t-33 85.5t-108 26.5h-46v-226z" />
    <glyph glyph-name="zero.oldstyle" horiz-adv-x="580" 
d="M290 -12q-114 0 -177 81t-63 215q0 135 62.5 215t177.5 80t177 -79.5t62 -215.5q0 -134 -62.5 -215t-176.5 -81zM290 9q100 0 148.5 72.5t48.5 202.5q0 131 -48.5 203t-148.5 72q-99 0 -148 -72.5t-49 -203.5q0 -130 49 -202t148 -72z" />
    <glyph glyph-name="one.oldstyle" horiz-adv-x="423" 
d="M65 0v22h141v515l-141 -42v19q7 2 72.5 25t84.5 29h19v-546h133v-22h-309z" />
    <glyph glyph-name="two.oldstyle" horiz-adv-x="536" 
d="M45 0v19q21 17 74 52l100 69t95.5 77t77.5 94t29 103q0 66 -38 105.5t-114 39.5q-129 0 -179 -123q-23 0 -31 14q21 52 73.5 90.5t133.5 38.5q96 0 147.5 -46.5t51.5 -125.5q0 -34 -14.5 -68.5t-43.5 -68t-56.5 -61t-70.5 -58.5l-67.5 -47.5l-64.5 -41.5t-46 -29v-2h385
v-31h-442z" />
    <glyph glyph-name="three.oldstyle" horiz-adv-x="522" 
d="M176 236v21h31q97 0 143.5 43.5t46.5 119.5q0 139 -154 139q-113 0 -163 -84q-19 5 -26 19q25 36 72.5 60.5t115.5 24.5q92 0 144.5 -44.5t52.5 -120.5q0 -70 -40.5 -110.5t-102.5 -54.5v-2q71 -11 117 -52t46 -120q0 -90 -58.5 -143.5t-159.5 -53.5q-75 0 -127 26
t-74 61q6 16 26 23q55 -90 175 -90q84 0 129.5 47t45.5 125q0 166 -210 166h-30z" />
    <glyph glyph-name="four.oldstyle" horiz-adv-x="553" 
d="M39 70v25l338 473h41v-469h88v-29h-88v-178h-36v178h-343zM75 99h307v224q0 167 1 212h-2q-25 -44 -130 -191z" />
    <glyph glyph-name="five.oldstyle" horiz-adv-x="518" 
d="M70 235l12 333h362v-31h-335l-10 -272q56 44 151 44q104 0 160.5 -58t56.5 -150q0 -101 -61.5 -161t-163.5 -60q-68 0 -119 25.5t-74 62.5q9 13 28 21q21 -37 64 -63t104 -26q85 0 132 52.5t47 143.5q0 80 -41.5 134.5t-132.5 54.5q-51 0 -93 -15.5t-63 -34.5h-24z" />
    <glyph glyph-name="six.oldstyle" horiz-adv-x="564" 
d="M109 325v-5q24 35 78.5 61t116.5 26q103 0 153.5 -58t50.5 -144q0 -91 -56 -154t-155 -63q-112 0 -171 90t-59 247q0 169 62.5 266.5t177.5 97.5q62 0 112.5 -33t77.5 -100q-11 -14 -35 -16q-42 128 -156 128q-94 0 -145.5 -86.5t-51.5 -256.5zM109 290q10 -281 192 -281
q86 0 126 54.5t40 138.5q0 87 -41.5 135t-123.5 48q-121 0 -193 -95z" />
    <glyph glyph-name="seven.oldstyle" horiz-adv-x="475" 
d="M127 -108v3l301 642h-397v31h422v-26l-286 -650h-40z" />
    <glyph glyph-name="eight.oldstyle" horiz-adv-x="542" 
d="M204 359v2q-59 16 -91 57.5t-32 99.5q0 75 52 123t139 48q86 0 137.5 -48t51.5 -122q0 -58 -32.5 -99.5t-90.5 -58.5v-2q71 -17 110 -63t39 -114q0 -86 -57 -140t-159 -54t-159 53.5t-57 139.5q0 70 38.5 115.5t110.5 62.5zM97 179q0 -82 45.5 -126t128.5 -44t128 44.5
t45 125.5q0 82 -45 126t-128 44q-82 0 -128 -44t-46 -126zM271 369q68 0 108 41t40 113q0 69 -38.5 107.5t-109.5 38.5q-70 0 -109.5 -38t-39.5 -107q0 -72 40 -113.5t109 -41.5z" />
    <glyph glyph-name="nine.oldstyle" horiz-adv-x="564" 
d="M104 23q41 -124 157 -124q93 0 143 84t51 253q-25 -36 -79 -62t-116 -26q-98 0 -150 62.5t-52 149.5q0 91 55 155t155 64q115 0 172 -92t57 -249q0 -166 -61.5 -263t-175.5 -97q-137 0 -191 130q11 13 35 15zM454 265q-3 144 -47.5 219t-140.5 75q-84 0 -125.5 -54.5
t-41.5 -141.5q0 -88 42.5 -140.5t123.5 -52.5q117 0 189 95z" />
    <glyph glyph-name="zero.taboldstyle" horiz-adv-x="580" 
d="M290 -12q-114 0 -177 81t-63 215q0 135 62.5 215t177.5 80t177 -79.5t62 -215.5q0 -134 -62.5 -215t-176.5 -81zM290 9q100 0 148.5 72.5t48.5 202.5q0 131 -48.5 203t-148.5 72q-99 0 -148 -72.5t-49 -203.5q0 -130 49 -202t148 -72z" />
    <glyph glyph-name="one.taboldstyle" horiz-adv-x="580" 
d="M146 0v22h141v515l-141 -42v19q7 2 72.5 25t84.5 29h19v-546h133v-22h-309z" />
    <glyph glyph-name="two.taboldstyle" horiz-adv-x="580" 
d="M68 0v19q21 17 74 52l100 69t95.5 77t77.5 94t29 103q0 66 -38 105.5t-114 39.5q-129 0 -179 -123q-23 0 -31 14q21 52 73.5 90.5t133.5 38.5q96 0 147.5 -46.5t51.5 -125.5q0 -34 -14.5 -68.5t-43.5 -68t-56.5 -61t-70.5 -58.5l-67.5 -47.5l-64.5 -41.5t-46 -29v-2h385
v-31h-442z" />
    <glyph glyph-name="three.taboldstyle" horiz-adv-x="580" 
d="M213 236v21h31q97 0 143.5 43.5t46.5 119.5q0 139 -154 139q-113 0 -163 -84q-19 5 -26 19q25 36 72.5 60.5t115.5 24.5q92 0 144.5 -44.5t52.5 -120.5q0 -70 -40.5 -110.5t-102.5 -54.5v-2q71 -11 117 -52t46 -120q0 -90 -58.5 -143.5t-159.5 -53.5q-75 0 -127 26
t-74 61q6 16 26 23q55 -90 175 -90q84 0 129.5 47t45.5 125q0 166 -210 166h-30z" />
    <glyph glyph-name="four.taboldstyle" horiz-adv-x="580" 
d="M55 70v25l338 473h41v-469h88v-29h-88v-178h-36v178h-343zM91 99h307v224q0 167 1 212h-2q-25 -44 -130 -191z" />
    <glyph glyph-name="five.taboldstyle" horiz-adv-x="580" 
d="M106 235l12 333h362v-31h-335l-10 -272q56 44 151 44q104 0 160.5 -58t56.5 -150q0 -101 -61.5 -161t-163.5 -60q-68 0 -119 25.5t-74 62.5q9 13 28 21q21 -37 64 -63t104 -26q85 0 132 52.5t47 143.5q0 80 -41.5 134.5t-132.5 54.5q-51 0 -93 -15.5t-63 -34.5h-24z" />
    <glyph glyph-name="six.taboldstyle" horiz-adv-x="580" 
d="M118 325v-5q24 35 78.5 61t116.5 26q103 0 153.5 -58t50.5 -144q0 -91 -56 -154t-155 -63q-112 0 -171 90t-59 247q0 169 62.5 266.5t177.5 97.5q62 0 112.5 -33t77.5 -100q-11 -14 -35 -16q-42 128 -156 128q-94 0 -145.5 -86.5t-51.5 -256.5zM118 290q10 -281 192 -281
q86 0 126 54.5t40 138.5q0 87 -41.5 135t-123.5 48q-121 0 -193 -95z" />
    <glyph glyph-name="seven.taboldstyle" horiz-adv-x="580" 
d="M176 -108v3l301 642h-397v31h422v-26l-286 -650h-40z" />
    <glyph glyph-name="eight.taboldstyle" horiz-adv-x="580" 
d="M223 359v2q-59 16 -91 57.5t-32 99.5q0 75 52 123t139 48q86 0 137.5 -48t51.5 -122q0 -58 -32.5 -99.5t-90.5 -58.5v-2q71 -17 110 -63t39 -114q0 -86 -57 -140t-159 -54t-159 53.5t-57 139.5q0 70 38.5 115.5t110.5 62.5zM116 179q0 -82 45.5 -126t128.5 -44t128 44.5
t45 125.5q0 82 -45 126t-128 44q-82 0 -128 -44t-46 -126zM290 369q68 0 108 41t40 113q0 69 -38.5 107.5t-109.5 38.5q-70 0 -109.5 -38t-39.5 -107q0 -72 40 -113.5t109 -41.5z" />
    <glyph glyph-name="nine.taboldstyle" horiz-adv-x="580" 
d="M110 23q41 -124 157 -124q93 0 143 84t51 253q-25 -36 -79 -62t-116 -26q-98 0 -150 62.5t-52 149.5q0 91 55 155t155 64q115 0 172 -92t57 -249q0 -166 -61.5 -263t-175.5 -97q-137 0 -191 130q11 13 35 15zM460 265q-3 144 -47.5 219t-140.5 75q-84 0 -125.5 -54.5
t-41.5 -141.5q0 -88 42.5 -140.5t123.5 -52.5q117 0 189 95z" />
    <glyph glyph-name="zero.tab" horiz-adv-x="580" 
d="M290 -12q-117 0 -178.5 95t-61.5 255t61.5 255.5t178.5 95.5t178 -95t61 -255t-61 -255.5t-178 -95.5zM291 9q196 0 196 329q0 331 -197 331t-197 -332q0 -328 198 -328z" />
    <glyph glyph-name="one.tab" horiz-adv-x="580" 
d="M143 0v22h141v623l-141 -42v20q6 1 36.5 11.5l68 23.5l52.5 18h19v-654h133v-22h-309z" />
    <glyph glyph-name="two.tab" horiz-adv-x="580" 
d="M63 0v19q7 5 49.5 40l60.5 50.5l60 54t64 63t53.5 64t47.5 71.5t28.5 71.5t12.5 76.5q0 73 -39 116t-118 43q-124 0 -174 -123q-23 0 -31 15q59 128 205 128q96 0 148 -48.5t52 -131.5q0 -61 -30.5 -125t-87.5 -127t-114 -113.5t-135 -110.5v-2h390v-31h-442z" />
    <glyph glyph-name="three.tab" horiz-adv-x="580" 
d="M211 346v21h31q97 0 143.5 43.5t46.5 119.5q0 139 -154 139q-113 0 -163 -84q-19 5 -26 19q25 36 72.5 60.5t115.5 24.5q92 0 144.5 -44.5t52.5 -120.5q0 -70 -40.5 -110.5t-102.5 -54.5v-2q71 -11 117 -52t46 -120q0 -90 -58.5 -143.5t-159.5 -53.5q-75 0 -127 26
t-74 61q6 16 26 23q55 -90 175 -90q84 0 129.5 47t45.5 125q0 166 -210 166h-30z" />
    <glyph glyph-name="four.tab" horiz-adv-x="580" 
d="M55 178v25l338 473h41v-469h88v-29h-88v-178h-36v178h-343zM91 207h307v224q0 167 1 212h-2q-25 -44 -130 -191z" />
    <glyph glyph-name="five.tab" horiz-adv-x="580" 
d="M101 343l12 333h362v-31h-335l-10 -272q56 44 151 44q104 0 160.5 -58t56.5 -150q0 -101 -61.5 -161t-163.5 -60q-68 0 -119 25.5t-74 62.5q9 13 28 21q21 -37 64 -63t104 -26q85 0 132 52.5t47 143.5q0 80 -41.5 134.5t-132.5 54.5q-51 0 -93 -15.5t-63 -34.5h-24z" />
    <glyph glyph-name="six.tab" horiz-adv-x="580" 
d="M118 325v-5q24 35 78.5 61t116.5 26q103 0 153.5 -58t50.5 -144q0 -91 -56 -154t-155 -63q-112 0 -171 90t-59 247q0 169 62.5 266.5t177.5 97.5q62 0 112.5 -33t77.5 -100q-11 -14 -35 -16q-42 128 -156 128q-94 0 -145.5 -86.5t-51.5 -256.5zM118 290q10 -281 192 -281
q86 0 126 54.5t40 138.5q0 87 -41.5 135t-123.5 48q-121 0 -193 -95z" />
    <glyph glyph-name="seven.tab" horiz-adv-x="580" 
d="M176 0v3l301 642h-397v31h422v-26l-286 -650h-40z" />
    <glyph glyph-name="eight.tab" horiz-adv-x="580" 
d="M223 359v2q-59 16 -91 57.5t-32 99.5q0 75 52 123t139 48q86 0 137.5 -48t51.5 -122q0 -58 -32.5 -99.5t-90.5 -58.5v-2q71 -17 110 -63t39 -114q0 -86 -57 -140t-159 -54t-159 53.5t-57 139.5q0 70 38.5 115.5t110.5 62.5zM116 179q0 -82 45.5 -126t128.5 -44t128 44.5
t45 125.5q0 82 -45 126t-128 44q-82 0 -128 -44t-46 -126zM290 369q68 0 108 41t40 113q0 69 -38.5 107.5t-109.5 38.5q-70 0 -109.5 -38t-39.5 -107q0 -72 40 -113.5t109 -41.5z" />
    <glyph glyph-name="nine.tab" horiz-adv-x="580" 
d="M110 133q41 -124 157 -124q93 0 143 84t51 253q-25 -36 -79 -62t-116 -26q-98 0 -150 62.5t-52 149.5q0 91 55 155t155 64q115 0 172 -92t57 -249q0 -166 -61.5 -263t-175.5 -97q-137 0 -191 130q11 13 35 15zM460 375q-3 144 -47.5 219t-140.5 75q-84 0 -125.5 -54.5
t-41.5 -141.5q0 -88 42.5 -140.5t123.5 -52.5q117 0 189 95z" />
    <glyph glyph-name="zero.cap" horiz-adv-x="580" 
d="M290 -11q-115 0 -177.5 97.5t-62.5 262.5q0 166 63 264t177 98q115 0 177 -98t62 -264q0 -165 -62.5 -262.5t-176.5 -97.5zM290 9q100 0 148.5 89.5t48.5 250.5q0 162 -48.5 252t-148.5 90q-99 0 -148 -90.5t-49 -252.5q0 -161 49 -250t148 -89z" />
    <glyph glyph-name="one.cap" horiz-adv-x="423" 
d="M63 0v22h141v647l-141 -44v20q6 1 37 12l68 24.5t52 18.5h19v-678h133v-22h-309z" />
    <glyph glyph-name="two.cap" horiz-adv-x="537" 
d="M46 0v19q4 4 49 41.5t61.5 52.5l59.5 55.5t64 65t53.5 66.5t48 74.5t28 73.5t12.5 79q0 76 -39 120.5t-118 44.5q-124 0 -174 -127q-23 0 -31 16q58 131 205 131q96 0 148 -50t52 -136q0 -51 -21.5 -105.5t-55 -102t-84.5 -101t-98 -94.5l-108 -90v-2h390v-31h-442z" />
    <glyph glyph-name="three.cap" horiz-adv-x="522" 
d="M177 358v21h31q97 0 143.5 45t46.5 124q0 144 -154 144q-113 0 -163 -86q-19 5 -26 19q25 37 72.5 62t115.5 25q92 0 144.5 -45.5t52.5 -124.5q0 -72 -40 -114t-103 -57v-2q71 -11 117 -53.5t46 -124.5q0 -93 -58.5 -148t-159.5 -55q-75 0 -127 26.5t-74 62.5q7 17 26 24
q54 -93 175 -93q84 0 129.5 48.5t45.5 129.5q0 172 -210 172h-30z" />
    <glyph glyph-name="four.cap" horiz-adv-x="553" 
d="M45 185v25l338 490h41v-485h88v-30h-88v-185h-36v185h-343zM81 215h307v231q0 174 1 221h-2q-23 -42 -130 -198z" />
    <glyph glyph-name="five.cap" horiz-adv-x="518" 
d="M73 355l12 345h362v-31h-335l-10 -283q57 45 151 45q104 0 160.5 -60t56.5 -155q0 -104 -61.5 -166t-163.5 -62q-68 0 -119 26.5t-74 63.5q9 12 28 22q21 -38 64 -65t104 -27q85 0 132 54t47 149q0 83 -41.5 139.5t-132.5 56.5q-51 0 -93 -16t-63 -36h-24z" />
    <glyph glyph-name="six.cap" horiz-adv-x="564" 
d="M109 336v-4q25 35 80 62t115 27q103 0 153.5 -60.5t50.5 -148.5q0 -94 -56 -159t-155 -65q-112 0 -171 93t-59 255q0 175 62.5 275.5t177.5 100.5q62 0 112.5 -34t77.5 -103q-11 -14 -35 -16q-42 132 -156 132q-94 0 -145.5 -89.5t-51.5 -265.5zM109 300
q10 -291 192 -291q86 0 126 56.5t40 143.5q0 90 -41 140t-123 50q-65 0 -114.5 -29t-79.5 -70z" />
    <glyph glyph-name="seven.cap" horiz-adv-x="475" 
d="M127 0v3l300 666h-396v31h422v-26l-286 -674h-40z" />
    <glyph glyph-name="eight.cap" horiz-adv-x="542" 
d="M204 371v2q-59 17 -91 59.5t-32 103.5q0 77 52 126.5t139 49.5q86 0 137.5 -49t51.5 -126q0 -60 -32.5 -103.5t-90.5 -60.5v-2q71 -18 110 -65t39 -118q0 -89 -57 -144.5t-159 -55.5t-159 55t-57 144q0 72 38.5 119t110.5 65zM271 9q83 0 128 46t45 130q0 85 -45 130.5
t-128 45.5q-82 0 -128 -45.5t-46 -130.5t45.5 -130.5t128.5 -45.5zM271 381q68 0 108 42.5t40 117.5q0 72 -38.5 111.5t-109.5 39.5q-70 0 -109.5 -39.5t-39.5 -110.5q0 -75 40 -118t109 -43z" />
    <glyph glyph-name="nine.cap" horiz-adv-x="564" 
d="M104 137q41 -128 157 -128q93 0 143 86.5t51 261.5q-25 -36 -79 -63t-116 -27q-98 0 -150 65t-52 154q0 94 55 160t155 66q116 0 172.5 -94.5t56.5 -257.5q0 -171 -62 -271.5t-175 -100.5q-137 0 -191 134q11 13 35 15zM454 387q-3 150 -47.5 227.5t-140.5 77.5
q-84 0 -125.5 -56.5t-41.5 -146.5q0 -91 42.5 -145.5t123.5 -54.5q116 0 189 98z" />
    <glyph glyph-name="zero.numerator" horiz-adv-x="390" 
d="M200 273q-73 0 -111.5 55t-38.5 150q0 94 38.5 149t111.5 55q74 0 112 -54.5t38 -149.5t-38.5 -150t-111.5 -55zM200 293q108 0 108 185t-108 185q-107 0 -107 -185t107 -185z" />
    <glyph glyph-name="one.numerator" horiz-adv-x="329" 
d="M88 280v21h83v343l-83 -21v23q5 1 23.5 7l41 13l31.5 10h24v-375h73v-21h-193z" />
    <glyph glyph-name="two.numerator" horiz-adv-x="369" 
d="M49 280v23q2 1 34.5 26.5t42.5 34.5l39 34.5t41.5 42l30 41t24.5 47.5t7 46q0 38 -20.5 63t-63.5 25q-70 0 -95 -75q-22 0 -33 11q30 83 128 83q59 0 91 -29.5t32 -80.5q0 -62 -54.5 -124.5t-154.5 -133.5v-1h221v-33h-270z" />
    <glyph glyph-name="three.numerator" horiz-adv-x="348" 
d="M132 473v21h21q110 0 110 92q0 76 -85 76q-63 0 -89 -49q-21 3 -29 14q34 55 119 55q57 0 89.5 -24.5t32.5 -69.5q0 -44 -26 -69.5t-68 -33.5v-1q106 -12 106 -98q0 -52 -36.5 -82.5t-99.5 -30.5q-47 0 -79.5 16.5t-44.5 40.5q4 5 28 18q32 -54 96 -54q48 0 72 23.5
t24 63.5q0 92 -120 92h-21z" />
    <glyph glyph-name="four.numerator" horiz-adv-x="370" 
d="M47 382v29l196 265h38v-265h50v-29h-50v-102h-37v102h-197zM76 411h168v223h-3z" />
    <glyph glyph-name="five.numerator" horiz-adv-x="348" 
d="M61 476l7 200h223v-33h-200l-5 -143q41 25 92 25q64 0 97 -35t33 -89q0 -57 -38 -92.5t-98 -35.5q-46 0 -78.5 16.5t-45.5 41.5q9 9 29 14q31 -51 96 -51q44 0 70 28t26 75t-24.5 75.5t-70.5 28.5q-60 0 -87 -25h-26z" />
    <glyph glyph-name="six.numerator" horiz-adv-x="374" 
d="M102 478v-4q15 19 44.5 32.5t65.5 13.5q60 0 90 -34t30 -84q0 -57 -33.5 -93t-97.5 -36q-66 0 -103.5 56t-37.5 149q0 94 37 149t106 55q87 0 120 -82q-11 -11 -37 -11q-22 74 -83 74q-101 0 -101 -185zM102 451q8 -158 99 -158t91 103q0 47 -22.5 74t-65.5 27
q-64 0 -102 -46z" />
    <glyph glyph-name="seven.numerator" horiz-adv-x="330" 
d="M91 280v2l182 361h-235v33h262v-29l-166 -367h-43z" />
    <glyph glyph-name="eight.numerator" horiz-adv-x="364" 
d="M141 489v3q-34 9 -53.5 33t-19.5 58q0 44 33 71.5t87 27.5t87 -27.5t33 -71.5q0 -34 -20 -58t-55 -33v-3q42 -9 65.5 -36.5t23.5 -66.5q0 -51 -35.5 -82t-98.5 -31q-64 0 -100 31t-36 82q0 39 23.5 66t65.5 37zM188 293q45 0 69 24.5t24 69.5t-24.5 69t-68.5 24
q-45 0 -69.5 -24t-24.5 -69t24.5 -69.5t69.5 -24.5zM188 500q36 0 58 22.5t22 60.5q0 37 -20.5 58.5t-59.5 21.5q-40 0 -60.5 -21.5t-20.5 -58.5q0 -38 22 -60.5t59 -22.5z" />
    <glyph glyph-name="nine.numerator" horiz-adv-x="374" 
d="M63 355q9 8 35 13q24 -75 85 -75q99 0 101 184q-38 -47 -109 -47q-62 0 -91.5 35.5t-29.5 86.5q0 56 33.5 93t96.5 37q67 0 104.5 -55t37.5 -147q0 -97 -37 -152t-106 -55q-85 0 -120 82zM284 499q-3 79 -28 121.5t-71 42.5q-91 0 -91 -108q0 -47 22.5 -75t63.5 -28
q63 0 104 47z" />
    <glyph glyph-name="zero.denominator" horiz-adv-x="390" 
d="M200 -7q-73 0 -111.5 55t-38.5 150q0 94 38.5 149t111.5 55q74 0 112 -54.5t38 -149.5t-38.5 -150t-111.5 -55zM200 13q108 0 108 185t-108 185q-107 0 -107 -185t107 -185z" />
    <glyph glyph-name="one.denominator" horiz-adv-x="329" 
d="M88 0v21h83v343l-83 -21v23q5 1 23.5 7l41 13l31.5 10h24v-375h73v-21h-193z" />
    <glyph glyph-name="two.denominator" horiz-adv-x="369" 
d="M49 0v23q2 1 34.5 26.5t42.5 34.5l39 34.5t41.5 42l30 41t24.5 47.5t7 46q0 38 -20.5 63t-63.5 25q-70 0 -95 -75q-22 0 -33 11q30 83 128 83q59 0 91 -29.5t32 -80.5q0 -62 -54.5 -124.5t-154.5 -133.5v-1h221v-33h-270z" />
    <glyph glyph-name="three.denominator" horiz-adv-x="348" 
d="M132 193v21h21q110 0 110 92q0 76 -85 76q-63 0 -89 -49q-21 3 -29 14q34 55 119 55q57 0 89.5 -24.5t32.5 -69.5q0 -44 -26 -69.5t-68 -33.5v-1q106 -12 106 -98q0 -52 -36.5 -82.5t-99.5 -30.5q-47 0 -79.5 16.5t-44.5 40.5q4 5 28 18q32 -54 96 -54q48 0 72 23.5
t24 63.5q0 92 -120 92h-21z" />
    <glyph glyph-name="four.denominator" horiz-adv-x="370" 
d="M47 102v29l196 265h38v-265h50v-29h-50v-102h-37v102h-197zM76 131h168v223h-3z" />
    <glyph glyph-name="five.denominator" horiz-adv-x="348" 
d="M61 196l7 200h223v-33h-200l-5 -143q41 25 92 25q64 0 97 -35t33 -89q0 -57 -38 -92.5t-98 -35.5q-46 0 -78.5 16.5t-45.5 41.5q9 9 29 14q31 -51 96 -51q44 0 70 28t26 75t-24.5 75.5t-70.5 28.5q-60 0 -87 -25h-26z" />
    <glyph glyph-name="six.denominator" horiz-adv-x="374" 
d="M102 198v-4q15 19 44.5 32.5t65.5 13.5q60 0 90 -34t30 -84q0 -57 -33.5 -93t-97.5 -36q-66 0 -103.5 56t-37.5 149q0 94 37 149t106 55q87 0 120 -82q-11 -11 -37 -11q-22 74 -83 74q-101 0 -101 -185zM102 171q8 -158 99 -158t91 103q0 47 -22.5 74t-65.5 27
q-64 0 -102 -46z" />
    <glyph glyph-name="seven.denominator" horiz-adv-x="330" 
d="M91 0v2l182 361h-235v33h262v-29l-166 -367h-43z" />
    <glyph glyph-name="eight.denominator" horiz-adv-x="364" 
d="M141 209v3q-34 9 -53.5 33t-19.5 58q0 44 33 71.5t87 27.5t87 -27.5t33 -71.5q0 -34 -20 -58t-55 -33v-3q42 -9 65.5 -36.5t23.5 -66.5q0 -51 -35.5 -82t-98.5 -31q-64 0 -100 31t-36 82q0 39 23.5 66t65.5 37zM188 13q45 0 69 24.5t24 69.5t-24.5 69t-68.5 24
q-45 0 -69.5 -24t-24.5 -69t24.5 -69.5t69.5 -24.5zM188 220q36 0 58 22.5t22 60.5q0 37 -20.5 58.5t-59.5 21.5q-40 0 -60.5 -21.5t-20.5 -58.5q0 -38 22 -60.5t59 -22.5z" />
    <glyph glyph-name="nine.denominator" horiz-adv-x="374" 
d="M63 75q9 8 35 13q24 -75 85 -75q99 0 101 184q-38 -47 -109 -47q-62 0 -91.5 35.5t-29.5 86.5q0 56 33.5 93t96.5 37q67 0 104.5 -55t37.5 -147q0 -97 -37 -152t-106 -55q-85 0 -120 82zM284 219q-3 79 -28 121.5t-71 42.5q-91 0 -91 -108q0 -47 22.5 -75t63.5 -28
q63 0 104 47z" />
    <glyph glyph-name="l.ss01" horiz-adv-x="228" 
d="M82 112v590q15 0 35 4v-601q0 -53 13.5 -72t55.5 -19q21 0 34 4q2 -4 2 -10t-1 -8q-10 -5 -35 -5q-66 0 -85 27.5t-19 89.5z" />
    <glyph glyph-name="lacute.ss01" horiz-adv-x="228" 
d="M82 112v590q15 0 35 4v-601q0 -53 13.5 -72t55.5 -19q21 0 34 4q2 -4 2 -10t-1 -8q-10 -5 -35 -5q-66 0 -85 27.5t-19 89.5zM86 752l55 107q9 3 25 3q17 0 26 -3l-88 -107q-4 -3 -9 -3t-9 3z" />
    <glyph glyph-name="lcaron.ss01" horiz-adv-x="302" 
d="M82 112v590q15 0 35 4v-601q0 -53 13.5 -72t55.5 -19q21 0 34 4q2 -4 2 -10t-1 -8q-10 -5 -35 -5q-66 0 -85 27.5t-19 89.5zM214 581q35 28 37 78h-2q-12 0 -20 7t-8 19q0 27 25 27q29 0 29 -34q0 -39 -16.5 -69t-32.5 -38q-4 0 -8 3t-4 7z" />
    <glyph glyph-name="lcommaaccent.ss01" horiz-adv-x="228" 
d="M82 112v590q15 0 35 4v-601q0 -53 13.5 -72t55.5 -19q21 0 34 4q2 -4 2 -10t-1 -8q-10 -5 -35 -5q-66 0 -85 27.5t-19 89.5zM105 -199q19 13 30.5 36.5t12.5 43.5q-14 0 -23.5 8.5t-9.5 21.5t7.5 21.5t20.5 8.5q32 0 32 -37q0 -40 -19 -72t-37 -39q-11 0 -14 8z" />
    <glyph glyph-name="lslash.ss01" horiz-adv-x="313" 
d="M139 112v195l-109 -66v25l109 65v371q15 0 35 4v-352l109 67v-24l-109 -68v-224q0 -53 13.5 -72t55.5 -19q21 0 34 4q2 -4 2 -10t-1 -8q-10 -5 -35 -5q-66 0 -85 27.5t-19 89.5z" />
    <glyph glyph-name="ldot.ss01" horiz-adv-x="319" 
d="M82 112v590q15 0 35 4v-601q0 -53 13.5 -72t55.5 -19q21 0 34 4q2 -4 2 -10t-1 -8q-10 -5 -35 -5q-66 0 -85 27.5t-19 89.5zM254 344q-12 0 -20 8t-8 20t8 20.5t20 8.5t19.5 -8.5t7.5 -20.5t-7.5 -20t-19.5 -8z" />
    <glyph glyph-name="g.ss02" horiz-adv-x="504" 
d="M387 -1v80q-62 -54 -143 -54q-96 0 -145 66.5t-49 174.5t49 174.5t145 66.5q85 0 145 -54v44q11 0 33 4v-503q0 -73 -41 -119t-130 -46q-121 0 -172 78q10 14 30 17q13 -29 49 -53t95 -24q134 0 134 148zM387 101v332q-54 54 -139 54q-156 0 -156 -221t156 -221
q86 0 139 56z" />
    <glyph glyph-name="gcircumflex.ss02" horiz-adv-x="504" 
d="M387 -1v80q-62 -54 -143 -54q-96 0 -145 66.5t-49 174.5t49 174.5t145 66.5q85 0 145 -54v44q11 0 33 4v-503q0 -73 -41 -119t-130 -46q-121 0 -172 78q10 14 30 17q13 -29 49 -53t95 -24q134 0 134 148zM387 101v332q-54 54 -139 54q-156 0 -156 -221t156 -221
q86 0 139 56zM152 581l83 128q9 3 26 3t25 -3l84 -128q-4 -3 -11 -3q-5 0 -9 3l-88 105h-2l-89 -105q-5 -3 -9 -3q-6 0 -10 3z" />
    <glyph glyph-name="gbreve.ss02" horiz-adv-x="504" 
d="M387 -1v80q-62 -54 -143 -54q-96 0 -145 66.5t-49 174.5t49 174.5t145 66.5q85 0 145 -54v44q11 0 33 4v-503q0 -73 -41 -119t-130 -46q-121 0 -172 78q10 14 30 17q13 -29 49 -53t95 -24q134 0 134 148zM387 101v332q-54 54 -139 54q-156 0 -156 -221t156 -221
q86 0 139 56zM147 697q2 2 10 2q7 0 9 -2q14 -89 93 -89q78 0 92 89q4 2 10 2q5 0 9 -2q-13 -116 -111 -116q-49 0 -78 30.5t-34 85.5z" />
    <glyph glyph-name="gdotaccent.ss02" horiz-adv-x="504" 
d="M387 -1v80q-62 -54 -143 -54q-96 0 -145 66.5t-49 174.5t49 174.5t145 66.5q85 0 145 -54v44q11 0 33 4v-503q0 -73 -41 -119t-130 -46q-121 0 -172 78q10 14 30 17q13 -29 49 -53t95 -24q134 0 134 148zM387 101v332q-54 54 -139 54q-156 0 -156 -221t156 -221
q86 0 139 56zM261 613q-12 0 -20 8t-8 20t8 20.5t20 8.5t19.5 -8.5t7.5 -20.5t-7.5 -20t-19.5 -8z" />
    <glyph glyph-name="gcommaaccent.ss02" horiz-adv-x="504" 
d="M387 -1v80q-62 -54 -143 -54q-96 0 -145 66.5t-49 174.5t49 174.5t145 66.5q85 0 145 -54v44q11 0 33 4v-503q0 -73 -41 -119t-130 -46q-121 0 -172 78q10 14 30 17q13 -29 49 -53t95 -24q134 0 134 148zM387 101v332q-54 54 -139 54q-156 0 -156 -221t156 -221
q86 0 139 56zM286 739q4 0 8.5 -3.5t5.5 -7.5q-19 -14 -31 -37.5t-12 -42.5h2q13 0 22 -9t9 -21t-8 -21t-20 -9q-16 0 -24.5 10.5t-8.5 27.5q0 40 19.5 73t37.5 40z" />
    <glyph glyph-name="a.ss03" horiz-adv-x="511" 
d="M441 8l-29 -11q-13 21 -16 54q-59 -61 -147 -61q-98 0 -148 71t-50 187t50 187.5t148 71.5q87 0 147 -53v43q13 0 33 4v-376q0 -90 12 -117zM394 71v362q-51 54 -142 54q-159 0 -159 -239q0 -238 159 -238q42 0 80.5 17t61.5 44z" />
    <glyph glyph-name="agrave.ss03" horiz-adv-x="511" 
d="M441 8l-29 -11q-13 21 -16 54q-59 -61 -147 -61q-98 0 -148 71t-50 187t50 187.5t148 71.5q87 0 147 -53v43q13 0 33 4v-376q0 -90 12 -117zM394 71v362q-51 54 -142 54q-159 0 -159 -239q0 -238 159 -238q42 0 80.5 17t61.5 44zM272 581l-96 128q8 3 25 3t26 -3l63 -128
q-3 -3 -9 -3q-5 0 -9 3z" />
    <glyph glyph-name="aacute.ss03" horiz-adv-x="511" 
d="M441 8l-29 -11q-13 21 -16 54q-59 -61 -147 -61q-98 0 -148 71t-50 187t50 187.5t148 71.5q87 0 147 -53v43q13 0 33 4v-376q0 -90 12 -117zM394 71v362q-51 54 -142 54q-159 0 -159 -239q0 -238 159 -238q42 0 80.5 17t61.5 44zM230 581l63 128q9 3 26 3q16 0 25 -3
l-96 -128q-4 -3 -9 -3t-9 3z" />
    <glyph glyph-name="acircumflex.ss03" horiz-adv-x="511" 
d="M441 8l-29 -11q-13 21 -16 54q-59 -61 -147 -61q-98 0 -148 71t-50 187t50 187.5t148 71.5q87 0 147 -53v43q13 0 33 4v-376q0 -90 12 -117zM394 71v362q-51 54 -142 54q-159 0 -159 -239q0 -238 159 -238q42 0 80.5 17t61.5 44zM152 581l83 128q9 3 26 3t25 -3l84 -128
q-4 -3 -11 -3q-5 0 -9 3l-88 105h-2l-89 -105q-5 -3 -9 -3q-6 0 -10 3z" />
    <glyph glyph-name="atilde.ss03" horiz-adv-x="511" 
d="M441 8l-29 -11q-13 21 -16 54q-59 -61 -147 -61q-98 0 -148 71t-50 187t50 187.5t148 71.5q87 0 147 -53v43q13 0 33 4v-376q0 -90 12 -117zM394 71v362q-51 54 -142 54q-159 0 -159 -239q0 -238 159 -238q42 0 80.5 17t61.5 44zM115 604q16 40 34 61t28.5 24t25.5 3
q27 0 66 -30.5t62 -30.5q34 0 61 60q3 1 11 1q6 0 9 -1q-23 -55 -42.5 -71.5t-40.5 -16.5q-26 0 -66.5 31.5t-62.5 31.5t-39 -19.5t-26 -42.5q-6 -2 -10 -2t-10 2z" />
    <glyph glyph-name="adieresis.ss03" horiz-adv-x="511" 
d="M441 8l-29 -11q-13 21 -16 54q-59 -61 -147 -61q-98 0 -148 71t-50 187t50 187.5t148 71.5q87 0 147 -53v43q13 0 33 4v-376q0 -90 12 -117zM394 71v362q-51 54 -142 54q-159 0 -159 -239q0 -238 159 -238q42 0 80.5 17t61.5 44zM155 642q0 13 8.5 21t20.5 8t20 -8.5
t8 -20.5t-8 -20.5t-20 -8.5t-20.5 8t-8.5 21zM320 642q0 13 8.5 21t20.5 8t20 -8t8 -21t-8 -21t-20 -8t-20.5 8t-8.5 21z" />
    <glyph glyph-name="amacron.ss03" horiz-adv-x="511" 
d="M441 8l-29 -11q-13 21 -16 54q-59 -61 -147 -61q-98 0 -148 71t-50 187t50 187.5t148 71.5q87 0 147 -53v43q13 0 33 4v-376q0 -90 12 -117zM394 71v362q-51 54 -142 54q-159 0 -159 -239q0 -238 159 -238q42 0 80.5 17t61.5 44zM142 623v24h244v-24h-244z" />
    <glyph glyph-name="abreve.ss03" horiz-adv-x="511" 
d="M441 8l-29 -11q-13 21 -16 54q-59 -61 -147 -61q-98 0 -148 71t-50 187t50 187.5t148 71.5q87 0 147 -53v43q13 0 33 4v-376q0 -90 12 -117zM394 71v362q-51 54 -142 54q-159 0 -159 -239q0 -238 159 -238q42 0 80.5 17t61.5 44zM149 697q2 2 10 2q7 0 9 -2
q14 -89 93 -89q78 0 92 89q4 2 10 2q5 0 9 -2q-13 -116 -111 -116q-49 0 -78 30.5t-34 85.5z" />
    <glyph glyph-name="aring.ss03" horiz-adv-x="511" 
d="M441 8l-29 -11q-13 21 -16 54q-59 -61 -147 -61q-98 0 -148 71t-50 187t50 187.5t148 71.5q87 0 147 -53v43q13 0 33 4v-376q0 -90 12 -117zM394 71v362q-51 54 -142 54q-159 0 -159 -239q0 -238 159 -238q42 0 80.5 17t61.5 44zM188 633q0 32 19.5 52t51.5 20
q33 0 52 -20t19 -52q0 -31 -19.5 -51t-51.5 -20t-51.5 20t-19.5 51zM259 580q22 0 34.5 15t12.5 38t-12.5 38t-34.5 15t-34 -14.5t-12 -38.5t12 -38.5t34 -14.5z" />
    <glyph glyph-name="aogonek.ss03" horiz-adv-x="511" 
d="M430 -180l7 -10q-25 -25 -71 -25q-82 0 -82 73q0 45 38 83t87 61q-10 19 -13 49q-59 -61 -147 -61q-98 0 -148 71t-50 187t50 187.5t148 71.5q87 0 147 -53v43q13 0 33 4v-376q0 -90 12 -117q-69 -38 -97.5 -72.5t-28.5 -76.5q0 -55 59 -55q35 0 56 16zM394 71v362
q-51 54 -142 54q-159 0 -159 -239q0 -238 159 -238q42 0 80.5 17t61.5 44z" />
    <glyph glyph-name="t.ss04" horiz-adv-x="298" 
d="M102 115v363h-82v19h26q44 0 55.5 17t20.5 94q7 0 15 2v-113h126v-19h-126v-368q0 -55 19.5 -75.5t66.5 -20.5q31 0 49 9q0 -1 0.5 -4.5t0.5 -6.5q0 -2 -0.5 -5.5t-0.5 -4.5q-9 -7 -52 -7q-63 0 -90.5 26.5t-27.5 93.5z" />
    <glyph glyph-name="tcaron.ss04" horiz-adv-x="298" 
d="M102 115v363h-82v19h26q44 0 55.5 17t20.5 94q7 0 15 2v-113h126v-19h-126v-368q0 -55 19.5 -75.5t66.5 -20.5q31 0 49 9q0 -1 0.5 -4.5t0.5 -6.5q0 -2 -0.5 -5.5t-0.5 -4.5q-9 -7 -52 -7q-63 0 -90.5 26.5t-27.5 93.5zM231 603q35 28 37 78h-2q-12 0 -20 7t-8 19
q0 27 25 27q29 0 29 -34q0 -39 -16.5 -69t-32.5 -38q-4 0 -8 3t-4 7z" />
    <glyph glyph-name="tcommaaccent.ss04" horiz-adv-x="298" 
d="M105 -188l4 15q24 -16 60 -16q52 0 52 48q0 27 -20 39t-65 22l24 82q-58 20 -58 113v363h-82v19h26q44 0 55.5 17t20.5 94q7 0 15 2v-113h126v-19h-126v-368q0 -55 19.5 -75.5t66.5 -20.5q31 0 49 9q0 -1 0.5 -4.5t0.5 -6.5q0 -2 -0.5 -5.5t-0.5 -4.5q-9 -7 -52 -7
q-21 0 -38 3l-18 -58q88 -15 88 -77q0 -36 -22 -54t-57 -18q-44 0 -68 21z" />
    <glyph glyph-name="uni021B.ss04" horiz-adv-x="298" 
d="M102 115v363h-82v19h26q44 0 55.5 17t20.5 94q7 0 15 2v-113h126v-19h-126v-368q0 -55 19.5 -75.5t66.5 -20.5q31 0 49 9q0 -1 0.5 -4.5t0.5 -6.5q0 -2 -0.5 -5.5t-0.5 -4.5q-9 -7 -52 -7q-63 0 -90.5 26.5t-27.5 93.5zM145 -199q19 13 30.5 36.5t12.5 43.5
q-14 0 -23.5 8.5t-9.5 21.5t7.5 21.5t20.5 8.5q32 0 32 -37q0 -40 -19 -72t-37 -39q-11 0 -14 8z" />
    <glyph glyph-name="tbar.ss04" horiz-adv-x="298" 
d="M102 115v154h-82v18h82v191h-82v19h26q44 0 55.5 17t20.5 94q7 0 15 2v-113h126v-19h-126v-191h126v-18h-126v-159q0 -55 19.5 -75.5t66.5 -20.5q31 0 49 9q0 -1 0.5 -4.5t0.5 -6.5q0 -2 -0.5 -5.5t-0.5 -4.5q-9 -7 -52 -7q-63 0 -90.5 26.5t-27.5 93.5z" />
    <glyph glyph-name="j.calt" horiz-adv-x="199" 
d="M82 -75v572q15 0 35 4v-584q0 -67 -23 -93.5t-79 -26.5q-21 0 -32 3q-2 2 -2 9q0 9 3 14q12 -5 36 -5q41 0 51.5 23t10.5 84zM100 614q-12 0 -19.5 8t-7.5 19q0 12 7.5 20.5t19.5 8.5t19.5 -8.5t7.5 -20.5q0 -11 -7.5 -19t-19.5 -8z" />
    </font>
</defs>
</svg>
